Antonio-200.ufo
<glyph name="exclam" format="1">
  <advance width="482"/>
  <unicode hex="0021"/>
  <outline>
    <contour>
      <point x="159" y="0" type="line"/>
      <point x="320" y="0" type="line"/>
      <point x="320" y="184" type="line"/>
      <point x="159" y="184" type="line"/>
    </contour>
    <contour>
      <point x="219" y="349" type="line"/>
      <point x="262" y="349" type="line"/>
      <point x="320" y="1760" type="line"/>
      <point x="165" y="1760" type="line"/>
    </contour>
  </outline>
</glyph>
<glyph name="quotedbl" format="1">
  <advance width="790"/>
  <unicode hex="0022"/>
  <outline>
    <contour>
      <point x="220" y="1172" type="line"/>
      <point x="280" y="1172" type="line"/>
      <point x="353" y="1760" type="line"/>
      <point x="220" y="1760" type="line"/>
    </contour>
    <contour>
      <point x="486" y="1172" type="line"/>
      <point x="546" y="1172" type="line"/>
      <point x="621" y="1760" type="line"/>
      <point x="486" y="1760" type="line"/>
    </contour>
  </outline>
</glyph>
<glyph name="numbersign" format="1">
  <advance width="812"/>
  <unicode hex="0023"/>
  <outline>
    <contour>
      <point x="-37" y="0" type="line"/>
      <point x="55" y="0" type="line"/>
      <point x="218" y="701" type="line"/>
      <point x="468" y="701" type="line"/>
      <point x="306" y="0" type="line"/>
      <point x="383" y="0" type="line"/>
      <point x="548" y="701" type="line"/>
      <point x="778" y="701" type="line"/>
      <point x="778" y="802" type="line"/>
      <point x="573" y="802" type="line"/>
      <point x="629" y="1015" type="line"/>
      <point x="826" y="1015" type="line"/>
      <point x="826" y="1116" type="line"/>
      <point x="654" y="1116" type="line"/>
      <point x="805" y="1759" type="line"/>
      <point x="726" y="1759" type="line"/>
      <point x="574" y="1116" type="line"/>
      <point x="324" y="1116" type="line"/>
      <point x="477" y="1759" type="line"/>
      <point x="383" y="1759" type="line"/>
      <point x="232" y="1116" type="line"/>
      <point x="1" y="1116" type="line"/>
      <point x="1" y="1015" type="line"/>
      <point x="209" y="1015" type="line"/>
      <point x="153" y="802" type="line"/>
      <point x="-47" y="802" type="line"/>
      <point x="-47" y="701" type="line"/>
      <point x="127" y="701" type="line"/>
    </contour>
    <contour>
      <point x="242" y="799" type="line"/>
      <point x="297" y="1007" type="line"/>
      <point x="551" y="1007" type="line"/>
      <point x="496" y="799" type="line"/>
    </contour>
  </outline>
</glyph>
<glyph name="dollar" format="1">
  <advance width="848"/>
  <unicode hex="0024"/>
  <outline>
    <contour>
      <point x="418" y="-204" type="line"/>
      <point x="523" y="-204" type="line"/>
      <point x="523" y="90" type="line"/>
      <point x="418" y="90" type="line"/>
    </contour>
    <contour>
      <point x="357" y="1493" type="line"/>
      <point x="462" y="1493" type="line"/>
      <point x="462" y="1797" type="line"/>
      <point x="357" y="1797" type="line"/>
    </contour>
    <component base="s" xOffset="81" yOffset="74"/>
  </outline>
</glyph>
<glyph name="percent" format="1">
  <advance width="2009"/>
  <unicode hex="0025"/>
  <outline>
    <contour>
      <point x="396" y="701" type="curve" smooth="yes"/>
      <point x="284" y="701"/>
      <point x="251" y="746"/>
      <point x="251" y="935" type="curve" smooth="yes"/>
      <point x="251" y="1438" type="line" smooth="yes"/>
      <point x="251" y="1620"/>
      <point x="287" y="1663"/>
      <point x="396" y="1663" type="curve" smooth="yes"/>
      <point x="508" y="1663"/>
      <point x="542" y="1619"/>
      <point x="542" y="1438" type="curve" smooth="yes"/>
      <point x="542" y="935" type="line" smooth="yes"/>
      <point x="542" y="746"/>
      <point x="510" y="701"/>
    </contour>
    <contour>
      <point x="396" y="581" type="curve" smooth="yes"/>
      <point x="616" y="581"/>
      <point x="646" y="658"/>
      <point x="646" y="1014" type="curve" smooth="yes"/>
      <point x="646" y="1364" type="line" smooth="yes"/>
      <point x="646" y="1702"/>
      <point x="612" y="1782"/>
      <point x="396" y="1782" type="curve" smooth="yes"/>
      <point x="182" y="1782"/>
      <point x="147" y="1702"/>
      <point x="147" y="1364" type="curve" smooth="yes"/>
      <point x="147" y="1014" type="line" smooth="yes"/>
      <point x="147" y="658"/>
      <point x="178" y="581"/>
    </contour>
    <contour>
      <point x="1621" y="100" type="curve" smooth="yes"/>
      <point x="1508" y="100"/>
      <point x="1475" y="145"/>
      <point x="1475" y="334" type="curve" smooth="yes"/>
      <point x="1475" y="837" type="line" smooth="yes"/>
      <point x="1475" y="1019"/>
      <point x="1509" y="1062"/>
      <point x="1621" y="1062" type="curve" smooth="yes"/>
      <point x="1730" y="1062"/>
      <point x="1766" y="1018"/>
      <point x="1766" y="837" type="curve" smooth="yes"/>
      <point x="1766" y="334" type="line" smooth="yes"/>
      <point x="1766" y="145"/>
      <point x="1733" y="100"/>
    </contour>
    <contour>
      <point x="1621" y="-20" type="curve" smooth="yes"/>
      <point x="1839" y="-20"/>
      <point x="1870" y="57"/>
      <point x="1870" y="413" type="curve" smooth="yes"/>
      <point x="1870" y="763" type="line" smooth="yes"/>
      <point x="1870" y="1101"/>
      <point x="1835" y="1181"/>
      <point x="1621" y="1181" type="curve" smooth="yes"/>
      <point x="1405" y="1181"/>
      <point x="1371" y="1101"/>
      <point x="1371" y="763" type="curve" smooth="yes"/>
      <point x="1371" y="413" type="line" smooth="yes"/>
      <point x="1371" y="57"/>
      <point x="1401" y="-20"/>
    </contour>
    <contour>
      <point x="576" y="0" type="line"/>
      <point x="702" y="0" type="line"/>
      <point x="1440" y="1760" type="line"/>
      <point x="1321" y="1760" type="line"/>
    </contour>
  </outline>
</glyph>
<glyph name="ampersand" format="1">
  <advance width="741"/>
  <unicode hex="0026"/>
  <outline>
    <contour>
      <point x="314" y="-20" type="curve" smooth="yes"/>
      <point x="489" y="-20"/>
      <point x="554" y="147"/>
      <point x="570" y="311" type="curve"/>
      <point x="688" y="0" type="line"/>
      <point x="777" y="0" type="line"/>
      <point x="621" y="396" type="line"/>
      <point x="651" y="498"/>
      <point x="679" y="609"/>
      <point x="750" y="717" type="curve"/>
      <point x="707" y="797" type="line"/>
      <point x="640" y="704"/>
      <point x="606" y="609"/>
      <point x="571" y="515" type="curve"/>
      <point x="389" y="944" type="line"/>
      <point x="496" y="1099"/>
      <point x="593" y="1229"/>
      <point x="593" y="1436" type="curve" smooth="yes"/>
      <point x="593" y="1655"/>
      <point x="580" y="1782"/>
      <point x="384" y="1782" type="curve" smooth="yes"/>
      <point x="227" y="1782"/>
      <point x="151" y="1676"/>
      <point x="151" y="1449" type="curve" smooth="yes"/>
      <point x="151" y="1358"/>
      <point x="213" y="1188"/>
      <point x="296" y="974" type="curve"/>
      <point x="168" y="773"/>
      <point x="74" y="624"/>
      <point x="74" y="330" type="curve" smooth="yes"/>
      <point x="74" y="63"/>
      <point x="177" y="-20"/>
    </contour>
    <contour>
      <point x="321" y="68" type="curve" smooth="yes"/>
      <point x="214" y="68"/>
      <point x="163" y="176"/>
      <point x="158" y="299" type="curve"/>
      <point x="153" y="474"/>
      <point x="226" y="733"/>
      <point x="335" y="865" type="curve"/>
      <point x="533" y="391" type="line"/>
      <point x="473" y="210"/>
      <point x="438" y="68"/>
    </contour>
    <contour>
      <point x="354" y="1047" type="curve"/>
      <point x="292" y="1221"/>
      <point x="241" y="1364"/>
      <point x="241" y="1454" type="curve" smooth="yes"/>
      <point x="241" y="1528"/>
      <point x="229" y="1701"/>
      <point x="381" y="1701" type="curve" smooth="yes"/>
      <point x="487" y="1701"/>
      <point x="497" y="1616"/>
      <point x="497" y="1470" type="curve" smooth="yes"/>
      <point x="497" y="1281"/>
      <point x="432" y="1160"/>
    </contour>
  </outline>
</glyph>
<glyph name="quotesingle" format="1">
  <advance width="398"/>
  <unicode hex="0027"/>
  <outline>
    <contour>
      <point x="192" y="1125" type="line"/>
      <point x="198" y="1125" type="line"/>
      <point x="263" y="1761" type="line"/>
      <point x="132" y="1761" type="line"/>
    </contour>
  </outline>
</glyph>
<glyph name="parenleft" format="1">
  <advance width="536"/>
  <unicode hex="0028"/>
  <outline>
    <contour>
      <point x="427" y="-30" type="curve"/>
      <point x="427" y="54" type="line"/>
      <point x="307" y="54"/>
      <point x="288" y="27"/>
      <point x="288" y="365" type="curve" smooth="yes"/>
      <point x="288" y="1386" type="line" smooth="yes"/>
      <point x="288" y="1724"/>
      <point x="307" y="1698"/>
      <point x="427" y="1698" type="curve"/>
      <point x="427" y="1782" type="line"/>
      <point x="211" y="1782"/>
      <point x="178" y="1745"/>
      <point x="178" y="1382" type="curve" smooth="yes"/>
      <point x="178" y="369" type="line" smooth="yes"/>
      <point x="178" y="6"/>
      <point x="211" y="-30"/>
    </contour>
  </outline>
</glyph>
<glyph name="parenright" format="1">
  <advance width="536"/>
  <unicode hex="0029"/>
  <outline>
    <contour>
      <point x="109" y="-34" type="line"/>
      <point x="325" y="-34"/>
      <point x="358" y="3"/>
      <point x="358" y="366" type="curve" smooth="yes"/>
      <point x="358" y="1382" type="line" smooth="yes"/>
      <point x="358" y="1745"/>
      <point x="325" y="1782"/>
      <point x="109" y="1782" type="curve"/>
      <point x="109" y="1698" type="line"/>
      <point x="229" y="1698"/>
      <point x="248" y="1724"/>
      <point x="248" y="1386" type="curve" smooth="yes"/>
      <point x="248" y="362" type="line" smooth="yes"/>
      <point x="248" y="23"/>
      <point x="229" y="50"/>
      <point x="109" y="50" type="curve"/>
    </contour>
  </outline>
</glyph>
<glyph name="asterisk" format="1">
  <advance width="1020"/>
  <unicode hex="002A"/>
  <outline>
    <contour>
      <point x="454" y="1131" type="line"/>
      <point x="568" y="1131" type="line"/>
      <point x="551" y="1399" type="line"/>
      <point x="773" y="1223" type="line"/>
      <point x="832" y="1324" type="line"/>
      <point x="587" y="1469" type="line"/>
      <point x="832" y="1605" type="line"/>
      <point x="773" y="1705" type="line"/>
      <point x="551" y="1533" type="line"/>
      <point x="568" y="1797" type="line"/>
      <point x="454" y="1797" type="line"/>
      <point x="474" y="1533" type="line"/>
      <point x="246" y="1693" type="line"/>
      <point x="188" y="1593" type="line"/>
      <point x="433" y="1469" type="line"/>
      <point x="197" y="1336" type="line"/>
      <point x="255" y="1233" type="line"/>
      <point x="473" y="1402" type="line"/>
    </contour>
  </outline>
</glyph>
<glyph name="plus" format="1">
  <advance width="826"/>
  <unicode hex="002B"/>
  <outline>
    <contour>
      <point x="362" y="628" type="line"/>
      <point x="459" y="628" type="line"/>
      <point x="459" y="905" type="line"/>
      <point x="698" y="905" type="line"/>
      <point x="698" y="988" type="line"/>
      <point x="459" y="988" type="line"/>
      <point x="459" y="1257" type="line"/>
      <point x="362" y="1257" type="line"/>
      <point x="362" y="988" type="line"/>
      <point x="128" y="988" type="line"/>
      <point x="128" y="905" type="line"/>
      <point x="362" y="905" type="line"/>
    </contour>
  </outline>
</glyph>
<glyph name="comma" format="1">
  <advance width="420"/>
  <unicode hex="002C"/>
  <outline>
    <contour>
      <point x="156" y="-354" type="line"/>
      <point x="213" y="-354" type="line"/>
      <point x="319" y="9" type="line"/>
      <point x="319" y="130" type="line"/>
      <point x="160" y="130" type="line"/>
      <point x="160" y="0" type="line"/>
      <point x="268" y="0" type="line"/>
    </contour>
  </outline>
</glyph>
<glyph name="hyphen" format="1">
  <advance width="696"/>
  <unicode hex="002D"/>
  <outline>
    <contour>
      <point x="124" y="897" type="line"/>
      <point x="620" y="897" type="line"/>
      <point x="620" y="993" type="line"/>
      <point x="124" y="993" type="line"/>
    </contour>
  </outline>
</glyph>
<glyph name="period" format="1">
  <advance width="532"/>
  <unicode hex="002E"/>
  <outline>
    <contour>
      <point x="176" y="0" type="line"/>
      <point x="316" y="0" type="line"/>
      <point x="316" y="140" type="line"/>
      <point x="176" y="140" type="line"/>
    </contour>
  </outline>
</glyph>
<glyph name="slash" format="1">
  <advance width="752"/>
  <unicode hex="002F"/>
  <outline>
    <contour>
      <point x="112" y="0" type="line"/>
      <point x="212" y="0" type="line"/>
      <point x="671" y="1792" type="line"/>
      <point x="569" y="1792" type="line"/>
    </contour>
  </outline>
</glyph>
<glyph name="zero" format="1">
  <advance width="815"/>
  <unicode hex="0030"/>
  <outline>
    <contour>
      <point x="403" y="66" type="curve" smooth="yes"/>
      <point x="268" y="66"/>
      <point x="259" y="243"/>
      <point x="259" y="470" type="curve" smooth="yes"/>
      <point x="259" y="1328" type="line" smooth="yes"/>
      <point x="259" y="1532"/>
      <point x="259" y="1693"/>
      <point x="403" y="1693" type="curve" smooth="yes"/>
      <point x="558" y="1693"/>
      <point x="554" y="1533"/>
      <point x="554" y="1327" type="curve" smooth="yes"/>
      <point x="554" y="470" type="line" smooth="yes"/>
      <point x="554" y="243"/>
      <point x="553" y="66"/>
    </contour>
    <contour>
      <point x="407" y="-21" type="curve" smooth="yes"/>
      <point x="583" y="-21"/>
      <point x="671" y="104"/>
      <point x="671" y="475" type="curve" smooth="yes"/>
      <point x="671" y="1316" type="line" smooth="yes"/>
      <point x="671" y="1658"/>
      <point x="587" y="1781"/>
      <point x="407" y="1781" type="curve" smooth="yes"/>
      <point x="233" y="1781"/>
      <point x="144" y="1658"/>
      <point x="144" y="1316" type="curve" smooth="yes"/>
      <point x="144" y="475" type="line" smooth="yes"/>
      <point x="144" y="104"/>
      <point x="237" y="-21"/>
    </contour>
  </outline>
</glyph>
<glyph name="one" format="1">
  <advance width="813"/>
  <unicode hex="0031"/>
  <outline>
    <contour>
      <point x="420" y="0" type="line"/>
      <point x="530" y="0" type="line"/>
      <point x="530" y="1761" type="line"/>
      <point x="480" y="1761" type="line"/>
      <point x="424" y="1629"/>
      <point x="275" y="1522"/>
      <point x="169" y="1507" type="curve"/>
      <point x="169" y="1463" type="line"/>
      <point x="243" y="1463"/>
      <point x="372" y="1512"/>
      <point x="420" y="1569" type="curve"/>
    </contour>
  </outline>
</glyph>
<glyph name="two" format="1">
  <advance width="813"/>
  <unicode hex="0032"/>
  <outline>
    <contour>
      <point x="182" y="0" type="line"/>
      <point x="649" y="0" type="line"/>
      <point x="649" y="97" type="line"/>
      <point x="281" y="97" type="line"/>
      <point x="281" y="-2"/>
      <point x="476" y="421"/>
      <point x="398" y="282" type="curve" smooth="yes"/>
      <point x="500" y="546" type="line"/>
      <point x="612" y="808"/>
      <point x="671" y="988"/>
      <point x="671" y="1322" type="curve" smooth="yes"/>
      <point x="671" y="1683"/>
      <point x="584" y="1778"/>
      <point x="446" y="1783" type="curve" smooth="yes"/>
      <point x="314" y="1788"/>
      <point x="186" y="1718"/>
      <point x="186" y="1416" type="curve" smooth="yes"/>
      <point x="186" y="1065" type="line"/>
      <point x="284" y="1065" type="line"/>
      <point x="284" y="1336" type="line" smooth="yes"/>
      <point x="284" y="1572"/>
      <point x="335" y="1689"/>
      <point x="428" y="1692" type="curve" smooth="yes"/>
      <point x="540" y="1695"/>
      <point x="571" y="1625"/>
      <point x="571" y="1302" type="curve" smooth="yes"/>
      <point x="571" y="1014"/>
      <point x="568" y="922"/>
      <point x="414" y="574" type="curve"/>
      <point x="292" y="258" type="line" smooth="yes"/>
      <point x="387" y="426"/>
      <point x="182" y="-3"/>
      <point x="182" y="137" type="curve" smooth="yes"/>
    </contour>
  </outline>
</glyph>
<glyph name="three" format="1">
  <advance width="813"/>
  <unicode hex="0033"/>
  <outline>
    <contour>
      <point x="390" y="-20" type="curve" smooth="yes"/>
      <point x="593" y="-20"/>
      <point x="694" y="129"/>
      <point x="694" y="456" type="curve" smooth="yes"/>
      <point x="694" y="643"/>
      <point x="639" y="852"/>
      <point x="519" y="905" type="curve"/>
      <point x="646" y="954"/>
      <point x="692" y="1114"/>
      <point x="692" y="1322" type="curve" smooth="yes"/>
      <point x="692" y="1622"/>
      <point x="602" y="1780"/>
      <point x="388" y="1780" type="curve" smooth="yes"/>
      <point x="177" y="1780"/>
      <point x="102" y="1612"/>
      <point x="102" y="1315" type="curve" smooth="yes"/>
      <point x="102" y="1296" type="line"/>
      <point x="217" y="1296" type="line"/>
      <point x="217" y="1319" type="line" smooth="yes"/>
      <point x="217" y="1635"/>
      <point x="292" y="1690"/>
      <point x="382" y="1690" type="curve" smooth="yes"/>
      <point x="481" y="1690"/>
      <point x="579" y="1646"/>
      <point x="579" y="1324" type="curve" smooth="yes"/>
      <point x="579" y="981"/>
      <point x="495" y="965"/>
      <point x="338" y="965" type="curve" smooth="yes"/>
      <point x="308" y="965" type="line"/>
      <point x="308" y="863" type="line"/>
      <point x="340" y="863" type="line" smooth="yes"/>
      <point x="498" y="863"/>
      <point x="582" y="783"/>
      <point x="582" y="462" type="curve" smooth="yes"/>
      <point x="582" y="160"/>
      <point x="541" y="69"/>
      <point x="397" y="69" type="curve" smooth="yes"/>
      <point x="250" y="69"/>
      <point x="213" y="149"/>
      <point x="213" y="476" type="curve" smooth="yes"/>
      <point x="213" y="493" type="line"/>
      <point x="94" y="493" type="line"/>
      <point x="94" y="481" type="line" smooth="yes"/>
      <point x="94" y="148"/>
      <point x="179" y="-20"/>
    </contour>
  </outline>
</glyph>
<glyph name="four" format="1">
  <advance width="813"/>
  <unicode hex="0034"/>
  <outline>
    <contour>
      <point x="477" y="-1" type="line"/>
      <point x="575" y="-1" type="line"/>
      <point x="575" y="366" type="line"/>
      <point x="735" y="366" type="line"/>
      <point x="735" y="449" type="line"/>
      <point x="575" y="449" type="line"/>
      <point x="575" y="1760" type="line"/>
      <point x="479" y="1760" type="line"/>
      <point x="105" y="430" type="line"/>
      <point x="105" y="366" type="line"/>
      <point x="477" y="366" type="line"/>
    </contour>
    <contour>
      <point x="193" y="449" type="line"/>
      <point x="477" y="1507" type="line"/>
      <point x="477" y="449" type="line"/>
    </contour>
  </outline>
</glyph>
<glyph name="five" format="1">
  <advance width="813"/>
  <unicode hex="0035"/>
  <outline>
    <contour>
      <point x="416" y="-20" type="curve" smooth="yes"/>
      <point x="563" y="-20"/>
      <point x="640" y="93"/>
      <point x="638" y="138" type="curve" smooth="yes"/>
      <point x="637" y="120"/>
      <point x="637" y="959"/>
      <point x="637" y="939" type="curve" smooth="yes"/>
      <point x="637" y="1223"/>
      <point x="533" y="1226"/>
      <point x="428" y="1213" type="curve" smooth="yes"/>
      <point x="384" y="1208"/>
      <point x="321" y="1172"/>
      <point x="304" y="1100" type="curve"/>
      <point x="304" y="1659" type="line"/>
      <point x="602" y="1659" type="line"/>
      <point x="602" y="1760" type="line"/>
      <point x="207" y="1760" type="line"/>
      <point x="207" y="926" type="line"/>
      <point x="293" y="900" type="line"/>
      <point x="293" y="1048"/>
      <point x="353" y="1114"/>
      <point x="420" y="1114" type="curve" smooth="yes"/>
      <point x="503" y="1114"/>
      <point x="537" y="1046"/>
      <point x="537" y="881" type="curve" smooth="yes"/>
      <point x="537" y="238" type="line" smooth="yes"/>
      <point x="537" y="100"/>
      <point x="485" y="66"/>
      <point x="409" y="66" type="curve" smooth="yes"/>
      <point x="324" y="66"/>
      <point x="282" y="101"/>
      <point x="282" y="227" type="curve" smooth="yes"/>
      <point x="282" y="424" type="line"/>
      <point x="179" y="424" type="line"/>
      <point x="179" y="274" type="line" smooth="yes"/>
      <point x="179" y="130"/>
      <point x="204" y="-20"/>
    </contour>
  </outline>
</glyph>
<glyph name="six" format="1">
  <advance width="813"/>
  <unicode hex="0036"/>
  <outline>
    <contour>
      <point x="430" y="-19" type="curve" smooth="yes"/>
      <point x="643" y="-19"/>
      <point x="725" y="112"/>
      <point x="725" y="397" type="curve" smooth="yes"/>
      <point x="725" y="555" type="line" smooth="yes"/>
      <point x="725" y="991"/>
      <point x="639" y="1125"/>
      <point x="410" y="1106" type="curve" smooth="yes"/>
      <point x="359" y="1101"/>
      <point x="308" y="1071"/>
      <point x="258" y="992" type="curve"/>
      <point x="258" y="1260" type="line" smooth="yes"/>
      <point x="258" y="1627"/>
      <point x="289" y="1690"/>
      <point x="432" y="1690" type="curve" smooth="yes"/>
      <point x="555" y="1690"/>
      <point x="554" y="1576"/>
      <point x="556" y="1272" type="curve" smooth="yes"/>
      <point x="556" y="1256" type="line"/>
      <point x="685" y="1256" type="line"/>
      <point x="685" y="1253" type="line" smooth="yes"/>
      <point x="679" y="1591"/>
      <point x="683" y="1784"/>
      <point x="433" y="1784" type="curve" smooth="yes"/>
      <point x="184" y="1784"/>
      <point x="144" y="1626"/>
      <point x="144" y="1285" type="curve" smooth="yes"/>
      <point x="144" y="514" type="line" smooth="yes"/>
      <point x="144" y="236"/>
      <point x="168" y="-19"/>
    </contour>
    <contour>
      <point x="433" y="72" type="curve" smooth="yes"/>
      <point x="255" y="72"/>
      <point x="258" y="213"/>
      <point x="258" y="535" type="curve" smooth="yes"/>
      <point x="258" y="954" type="line"/>
      <point x="291" y="963"/>
      <point x="339" y="1010"/>
      <point x="449" y="1010" type="curve" smooth="yes"/>
      <point x="568" y="1010"/>
      <point x="601" y="891"/>
      <point x="601" y="523" type="curve" smooth="yes"/>
      <point x="601" y="443" type="line" smooth="yes"/>
      <point x="601" y="123"/>
      <point x="559" y="72"/>
    </contour>
  </outline>
</glyph>
<glyph name="seven" format="1">
  <advance width="813"/>
  <unicode hex="0037"/>
  <outline>
    <contour>
      <point x="256" y="1" type="curve"/>
      <point x="365" y="1" type="line"/>
      <point x="396" y="470"/>
      <point x="482" y="911"/>
      <point x="551" y="1218" type="curve"/>
      <point x="628" y="1537"/>
      <point x="687" y="1726"/>
      <point x="688" y="1682" type="curve"/>
      <point x="688" y="1759" type="line"/>
      <point x="103" y="1759" type="line"/>
      <point x="103" y="1682" type="line"/>
      <point x="607" y="1682" type="line"/>
      <point x="608" y="1689"/>
      <point x="523" y="1502"/>
      <point x="425" y="1153" type="curve"/>
      <point x="362" y="890"/>
      <point x="296" y="474"/>
    </contour>
  </outline>
</glyph>
<glyph name="eight" format="1">
  <advance width="813"/>
  <unicode hex="0038"/>
  <outline>
    <contour>
      <point x="413" y="-20" type="curve" smooth="yes"/>
      <point x="593" y="-20"/>
      <point x="681" y="106"/>
      <point x="693" y="405" type="curve" smooth="yes"/>
      <point x="693" y="392" type="line" smooth="yes"/>
      <point x="693" y="723"/>
      <point x="649" y="838"/>
      <point x="534" y="921" type="curve"/>
      <point x="635" y="990"/>
      <point x="688" y="1106"/>
      <point x="688" y="1349" type="curve" smooth="yes"/>
      <point x="688" y="1649"/>
      <point x="594" y="1783"/>
      <point x="418" y="1783" type="curve" smooth="yes"/>
      <point x="238" y="1783"/>
      <point x="144" y="1651"/>
      <point x="144" y="1349" type="curve" smooth="yes"/>
      <point x="144" y="1096"/>
      <point x="188" y="980"/>
      <point x="280" y="916" type="curve"/>
      <point x="162" y="836"/>
      <point x="124" y="719"/>
      <point x="122" y="392" type="curve" smooth="yes"/>
      <point x="122" y="364"/>
      <point x="123" y="422"/>
      <point x="123" y="393" type="curve" smooth="yes"/>
      <point x="136" y="102"/>
      <point x="224" y="-20"/>
    </contour>
    <contour>
      <point x="416" y="68" type="curve" smooth="yes"/>
      <point x="306" y="68"/>
      <point x="235" y="181"/>
      <point x="231" y="423" type="curve" smooth="yes"/>
      <point x="231" y="447"/>
      <point x="231" y="423"/>
      <point x="232" y="446" type="curve" smooth="yes"/>
      <point x="239" y="747"/>
      <point x="282" y="873"/>
      <point x="416" y="873" type="curve" smooth="yes"/>
      <point x="528" y="873"/>
      <point x="575" y="753"/>
      <point x="584" y="465" type="curve" smooth="yes"/>
      <point x="584" y="441"/>
      <point x="585" y="463"/>
      <point x="585" y="438" type="curve" smooth="yes"/>
      <point x="583" y="188"/>
      <point x="512" y="68"/>
    </contour>
    <contour>
      <point x="414" y="965" type="curve" smooth="yes"/>
      <point x="297" y="965"/>
      <point x="259" y="1109"/>
      <point x="259" y="1359" type="curve" smooth="yes"/>
      <point x="259" y="1552"/>
      <point x="301" y="1680"/>
      <point x="414" y="1680" type="curve" smooth="yes"/>
      <point x="528" y="1680"/>
      <point x="573" y="1545"/>
      <point x="573" y="1365" type="curve" smooth="yes"/>
      <point x="573" y="1110"/>
      <point x="537" y="965"/>
    </contour>
  </outline>
</glyph>
<glyph name="nine" format="1">
  <advance width="813"/>
  <unicode hex="0039"/>
  <outline>
    <contour>
      <point x="412" y="-19" type="curve" smooth="yes"/>
      <point x="663" y="-19"/>
      <point x="653" y="214"/>
      <point x="653" y="554" type="curve" smooth="yes"/>
      <point x="653" y="1247" type="line" smooth="yes"/>
      <point x="653" y="1522"/>
      <point x="653" y="1784"/>
      <point x="392" y="1784" type="curve" smooth="yes"/>
      <point x="120" y="1784"/>
      <point x="113" y="1538"/>
      <point x="113" y="1253" type="curve" smooth="yes"/>
      <point x="113" y="1249" type="line" smooth="yes"/>
      <point x="113" y="867"/>
      <point x="153" y="662"/>
      <point x="395" y="662" type="curve" smooth="yes"/>
      <point x="448" y="662"/>
      <point x="501" y="672"/>
      <point x="536" y="710" type="curve"/>
      <point x="536" y="532" type="line" smooth="yes"/>
      <point x="536" y="202"/>
      <point x="558" y="68"/>
      <point x="423" y="68" type="curve" smooth="yes"/>
      <point x="294" y="68"/>
      <point x="281" y="136"/>
      <point x="277" y="500" type="curve" smooth="yes"/>
      <point x="277" y="505" type="line"/>
      <point x="163" y="505" type="line"/>
      <point x="163" y="476"/>
      <point x="163" y="531"/>
      <point x="165" y="504" type="curve" smooth="yes"/>
      <point x="173" y="168"/>
      <point x="194" y="-19"/>
    </contour>
    <contour>
      <point x="402" y="741" type="curve" smooth="yes"/>
      <point x="252" y="741"/>
      <point x="237" y="862"/>
      <point x="237" y="1230" type="curve" smooth="yes"/>
      <point x="237" y="1222" type="line" smooth="yes"/>
      <point x="237" y="1516"/>
      <point x="240" y="1689"/>
      <point x="388" y="1689" type="curve" smooth="yes"/>
      <point x="529" y="1689"/>
      <point x="536" y="1521"/>
      <point x="536" y="1225" type="curve" smooth="yes"/>
      <point x="536" y="754" type="line"/>
      <point x="502" y="739"/>
      <point x="480" y="741"/>
    </contour>
  </outline>
</glyph>
<glyph name="colon" format="1">
  <advance width="601"/>
  <unicode hex="003A"/>
  <outline>
    <contour>
      <point x="212" y="341" type="line"/>
      <point x="365" y="341" type="line"/>
      <point x="365" y="552" type="line"/>
      <point x="212" y="552" type="line"/>
    </contour>
    <contour>
      <point x="212" y="1049" type="line"/>
      <point x="365" y="1049" type="line"/>
      <point x="365" y="1260" type="line"/>
      <point x="212" y="1260" type="line"/>
    </contour>
  </outline>
</glyph>
<glyph name="semicolon" format="1">
  <advance width="561"/>
  <unicode hex="003B"/>
  <outline>
    <contour>
      <point x="207" y="71" type="line"/>
      <point x="251" y="71" type="line"/>
      <point x="348" y="406" type="line"/>
      <point x="348" y="515" type="line"/>
      <point x="166" y="515" type="line"/>
      <point x="166" y="397" type="line"/>
      <point x="310" y="397" type="line"/>
    </contour>
    <contour>
      <point x="163" y="1113" type="line"/>
      <point x="319" y="1113" type="line"/>
      <point x="319" y="1310" type="line"/>
      <point x="163" y="1310" type="line"/>
    </contour>
  </outline>
</glyph>
<glyph name="less" format="1">
  <advance width="730"/>
  <unicode hex="003C"/>
  <outline>
    <contour>
      <point x="643" y="305" type="line"/>
      <point x="643" y="427" type="line"/>
      <point x="151" y="760" type="line"/>
      <point x="643" y="1072" type="line"/>
      <point x="643" y="1204" type="line"/>
      <point x="62" y="797" type="line"/>
      <point x="62" y="715" type="line"/>
    </contour>
  </outline>
</glyph>
<glyph name="equal" format="1">
  <advance width="722"/>
  <unicode hex="003D"/>
  <outline>
    <contour>
      <point x="101" y="618" type="line"/>
      <point x="600" y="618" type="line"/>
      <point x="600" y="725" type="line"/>
      <point x="101" y="725" type="line"/>
    </contour>
    <contour>
      <point x="101" y="899" type="line"/>
      <point x="600" y="899" type="line"/>
      <point x="600" y="1008" type="line"/>
      <point x="101" y="1008" type="line"/>
    </contour>
  </outline>
</glyph>
<glyph name="greater" format="1">
  <advance width="730"/>
  <unicode hex="003E"/>
  <outline>
    <contour>
      <point x="82" y="305" type="line"/>
      <point x="663" y="710" type="line"/>
      <point x="663" y="791" type="line"/>
      <point x="82" y="1204" type="line"/>
      <point x="82" y="1081" type="line"/>
      <point x="574" y="749" type="line"/>
      <point x="82" y="437" type="line"/>
    </contour>
  </outline>
</glyph>
<glyph name="question" format="1">
  <advance width="607"/>
  <unicode hex="003F"/>
  <outline>
    <contour>
      <point x="207" y="494" type="line"/>
      <point x="295" y="494" type="line"/>
      <point x="295" y="772" type="line"/>
      <point x="481" y="823"/>
      <point x="545" y="978"/>
      <point x="545" y="1324" type="curve" smooth="yes"/>
      <point x="545" y="1586"/>
      <point x="571" y="1782"/>
      <point x="355" y="1782" type="curve" smooth="yes"/>
      <point x="84" y="1782"/>
      <point x="157" y="1483"/>
      <point x="157" y="1362" type="curve" smooth="yes"/>
      <point x="157" y="1160" type="line"/>
      <point x="240" y="1160" type="line"/>
      <point x="240" y="1388" type="line" smooth="yes"/>
      <point x="240" y="1633"/>
      <point x="272" y="1701"/>
      <point x="359" y="1701" type="curve" smooth="yes"/>
      <point x="439" y="1701"/>
      <point x="465" y="1607"/>
      <point x="465" y="1375" type="curve" smooth="yes"/>
      <point x="465" y="1031"/>
      <point x="443" y="907"/>
      <point x="207" y="810" type="curve"/>
    </contour>
    <contour>
      <point x="203" y="1" type="line"/>
      <point x="294" y="1" type="line"/>
      <point x="294" y="299" type="line"/>
      <point x="203" y="299" type="line"/>
    </contour>
  </outline>
</glyph>
<glyph name="at" format="1">
  <advance width="1214"/>
  <unicode hex="0040"/>
  <outline>
    <contour>
      <point x="1079" y="182" type="curve"/>
      <point x="1065" y="255" type="line"/>
      <point x="704" y="119"/>
      <point x="117" y="172"/>
      <point x="117" y="755" type="curve" smooth="yes"/>
      <point x="117" y="1146"/>
      <point x="249" y="1429"/>
      <point x="679" y="1429" type="curve" smooth="yes"/>
      <point x="1118" y="1429"/>
      <point x="1117" y="1088"/>
      <point x="1117" y="810" type="curve" smooth="yes"/>
      <point x="1117" y="561"/>
      <point x="1062" y="462"/>
      <point x="985" y="462" type="curve" smooth="yes"/>
      <point x="924" y="462"/>
      <point x="906" y="517"/>
      <point x="906" y="619" type="curve" smooth="yes"/>
      <point x="906" y="1179" type="line"/>
      <point x="804" y="1206"/>
      <point x="719" y="1217"/>
      <point x="647" y="1217" type="curve" smooth="yes"/>
      <point x="358" y="1213"/>
      <point x="290" y="1024"/>
      <point x="290" y="799" type="curve" smooth="yes"/>
      <point x="290" y="512"/>
      <point x="458" y="414"/>
      <point x="578" y="411" type="curve" smooth="yes"/>
      <point x="687" y="409"/>
      <point x="801" y="459"/>
      <point x="836" y="547" type="curve"/>
      <point x="846" y="451"/>
      <point x="900" y="413"/>
      <point x="988" y="413" type="curve" smooth="yes"/>
      <point x="1143" y="413"/>
      <point x="1198" y="607"/>
      <point x="1198" y="837" type="curve" smooth="yes"/>
      <point x="1198" y="1238"/>
      <point x="1106" y="1501"/>
      <point x="681" y="1501" type="curve" smooth="yes"/>
      <point x="158" y="1501"/>
      <point x="16" y="1192"/>
      <point x="16" y="758" type="curve" smooth="yes"/>
      <point x="16" y="214"/>
      <point x="565" y="27"/>
    </contour>
    <contour>
      <point x="573" y="481" type="curve" smooth="yes"/>
      <point x="508" y="488"/>
      <point x="394" y="541"/>
      <point x="394" y="803" type="curve" smooth="yes"/>
      <point x="394" y="1274"/>
      <point x="703" y="1131"/>
      <point x="805" y="1151" type="curve"/>
      <point x="805" y="566" type="line" smooth="yes"/>
      <point x="765" y="525"/>
      <point x="659" y="475"/>
    </contour>
  </outline>
</glyph>
<glyph name="A" format="1">
  <advance width="755"/>
  <unicode hex="0041"/>
  <outline>
    <contour>
      <point x="25" y="0" type="line"/>
      <point x="127" y="0" type="line"/>
      <point x="185" y="380" type="line"/>
      <point x="559" y="380" type="line"/>
      <point x="623" y="0" type="line"/>
      <point x="732" y="0" type="line"/>
      <point x="403" y="1760" type="line"/>
      <point x="319" y="1760" type="line"/>
    </contour>
    <contour>
      <point x="201" y="451" type="line"/>
      <point x="364" y="1505" type="line"/>
      <point x="366" y="1505" type="line"/>
      <point x="544" y="451" type="line"/>
    </contour>
  </outline>
</glyph>
<glyph name="B" format="1">
  <advance width="834"/>
  <unicode hex="0042"/>
  <outline>
    <contour>
      <point x="181" y="0" type="line"/>
      <point x="454" y="0" type="line" smooth="yes"/>
      <point x="688" y="0"/>
      <point x="728" y="154"/>
      <point x="733" y="483" type="curve"/>
      <point x="733" y="510" type="line" smooth="yes"/>
      <point x="733" y="700"/>
      <point x="718" y="885"/>
      <point x="614" y="943" type="curve"/>
      <point x="708" y="1013"/>
      <point x="713" y="1140"/>
      <point x="713" y="1355" type="curve" smooth="yes"/>
      <point x="713" y="1367" type="line"/>
      <point x="709" y="1647"/>
      <point x="673" y="1760"/>
      <point x="396" y="1760" type="curve" smooth="yes"/>
      <point x="181" y="1760" type="line"/>
    </contour>
    <contour>
      <point x="290" y="101" type="line"/>
      <point x="290" y="896" type="line"/>
      <point x="467" y="896" type="line" smooth="yes"/>
      <point x="596" y="896"/>
      <point x="624" y="791"/>
      <point x="625" y="519" type="curve" smooth="yes"/>
      <point x="625" y="510"/>
      <point x="625" y="544"/>
      <point x="625" y="535" type="curve" smooth="yes"/>
      <point x="624" y="191"/>
      <point x="598" y="101"/>
      <point x="470" y="101" type="curve" smooth="yes"/>
    </contour>
    <contour>
      <point x="290" y="989" type="line"/>
      <point x="290" y="1655" type="line"/>
      <point x="409" y="1655" type="line" smooth="yes"/>
      <point x="549" y="1655"/>
      <point x="600" y="1623"/>
      <point x="603" y="1341" type="curve"/>
      <point x="603" y="1333"/>
      <point x="603" y="1359"/>
      <point x="603" y="1351" type="curve" smooth="yes"/>
      <point x="601" y="1002"/>
      <point x="573" y="989"/>
      <point x="436" y="989" type="curve" smooth="yes"/>
    </contour>
  </outline>
</glyph>
<glyph name="C" format="1">
  <advance width="833"/>
  <unicode hex="0043"/>
  <outline>
    <contour>
      <point x="433" y="-19" type="curve" smooth="yes"/>
      <point x="684" y="-19"/>
      <point x="708" y="195"/>
      <point x="708" y="576" type="curve" smooth="yes"/>
      <point x="708" y="680" type="line"/>
      <point x="596" y="680" type="line"/>
      <point x="596" y="576" type="line" smooth="yes"/>
      <point x="596" y="206"/>
      <point x="574" y="65"/>
      <point x="430" y="65" type="curve" smooth="yes"/>
      <point x="279" y="65"/>
      <point x="253" y="206"/>
      <point x="253" y="578" type="curve" smooth="yes"/>
      <point x="253" y="1246" type="line" smooth="yes"/>
      <point x="253" y="1542"/>
      <point x="292" y="1697"/>
      <point x="436" y="1697" type="curve" smooth="yes"/>
      <point x="579" y="1697"/>
      <point x="596" y="1535"/>
      <point x="596" y="1245" type="curve" smooth="yes"/>
      <point x="596" y="1093" type="line"/>
      <point x="711" y="1093" type="line"/>
      <point x="711" y="1215" type="line" smooth="yes"/>
      <point x="711" y="1526"/>
      <point x="730" y="1783"/>
      <point x="438" y="1783" type="curve" smooth="yes"/>
      <point x="163" y="1783"/>
      <point x="144" y="1542"/>
      <point x="144" y="1250" type="curve" smooth="yes"/>
      <point x="144" y="572" type="line" smooth="yes"/>
      <point x="144" y="186"/>
      <point x="174" y="-19"/>
    </contour>
  </outline>
</glyph>
<glyph name="D" format="1">
  <advance width="886"/>
  <unicode hex="0044"/>
  <outline>
    <contour>
      <point x="289" y="101" type="line"/>
      <point x="289" y="1664" type="line"/>
      <point x="439" y="1664" type="line" smooth="yes"/>
      <point x="567" y="1664"/>
      <point x="633" y="1552"/>
      <point x="633" y="1265" type="curve" smooth="yes"/>
      <point x="633" y="548" type="line" smooth="yes"/>
      <point x="633" y="174"/>
      <point x="565" y="101"/>
      <point x="424" y="101" type="curve" smooth="yes"/>
    </contour>
    <contour>
      <point x="181" y="0" type="line"/>
      <point x="405" y="0" type="line" smooth="yes"/>
      <point x="654" y="0"/>
      <point x="742" y="128"/>
      <point x="742" y="501" type="curve" smooth="yes"/>
      <point x="743" y="1241" type="line" smooth="yes"/>
      <point x="743" y="1554"/>
      <point x="702" y="1760"/>
      <point x="411" y="1760" type="curve" smooth="yes"/>
      <point x="181" y="1760" type="line"/>
    </contour>
  </outline>
</glyph>
<glyph name="E" format="1">
  <advance width="689"/>
  <unicode hex="0045"/>
  <outline>
    <contour>
      <point x="181" y="0" type="line"/>
      <point x="596" y="0" type="line"/>
      <point x="596" y="81" type="line"/>
      <point x="290" y="81" type="line"/>
      <point x="290" y="850" type="line"/>
      <point x="584" y="850" type="line"/>
      <point x="584" y="935" type="line"/>
      <point x="290" y="935" type="line"/>
      <point x="290" y="1683" type="line"/>
      <point x="604" y="1683" type="line"/>
      <point x="604" y="1760" type="line"/>
      <point x="181" y="1760" type="line"/>
    </contour>
  </outline>
</glyph>
<glyph name="F" format="1">
  <advance width="659"/>
  <unicode hex="0046"/>
  <outline>
    <contour>
      <point x="181" y="0" type="line"/>
      <point x="289" y="0" type="line"/>
      <point x="289" y="907" type="line"/>
      <point x="581" y="907" type="line"/>
      <point x="581" y="987" type="line"/>
      <point x="289" y="987" type="line"/>
      <point x="289" y="1684" type="line"/>
      <point x="596" y="1684" type="line"/>
      <point x="596" y="1760" type="line"/>
      <point x="181" y="1760" type="line"/>
    </contour>
  </outline>
</glyph>
<glyph name="G" format="1">
  <advance width="856"/>
  <unicode hex="0047"/>
  <outline>
    <contour>
      <point x="404" y="-22" type="curve" smooth="yes"/>
      <point x="509" y="-22"/>
      <point x="553" y="13"/>
      <point x="607" y="78" type="curve"/>
      <point x="614" y="0" type="line"/>
      <point x="705" y="0" type="line"/>
      <point x="705" y="866" type="line"/>
      <point x="429" y="866" type="line"/>
      <point x="429" y="762" type="line"/>
      <point x="586" y="762" type="line"/>
      <point x="586" y="545" type="line" smooth="yes"/>
      <point x="586" y="202"/>
      <point x="560" y="65"/>
      <point x="423" y="65" type="curve" smooth="yes"/>
      <point x="281" y="65"/>
      <point x="253" y="200"/>
      <point x="253" y="551" type="curve" smooth="yes"/>
      <point x="253" y="1254" type="line" smooth="yes"/>
      <point x="253" y="1575"/>
      <point x="295" y="1697"/>
      <point x="429" y="1697" type="curve" smooth="yes"/>
      <point x="563" y="1697"/>
      <point x="586" y="1578"/>
      <point x="586" y="1387" type="curve" smooth="yes"/>
      <point x="586" y="1085" type="line"/>
      <point x="705" y="1085" type="line"/>
      <point x="705" y="1239" type="line" smooth="yes"/>
      <point x="705" y="1532"/>
      <point x="703" y="1783"/>
      <point x="438" y="1783" type="curve" smooth="yes"/>
      <point x="157" y="1783"/>
      <point x="144" y="1529"/>
      <point x="144" y="1233" type="curve" smooth="yes"/>
      <point x="144" y="538" type="line" smooth="yes"/>
      <point x="144" y="139"/>
      <point x="213" y="-22"/>
    </contour>
  </outline>
</glyph>
<glyph name="H" format="1">
  <advance width="930"/>
  <unicode hex="0048"/>
  <outline>
    <contour>
      <point x="181" y="0" type="line"/>
      <point x="290" y="0" type="line"/>
      <point x="290" y="919" type="line"/>
      <point x="640" y="919" type="line"/>
      <point x="640" y="0" type="line"/>
      <point x="749" y="0" type="line"/>
      <point x="749" y="1760" type="line"/>
      <point x="640" y="1760" type="line"/>
      <point x="640" y="992" type="line"/>
      <point x="290" y="992" type="line"/>
      <point x="290" y="1760" type="line"/>
      <point x="181" y="1760" type="line"/>
    </contour>
  </outline>
</glyph>
<glyph name="I" format="1">
  <advance width="470"/>
  <unicode hex="0049"/>
  <outline>
    <contour>
      <point x="180" y="0" type="line"/>
      <point x="289" y="0" type="line"/>
      <point x="289" y="1760" type="line"/>
      <point x="180" y="1760" type="line"/>
    </contour>
  </outline>
</glyph>
<glyph name="J" format="1">
  <advance width="720"/>
  <unicode hex="004A"/>
  <outline>
    <contour>
      <point x="326" y="-19" type="curve" smooth="yes"/>
      <point x="509" y="-19"/>
      <point x="563" y="110"/>
      <point x="563" y="416" type="curve" smooth="yes"/>
      <point x="563" y="1760" type="line"/>
      <point x="455" y="1760" type="line"/>
      <point x="455" y="418" type="line" smooth="yes"/>
      <point x="455" y="215"/>
      <point x="467" y="65"/>
      <point x="320" y="65" type="curve" smooth="yes"/>
      <point x="176" y="65"/>
      <point x="185" y="222"/>
      <point x="185" y="402" type="curve" smooth="yes"/>
      <point x="185" y="485" type="line"/>
      <point x="70" y="485" type="line"/>
      <point x="70" y="389" type="line" smooth="yes"/>
      <point x="70" y="110"/>
      <point x="113" y="-19"/>
    </contour>
  </outline>
</glyph>
<glyph name="K" format="1">
  <advance width="816"/>
  <unicode hex="004B"/>
  <outline>
    <contour>
      <point x="181" y="0" type="line"/>
      <point x="292" y="0" type="line"/>
      <point x="292" y="872" type="line"/>
      <point x="686" y="0" type="line"/>
      <point x="797" y="0" type="line"/>
      <point x="388" y="891" type="line"/>
      <point x="774" y="1760" type="line"/>
      <point x="674" y="1760" type="line"/>
      <point x="290" y="874" type="line"/>
      <point x="290" y="1760" type="line"/>
      <point x="181" y="1760" type="line"/>
    </contour>
  </outline>
</glyph>
<glyph name="L" format="1">
  <advance width="612"/>
  <unicode hex="004C"/>
  <outline>
    <contour>
      <point x="181" y="0" type="line"/>
      <point x="593" y="0" type="line"/>
      <point x="593" y="81" type="line"/>
      <point x="290" y="81" type="line"/>
      <point x="290" y="1760" type="line"/>
      <point x="181" y="1760" type="line"/>
    </contour>
  </outline>
</glyph>
<glyph name="M" format="1">
  <advance width="1140"/>
  <unicode hex="004D"/>
  <outline>
    <contour>
      <point x="181" y="0" type="line"/>
      <point x="290" y="0" type="line"/>
      <point x="290" y="815" type="line"/>
      <point x="262" y="1559" type="line"/>
      <point x="511" y="64" type="line"/>
      <point x="649" y="64" type="line"/>
      <point x="890" y="1559" type="line"/>
      <point x="863" y="815" type="line"/>
      <point x="863" y="0" type="line"/>
      <point x="969" y="0" type="line"/>
      <point x="969" y="1760" type="line"/>
      <point x="852" y="1760" type="line"/>
      <point x="579" y="233" type="line"/>
      <point x="299" y="1760" type="line"/>
      <point x="181" y="1760" type="line"/>
    </contour>
  </outline>
</glyph>
<glyph name="N" format="1">
  <advance width="961"/>
  <unicode hex="004E"/>
  <outline>
    <contour>
      <point x="181" y="0" type="line"/>
      <point x="286" y="0" type="line"/>
      <point x="286" y="910" type="line"/>
      <point x="277" y="1408" type="line"/>
      <point x="689" y="0" type="line"/>
      <point x="780" y="0" type="line"/>
      <point x="780" y="1760" type="line"/>
      <point x="687" y="1760" type="line"/>
      <point x="687" y="959" type="line"/>
      <point x="698" y="286" type="line"/>
      <point x="249" y="1760" type="line"/>
      <point x="181" y="1760" type="line"/>
    </contour>
  </outline>
</glyph>
<glyph name="O" format="1">
  <advance width="854"/>
  <unicode hex="004F"/>
  <outline>
    <contour>
      <point x="428" y="63" type="curve" smooth="yes"/>
      <point x="286" y="63"/>
      <point x="253" y="163"/>
      <point x="253" y="529" type="curve" smooth="yes"/>
      <point x="253" y="1271" type="line" smooth="yes"/>
      <point x="253" y="1569"/>
      <point x="290" y="1695"/>
      <point x="437" y="1695" type="curve" smooth="yes"/>
      <point x="574" y="1695"/>
      <point x="601" y="1573"/>
      <point x="601" y="1270" type="curve" smooth="yes"/>
      <point x="601" y="529" type="line" smooth="yes"/>
      <point x="601" y="161"/>
      <point x="566" y="63"/>
    </contour>
    <contour>
      <point x="428" y="-20" type="curve" smooth="yes"/>
      <point x="677" y="-20"/>
      <point x="710" y="150"/>
      <point x="710" y="528" type="curve" smooth="yes"/>
      <point x="710" y="1258" type="line" smooth="yes"/>
      <point x="710" y="1561"/>
      <point x="719" y="1782"/>
      <point x="437" y="1782" type="curve" smooth="yes"/>
      <point x="155" y="1782"/>
      <point x="144" y="1561"/>
      <point x="144" y="1258" type="curve" smooth="yes"/>
      <point x="144" y="528" type="line" smooth="yes"/>
      <point x="144" y="150"/>
      <point x="180" y="-20"/>
    </contour>
  </outline>
</glyph>
<glyph name="P" format="1">
  <advance width="814"/>
  <unicode hex="0050"/>
  <outline>
    <contour>
      <point x="181" y="0" type="line"/>
      <point x="290" y="0" type="line"/>
      <point x="290" y="688" type="line"/>
      <point x="439" y="688" type="line" smooth="yes"/>
      <point x="687" y="688"/>
      <point x="740" y="855"/>
      <point x="740" y="1232" type="curve" smooth="yes"/>
      <point x="740" y="1230"/>
      <point x="740" y="1246"/>
      <point x="741" y="1244" type="curve" smooth="yes"/>
      <point x="744" y="1536"/>
      <point x="738" y="1760"/>
      <point x="454" y="1760" type="curve" smooth="yes"/>
      <point x="181" y="1760" type="line"/>
    </contour>
    <contour>
      <point x="290" y="782" type="line"/>
      <point x="290" y="1664" type="line"/>
      <point x="479" y="1664" type="line" smooth="yes"/>
      <point x="607" y="1664"/>
      <point x="633" y="1542"/>
      <point x="631" y="1263" type="curve" smooth="yes"/>
      <point x="631" y="1229" type="line" smooth="yes"/>
      <point x="631" y="887"/>
      <point x="596" y="782"/>
      <point x="470" y="782" type="curve" smooth="yes"/>
    </contour>
  </outline>
</glyph>
<glyph name="Q" format="1">
  <advance width="854"/>
  <unicode hex="0051"/>
  <outline>
    <contour>
      <point x="591" y="-472" type="line"/>
      <point x="686" y="-449" type="line"/>
      <point x="483" y="7" type="line"/>
      <point x="394" y="-21" type="line"/>
    </contour>
    <component base="O"/>
  </outline>
</glyph>
<glyph name="R" format="1">
  <advance width="871"/>
  <unicode hex="0052"/>
  <outline>
    <contour>
      <point x="181" y="0" type="line"/>
      <point x="290" y="0" type="line"/>
      <point x="290" y="880" type="line"/>
      <point x="472" y="868" type="line"/>
      <point x="648" y="869"/>
      <point x="633" y="801"/>
      <point x="633" y="532" type="curve" smooth="yes"/>
      <point x="633" y="-33"/>
      <point x="634" y="49"/>
      <point x="659" y="0" type="curve"/>
      <point x="767" y="0" type="line"/>
      <point x="741" y="69"/>
      <point x="741" y="-26"/>
      <point x="741" y="69" type="curve" smooth="yes"/>
      <point x="741" y="756"/>
      <point x="721" y="901"/>
      <point x="581" y="923" type="curve"/>
      <point x="702" y="955"/>
      <point x="743" y="1104"/>
      <point x="743" y="1336" type="curve" smooth="yes"/>
      <point x="743" y="1642"/>
      <point x="717" y="1760"/>
      <point x="432" y="1760" type="curve" smooth="yes"/>
      <point x="181" y="1760" type="line"/>
    </contour>
    <contour>
      <point x="288" y="944" type="line"/>
      <point x="288" y="1664" type="line"/>
      <point x="481" y="1664" type="line" smooth="yes"/>
      <point x="604" y="1664"/>
      <point x="633" y="1622"/>
      <point x="633" y="1339" type="curve" smooth="yes"/>
      <point x="633" y="1325" type="line" smooth="yes"/>
      <point x="633" y="978"/>
      <point x="599" y="944"/>
      <point x="461" y="944" type="curve" smooth="yes"/>
    </contour>
  </outline>
</glyph>
<glyph name="S" format="1">
  <advance width="770"/>
  <unicode hex="0053"/>
  <outline>
    <contour>
      <point x="399" y="-20" type="curve" smooth="yes"/>
      <point x="660" y="-20"/>
      <point x="694" y="174"/>
      <point x="694" y="427" type="curve" smooth="yes"/>
      <point x="694" y="670"/>
      <point x="621" y="809"/>
      <point x="483" y="940" type="curve" smooth="yes"/>
      <point x="402" y="1014" type="line"/>
      <point x="274" y="1136"/>
      <point x="214" y="1180"/>
      <point x="214" y="1369" type="curve" smooth="yes"/>
      <point x="214" y="1656"/>
      <point x="265" y="1695"/>
      <point x="394" y="1695" type="curve" smooth="yes"/>
      <point x="523" y="1695"/>
      <point x="575" y="1632"/>
      <point x="575" y="1232" type="curve" smooth="yes"/>
      <point x="575" y="1128" type="line"/>
      <point x="663" y="1128" type="line"/>
      <point x="663" y="1223" type="line" smooth="yes"/>
      <point x="663" y="1526"/>
      <point x="681" y="1782"/>
      <point x="390" y="1782" type="curve" smooth="yes"/>
      <point x="129" y="1782"/>
      <point x="99" y="1589"/>
      <point x="99" y="1344" type="curve" smooth="yes"/>
      <point x="99" y="1139"/>
      <point x="241" y="1013"/>
      <point x="334" y="934" type="curve" smooth="yes"/>
      <point x="430" y="851" type="line" smooth="yes"/>
      <point x="551" y="746"/>
      <point x="578" y="656"/>
      <point x="578" y="458" type="curve" smooth="yes"/>
      <point x="578" y="181"/>
      <point x="574" y="64"/>
      <point x="413" y="64" type="curve" smooth="yes"/>
      <point x="259" y="64"/>
      <point x="225" y="203"/>
      <point x="225" y="543" type="curve" smooth="yes"/>
      <point x="225" y="722" type="line"/>
      <point x="117" y="722" type="line"/>
      <point x="117" y="533" type="line" smooth="yes"/>
      <point x="117" y="242"/>
      <point x="123" y="-20"/>
    </contour>
  </outline>
</glyph>
<glyph name="T" format="1">
  <advance width="482"/>
  <unicode hex="0054"/>
  <outline>
    <contour>
      <point x="199" y="0" type="line"/>
      <point x="307" y="0" type="line"/>
      <point x="307" y="1683" type="line"/>
      <point x="461" y="1683" type="line"/>
      <point x="461" y="1760" type="line"/>
      <point x="22" y="1760" type="line"/>
      <point x="22" y="1683" type="line"/>
      <point x="199" y="1683" type="line"/>
    </contour>
  </outline>
</glyph>
<glyph name="U" format="1">
  <advance width="888"/>
  <unicode hex="0055"/>
  <outline>
    <contour>
      <point x="445" y="-19" type="curve" smooth="yes"/>
      <point x="686" y="-19"/>
      <point x="727" y="132"/>
      <point x="727" y="452" type="curve" smooth="yes"/>
      <point x="727" y="1760" type="line"/>
      <point x="617" y="1760" type="line"/>
      <point x="617" y="456" type="line" smooth="yes"/>
      <point x="617" y="200"/>
      <point x="619" y="66"/>
      <point x="447" y="66" type="curve" smooth="yes"/>
      <point x="275" y="66"/>
      <point x="269" y="201"/>
      <point x="269" y="457" type="curve" smooth="yes"/>
      <point x="269" y="1760" type="line"/>
      <point x="160" y="1760" type="line"/>
      <point x="160" y="452" type="line" smooth="yes"/>
      <point x="160" y="132"/>
      <point x="204" y="-19"/>
    </contour>
  </outline>
</glyph>
<glyph name="V" format="1">
  <advance width="820"/>
  <unicode hex="0056"/>
  <outline>
    <contour>
      <point x="378" y="0" type="line"/>
      <point x="473" y="0" type="line"/>
      <point x="769" y="1760" type="line"/>
      <point x="662" y="1760" type="line"/>
      <point x="551" y="1095" type="line"/>
      <point x="422" y="289" type="line"/>
      <point x="423" y="289" type="line"/>
      <point x="279" y="1095" type="line"/>
      <point x="157" y="1760" type="line"/>
      <point x="51" y="1760" type="line"/>
    </contour>
  </outline>
</glyph>
<glyph name="W" format="1">
  <advance width="1293"/>
  <unicode hex="0057"/>
  <outline>
    <contour>
      <point x="320" y="0" type="line"/>
      <point x="413" y="0" type="line"/>
      <point x="671" y="1551" type="line"/>
      <point x="910" y="0" type="line"/>
      <point x="1017" y="0" type="line"/>
      <point x="1233" y="1760" type="line"/>
      <point x="1126" y="1760" type="line"/>
      <point x="964" y="260" type="line"/>
      <point x="708" y="1760" type="line"/>
      <point x="615" y="1760" type="line"/>
      <point x="381" y="260" type="line"/>
      <point x="174" y="1760" type="line"/>
      <point x="59" y="1760" type="line"/>
    </contour>
  </outline>
</glyph>
<glyph name="X" format="1">
  <advance width="650"/>
  <unicode hex="0058"/>
  <outline>
    <contour>
      <point x="57" y="0" type="line"/>
      <point x="136" y="0" type="line"/>
      <point x="316" y="730" type="line"/>
      <point x="490" y="0" type="line"/>
      <point x="590" y="0" type="line"/>
      <point x="394" y="850" type="line"/>
      <point x="601" y="1760" type="line"/>
      <point x="520" y="1760" type="line"/>
      <point x="350" y="1050" type="line"/>
      <point x="183" y="1760" type="line"/>
      <point x="77" y="1760" type="line"/>
      <point x="277" y="910" type="line"/>
    </contour>
  </outline>
</glyph>
<glyph name="Y" format="1">
  <advance width="758"/>
  <unicode hex="0059"/>
  <outline>
    <contour>
      <point x="343" y="0" type="line"/>
      <point x="452" y="0" type="line"/>
      <point x="452" y="797" type="line"/>
      <point x="741" y="1760" type="line"/>
      <point x="624" y="1760" type="line"/>
      <point x="398" y="938" type="line"/>
      <point x="395" y="938" type="line"/>
      <point x="129" y="1760" type="line"/>
      <point x="17" y="1760" type="line"/>
      <point x="343" y="795" type="line"/>
    </contour>
  </outline>
</glyph>
<glyph name="Z" format="1">
  <advance width="602"/>
  <unicode hex="005A"/>
  <outline>
    <contour>
      <point x="96" y="0" type="line"/>
      <point x="523" y="0" type="line"/>
      <point x="523" y="81" type="line"/>
      <point x="202" y="81" type="line"/>
      <point x="527" y="1697" type="line"/>
      <point x="527" y="1760" type="line"/>
      <point x="88" y="1760" type="line"/>
      <point x="88" y="1683" type="line"/>
      <point x="418" y="1683" type="line"/>
      <point x="96" y="88" type="line"/>
    </contour>
  </outline>
</glyph>
<glyph name="bracketleft" format="1">
  <advance width="562"/>
  <unicode hex="005B"/>
  <outline>
    <contour>
      <point x="181" y="-52" type="line"/>
      <point x="508" y="-52" type="line"/>
      <point x="508" y="32" type="line"/>
      <point x="291" y="32" type="line"/>
      <point x="291" y="1677" type="line"/>
      <point x="508" y="1677" type="line"/>
      <point x="508" y="1761" type="line"/>
      <point x="181" y="1761" type="line"/>
    </contour>
  </outline>
</glyph>
<glyph name="backslash" format="1">
  <advance width="719"/>
  <unicode hex="005C"/>
  <outline>
    <contour>
      <point x="520" y="0" type="line"/>
      <point x="610" y="0" type="line"/>
      <point x="200" y="1761" type="line"/>
      <point x="109" y="1761" type="line"/>
    </contour>
  </outline>
</glyph>
<glyph name="bracketright" format="1">
  <advance width="562"/>
  <unicode hex="005D"/>
  <outline>
    <contour>
      <point x="54" y="-52" type="line"/>
      <point x="381" y="-52" type="line"/>
      <point x="381" y="1761" type="line"/>
      <point x="54" y="1761" type="line"/>
      <point x="54" y="1677" type="line"/>
      <point x="271" y="1677" type="line"/>
      <point x="271" y="32" type="line"/>
      <point x="54" y="32" type="line"/>
    </contour>
  </outline>
</glyph>
<glyph name="asciicircum" format="1">
  <advance width="1009"/>
  <unicode hex="005E"/>
  <outline>
    <contour>
      <point x="179" y="837" type="line"/>
      <point x="295" y="837" type="line"/>
      <point x="506" y="1681" type="line"/>
      <point x="716" y="837" type="line"/>
      <point x="829" y="837" type="line"/>
      <point x="588" y="1760" type="line"/>
      <point x="420" y="1760" type="line"/>
    </contour>
  </outline>
</glyph>
<glyph name="underscore" format="1">
  <advance width="748"/>
  <unicode hex="005F"/>
  <outline>
    <contour>
      <point x="48" y="-176" type="line"/>
      <point x="699" y="-176" type="line"/>
      <point x="699" y="-76" type="line"/>
      <point x="48" y="-76" type="line"/>
    </contour>
  </outline>
</glyph>
<glyph name="grave" format="1">
  <advance width="650"/>
  <unicode hex="0060"/>
  <outline>
    <contour>
      <point x="368" y="-1166" type="line"/>
      <point x="408" y="-1166" type="line"/>
      <point x="314" y="-861" type="line"/>
      <point x="190" y="-861" type="line"/>
    </contour>
  </outline>
</glyph>
<glyph name="a" format="1">
  <advance width="804"/>
  <unicode hex="0061"/>
  <outline>
    <contour>
      <point x="363" y="-10" type="curve" smooth="yes"/>
      <point x="490" y="-10"/>
      <point x="548" y="79"/>
      <point x="555" y="100" type="curve"/>
      <point x="555" y="0" type="line"/>
      <point x="665" y="0" type="line"/>
      <point x="665" y="945" type="line" smooth="yes"/>
      <point x="665" y="1316"/>
      <point x="704" y="1518"/>
      <point x="413" y="1518" type="curve" smooth="yes"/>
      <point x="139" y="1518"/>
      <point x="154" y="1271"/>
      <point x="154" y="1041" type="curve" smooth="yes"/>
      <point x="154" y="1003" type="line"/>
      <point x="267" y="1003" type="line"/>
      <point x="267" y="1029" type="line" smooth="yes"/>
      <point x="267" y="1311"/>
      <point x="278" y="1415"/>
      <point x="416" y="1415" type="curve" smooth="yes"/>
      <point x="558" y="1415"/>
      <point x="556" y="1303"/>
      <point x="556" y="1046" type="curve" smooth="yes"/>
      <point x="556" y="953" type="line"/>
      <point x="327" y="850"/>
      <point x="137" y="772"/>
      <point x="137" y="595" type="curve" smooth="yes"/>
      <point x="137" y="371" type="line"/>
      <point x="136" y="121"/>
      <point x="220" y="-10"/>
    </contour>
    <contour>
      <point x="369" y="85" type="curve" smooth="yes"/>
      <point x="265" y="85"/>
      <point x="244" y="168"/>
      <point x="244" y="389" type="curve" smooth="yes"/>
      <point x="244" y="494" type="line" smooth="yes"/>
      <point x="244" y="703"/>
      <point x="277" y="718"/>
      <point x="556" y="844" type="curve"/>
      <point x="556" y="180" type="line"/>
      <point x="529" y="142"/>
      <point x="451" y="85"/>
    </contour>
  </outline>
</glyph>
<glyph name="b" format="1">
  <advance width="828"/>
  <unicode hex="0062"/>
  <outline>
    <contour>
      <point x="477" y="-10" type="curve" smooth="yes"/>
      <point x="680" y="-10"/>
      <point x="697" y="212"/>
      <point x="697" y="509" type="curve" smooth="yes"/>
      <point x="697" y="993" type="line" smooth="yes"/>
      <point x="697" y="1288"/>
      <point x="666" y="1535"/>
      <point x="435" y="1518" type="curve" smooth="yes"/>
      <point x="367" y="1513"/>
      <point x="287" y="1447"/>
      <point x="278" y="1366" type="curve"/>
      <point x="278" y="1786" type="line"/>
      <point x="168" y="1786" type="line"/>
      <point x="168" y="0" type="line"/>
      <point x="278" y="0" type="line"/>
      <point x="278" y="106" type="line"/>
      <point x="318" y="15"/>
      <point x="403" y="-10"/>
    </contour>
    <contour>
      <point x="439" y="88" type="curve"/>
      <point x="307" y="88"/>
      <point x="278" y="197"/>
      <point x="278" y="461" type="curve" smooth="yes"/>
      <point x="278" y="1054" type="line" smooth="yes"/>
      <point x="278" y="1385"/>
      <point x="348" y="1414"/>
      <point x="448" y="1414" type="curve" smooth="yes"/>
      <point x="575" y="1414"/>
      <point x="588" y="1275"/>
      <point x="588" y="1057" type="curve" smooth="yes"/>
      <point x="588" y="468" type="line" smooth="yes"/>
      <point x="588" y="189"/>
      <point x="554" y="89"/>
    </contour>
  </outline>
</glyph>
<glyph name="c" format="1">
  <advance width="751"/>
  <unicode hex="0063"/>
  <outline>
    <contour>
      <point x="390" y="-18" type="curve" smooth="yes"/>
      <point x="680" y="-18"/>
      <point x="648" y="220"/>
      <point x="648" y="543" type="curve" smooth="yes"/>
      <point x="648" y="552" type="line"/>
      <point x="532" y="552" type="line"/>
      <point x="532" y="461" type="line" smooth="yes"/>
      <point x="532" y="224"/>
      <point x="530" y="92"/>
      <point x="393" y="92" type="curve" smooth="yes"/>
      <point x="248" y="92"/>
      <point x="240" y="203"/>
      <point x="240" y="469" type="curve" smooth="yes"/>
      <point x="240" y="1046" type="line" smooth="yes"/>
      <point x="240" y="1264"/>
      <point x="253" y="1408"/>
      <point x="401" y="1408" type="curve" smooth="yes"/>
      <point x="536" y="1408"/>
      <point x="532" y="1291"/>
      <point x="532" y="1055" type="curve" smooth="yes"/>
      <point x="532" y="991" type="line"/>
      <point x="648" y="991" type="line"/>
      <point x="648" y="998" type="line" smooth="yes"/>
      <point x="648" y="1302"/>
      <point x="676" y="1518"/>
      <point x="398" y="1518" type="curve" smooth="yes"/>
      <point x="154" y="1518"/>
      <point x="131" y="1294"/>
      <point x="131" y="1042" type="curve" smooth="yes"/>
      <point x="131" y="514" type="line" smooth="yes"/>
      <point x="131" y="210"/>
      <point x="128" y="-18"/>
    </contour>
  </outline>
</glyph>
<glyph name="d" format="1">
  <advance width="797"/>
  <unicode hex="0064"/>
  <outline>
    <contour>
      <point x="355" y="-10" type="curve" smooth="yes"/>
      <point x="419" y="-10"/>
      <point x="507" y="12"/>
      <point x="549" y="106" type="curve"/>
      <point x="549" y="0" type="line"/>
      <point x="660" y="0" type="line"/>
      <point x="660" y="1786" type="line"/>
      <point x="549" y="1786" type="line"/>
      <point x="549" y="1388" type="line"/>
      <point x="527" y="1454"/>
      <point x="468" y="1518"/>
      <point x="402" y="1518" type="curve" smooth="yes"/>
      <point x="163" y="1518"/>
      <point x="131" y="1287"/>
      <point x="131" y="981" type="curve" smooth="yes"/>
      <point x="131" y="482" type="line" smooth="yes"/>
      <point x="131" y="200"/>
      <point x="167" y="-10"/>
    </contour>
    <contour>
      <point x="381" y="86" type="curve" smooth="yes"/>
      <point x="250" y="86"/>
      <point x="242" y="228"/>
      <point x="242" y="434" type="curve" smooth="yes"/>
      <point x="242" y="1020" type="line" smooth="yes"/>
      <point x="242" y="1309"/>
      <point x="274" y="1411"/>
      <point x="389" y="1412" type="curve"/>
      <point x="525" y="1412"/>
      <point x="550" y="1303"/>
      <point x="550" y="1028" type="curve" smooth="yes"/>
      <point x="550" y="424" type="line" smooth="yes"/>
      <point x="550" y="95"/>
      <point x="475" y="86"/>
    </contour>
  </outline>
</glyph>
<glyph name="e" format="1">
  <advance width="747"/>
  <unicode hex="0065"/>
  <outline>
    <contour>
      <point x="398" y="-18" type="curve" smooth="yes"/>
      <point x="661" y="-18"/>
      <point x="638" y="216"/>
      <point x="638" y="513" type="curve" smooth="yes"/>
      <point x="638" y="552" type="line"/>
      <point x="532" y="552" type="line"/>
      <point x="532" y="446" type="line" smooth="yes"/>
      <point x="532" y="216"/>
      <point x="523" y="85"/>
      <point x="393" y="85" type="curve" smooth="yes"/>
      <point x="254" y="85"/>
      <point x="240" y="196"/>
      <point x="240" y="454" type="curve" smooth="yes"/>
      <point x="240" y="758" type="line"/>
      <point x="642" y="758" type="line"/>
      <point x="642" y="985" type="line" smooth="yes"/>
      <point x="642" y="1276"/>
      <point x="666" y="1518"/>
      <point x="399" y="1518" type="curve" smooth="yes"/>
      <point x="132" y="1518"/>
      <point x="131" y="1281"/>
      <point x="131" y="999" type="curve" smooth="yes"/>
      <point x="131" y="515" type="line" smooth="yes"/>
      <point x="131" y="207"/>
      <point x="131" y="-18"/>
    </contour>
    <contour>
      <point x="241" y="874" type="line"/>
      <point x="241" y="1056" type="line" smooth="yes"/>
      <point x="241" y="1274"/>
      <point x="262" y="1413"/>
      <point x="401" y="1413" type="curve" smooth="yes"/>
      <point x="540" y="1413"/>
      <point x="532" y="1288"/>
      <point x="532" y="1065" type="curve" smooth="yes"/>
      <point x="532" y="874" type="line"/>
    </contour>
  </outline>
</glyph>
<glyph name="f" format="1">
  <advance width="578"/>
  <unicode hex="0066"/>
  <outline>
    <contour>
      <point x="231" y="0" type="line"/>
      <point x="343" y="0" type="line"/>
      <point x="343" y="1355" type="line"/>
      <point x="558" y="1355" type="line"/>
      <point x="558" y="1442" type="line"/>
      <point x="343" y="1442" type="line"/>
      <point x="343" y="1542" type="line" smooth="yes"/>
      <point x="343" y="1618"/>
      <point x="344" y="1677"/>
      <point x="470" y="1677" type="curve" smooth="yes"/>
      <point x="493" y="1677"/>
      <point x="522" y="1675"/>
      <point x="558" y="1669" type="curve"/>
      <point x="558" y="1775" type="line"/>
      <point x="557" y="1775"/>
      <point x="499" y="1791"/>
      <point x="432" y="1791" type="curve" smooth="yes"/>
      <point x="271" y="1791"/>
      <point x="231" y="1688"/>
      <point x="231" y="1510" type="curve" smooth="yes"/>
      <point x="231" y="1442" type="line"/>
      <point x="83" y="1442" type="line"/>
      <point x="83" y="1355" type="line"/>
      <point x="231" y="1355" type="line"/>
    </contour>
  </outline>
</glyph>
<glyph name="g" format="1">
  <advance width="809"/>
  <unicode hex="0067"/>
  <outline>
    <contour>
      <point x="407" y="-234" type="curve" smooth="yes"/>
      <point x="640" y="-220"/>
      <point x="663" y="4"/>
      <point x="663" y="67" type="curve" smooth="yes"/>
      <point x="663" y="1500" type="line"/>
      <point x="553" y="1500" type="line"/>
      <point x="553" y="1427" type="line"/>
      <point x="523" y="1497"/>
      <point x="461" y="1517"/>
      <point x="407" y="1518" type="curve" smooth="yes"/>
      <point x="210" y="1523"/>
      <point x="132" y="1290"/>
      <point x="132" y="996" type="curve" smooth="yes"/>
      <point x="132" y="649" type="line" smooth="yes"/>
      <point x="132" y="348"/>
      <point x="169" y="118"/>
      <point x="377" y="118" type="curve" smooth="yes"/>
      <point x="442" y="118"/>
      <point x="507" y="136"/>
      <point x="553" y="232" type="curve"/>
      <point x="553" y="52" type="line" smooth="yes"/>
      <point x="553" y="-61"/>
      <point x="499" y="-126"/>
      <point x="421" y="-131" type="curve" smooth="yes"/>
      <point x="302" y="-136"/>
      <point x="230" y="-92"/>
      <point x="190" y="-59" type="curve"/>
      <point x="144" y="-157" type="line"/>
      <point x="200" y="-198"/>
      <point x="316" y="-241"/>
    </contour>
    <contour>
      <point x="415" y="222" type="curve" smooth="yes"/>
      <point x="278" y="222"/>
      <point x="242" y="336"/>
      <point x="242" y="617" type="curve" smooth="yes"/>
      <point x="242" y="1040" type="line" smooth="yes"/>
      <point x="242" y="1263"/>
      <point x="256" y="1415"/>
      <point x="402" y="1415" type="curve" smooth="yes"/>
      <point x="536" y="1415"/>
      <point x="553" y="1301"/>
      <point x="553" y="1038" type="curve" smooth="yes"/>
      <point x="553" y="620" type="line" smooth="yes"/>
      <point x="553" y="283"/>
      <point x="510" y="222"/>
    </contour>
  </outline>
</glyph>
<glyph name="h" format="1">
  <advance width="888"/>
  <unicode hex="0068"/>
  <outline>
    <contour>
      <point x="170" y="0" type="line"/>
      <point x="281" y="0" type="line"/>
      <point x="281" y="1217" type="line" smooth="yes"/>
      <point x="281" y="1378"/>
      <point x="390" y="1408"/>
      <point x="473" y="1408" type="curve" smooth="yes"/>
      <point x="557" y="1408"/>
      <point x="622" y="1377"/>
      <point x="622" y="1216" type="curve" smooth="yes"/>
      <point x="622" y="0" type="line"/>
      <point x="733" y="0" type="line"/>
      <point x="733" y="1221" type="line" smooth="yes"/>
      <point x="733" y="1433"/>
      <point x="641" y="1519"/>
      <point x="528" y="1519" type="curve" smooth="yes"/>
      <point x="413" y="1519"/>
      <point x="307" y="1441"/>
      <point x="281" y="1361" type="curve"/>
      <point x="281" y="1786" type="line"/>
      <point x="170" y="1786" type="line"/>
    </contour>
  </outline>
</glyph>
<glyph name="i" format="1">
  <advance width="436"/>
  <unicode hex="0069"/>
  <outline>
    <contour>
      <point x="169" y="0" type="line"/>
      <point x="281" y="0" type="line"/>
      <point x="281" y="1500" type="line"/>
      <point x="169" y="1500" type="line"/>
    </contour>
    <contour>
      <point x="169" y="1638" type="line"/>
      <point x="279" y="1638" type="line"/>
      <point x="279" y="1751" type="line"/>
      <point x="169" y="1751" type="line"/>
    </contour>
  </outline>
</glyph>
<glyph name="j" format="1">
  <advance width="451"/>
  <unicode hex="006A"/>
  <outline>
    <contour>
      <point x="197" y="-229" type="curve"/>
      <point x="197" y="-224"/>
      <point x="290" y="-217"/>
      <point x="290" y="-71" type="curve" smooth="yes"/>
      <point x="290" y="1500" type="line"/>
      <point x="180" y="1500" type="line"/>
      <point x="180" y="-81" type="line" smooth="yes"/>
      <point x="180" y="-118"/>
      <point x="174" y="-143"/>
      <point x="152" y="-148" type="curve" smooth="yes"/>
      <point x="117" y="-154"/>
      <point x="71" y="-147"/>
      <point x="72" y="-147" type="curve"/>
      <point x="72" y="-230" type="line"/>
      <point x="72" y="-228"/>
      <point x="131" y="-240"/>
    </contour>
    <contour>
      <point x="183" y="1638" type="line"/>
      <point x="293" y="1638" type="line"/>
      <point x="293" y="1751" type="line"/>
      <point x="183" y="1751" type="line"/>
    </contour>
  </outline>
</glyph>
<glyph name="k" format="1">
  <advance width="793"/>
  <unicode hex="006B"/>
  <outline>
    <contour>
      <point x="168" y="0" type="line"/>
      <point x="278" y="0" type="line"/>
      <point x="278" y="750" type="line"/>
      <point x="643" y="0" type="line"/>
      <point x="761" y="0" type="line"/>
      <point x="384" y="754" type="line"/>
      <point x="742" y="1500" type="line"/>
      <point x="634" y="1500" type="line"/>
      <point x="278" y="741" type="line"/>
      <point x="278" y="1786" type="line"/>
      <point x="168" y="1786" type="line"/>
    </contour>
  </outline>
</glyph>
<glyph name="l" format="1">
  <advance width="438"/>
  <unicode hex="006C"/>
  <outline>
    <contour>
      <point x="172" y="0" type="line"/>
      <point x="284" y="0" type="line"/>
      <point x="284" y="1786" type="line"/>
      <point x="172" y="1786" type="line"/>
    </contour>
  </outline>
</glyph>
<glyph name="m" format="1">
  <advance width="1311"/>
  <unicode hex="006D"/>
  <outline>
    <contour>
      <point x="172" y="0" type="line"/>
      <point x="282" y="0" type="line"/>
      <point x="282" y="1237" type="line" smooth="yes"/>
      <point x="282" y="1359"/>
      <point x="351" y="1408"/>
      <point x="460" y="1408" type="curve" smooth="yes"/>
      <point x="542" y="1408"/>
      <point x="609" y="1383"/>
      <point x="609" y="1250" type="curve" smooth="yes"/>
      <point x="609" y="0" type="line"/>
      <point x="718" y="0" type="line"/>
      <point x="718" y="1240" type="line"/>
      <point x="718" y="1264" type="line"/>
      <point x="726" y="1402"/>
      <point x="816" y="1408"/>
      <point x="897" y="1408" type="curve" smooth="yes"/>
      <point x="984" y="1408"/>
      <point x="1045" y="1374"/>
      <point x="1045" y="1251" type="curve" smooth="yes"/>
      <point x="1045" y="0" type="line"/>
      <point x="1157" y="0" type="line"/>
      <point x="1157" y="1240" type="line" smooth="yes"/>
      <point x="1157" y="1446"/>
      <point x="1055" y="1519"/>
      <point x="955" y="1519" type="curve" smooth="yes"/>
      <point x="849" y="1519"/>
      <point x="748" y="1455"/>
      <point x="701" y="1367" type="curve"/>
      <point x="670" y="1466"/>
      <point x="600" y="1519"/>
      <point x="507" y="1519" type="curve" smooth="yes"/>
      <point x="400" y="1519"/>
      <point x="306" y="1434"/>
      <point x="282" y="1356" type="curve"/>
      <point x="282" y="1500" type="line"/>
      <point x="172" y="1500" type="line"/>
    </contour>
  </outline>
</glyph>
<glyph name="n" format="1">
  <advance width="887"/>
  <unicode hex="006E"/>
  <outline>
    <contour>
      <point x="172" y="0" type="line"/>
      <point x="282" y="0" type="line"/>
      <point x="282" y="1251" type="line" smooth="yes"/>
      <point x="282" y="1395"/>
      <point x="383" y="1415"/>
      <point x="466" y="1415" type="curve" smooth="yes"/>
      <point x="550" y="1415"/>
      <point x="622" y="1377"/>
      <point x="622" y="1242" type="curve" smooth="yes"/>
      <point x="622" y="0" type="line"/>
      <point x="732" y="0" type="line"/>
      <point x="732" y="1221" type="line" smooth="yes"/>
      <point x="732" y="1433"/>
      <point x="638" y="1519"/>
      <point x="524" y="1519" type="curve" smooth="yes"/>
      <point x="410" y="1519"/>
      <point x="308" y="1441"/>
      <point x="282" y="1361" type="curve"/>
      <point x="282" y="1500" type="line"/>
      <point x="172" y="1500" type="line"/>
    </contour>
  </outline>
</glyph>
<glyph name="o" format="1">
  <advance width="797"/>
  <unicode hex="006F"/>
  <outline>
    <contour>
      <point x="403" y="85" type="curve" smooth="yes"/>
      <point x="256" y="85"/>
      <point x="240" y="243"/>
      <point x="240" y="480" type="curve" smooth="yes"/>
      <point x="240" y="1043" type="line" smooth="yes"/>
      <point x="240" y="1260"/>
      <point x="253" y="1415"/>
      <point x="403" y="1415" type="curve" smooth="yes"/>
      <point x="541" y="1415"/>
      <point x="557" y="1260"/>
      <point x="557" y="1043" type="curve" smooth="yes"/>
      <point x="557" y="480" type="line" smooth="yes"/>
      <point x="557" y="243"/>
      <point x="539" y="85"/>
    </contour>
    <contour>
      <point x="403" y="-18" type="curve" smooth="yes"/>
      <point x="678" y="-18"/>
      <point x="666" y="222"/>
      <point x="666" y="528" type="curve" smooth="yes"/>
      <point x="666" y="1012" type="line" smooth="yes"/>
      <point x="666" y="1295"/>
      <point x="671" y="1518"/>
      <point x="403" y="1518" type="curve" smooth="yes"/>
      <point x="136" y="1518"/>
      <point x="131" y="1294"/>
      <point x="131" y="1012" type="curve" smooth="yes"/>
      <point x="131" y="528" type="line" smooth="yes"/>
      <point x="131" y="217"/>
      <point x="130" y="-18"/>
    </contour>
  </outline>
</glyph>
<glyph name="p" format="1">
  <advance width="832"/>
  <unicode hex="0070"/>
  <outline>
    <contour>
      <point x="174" y="-259" type="line"/>
      <point x="284" y="-259" type="line"/>
      <point x="284" y="114" type="line"/>
      <point x="306" y="42"/>
      <point x="367" y="-18"/>
      <point x="434" y="-18" type="curve" smooth="yes"/>
      <point x="645" y="-18"/>
      <point x="701" y="188"/>
      <point x="701" y="467" type="curve" smooth="yes"/>
      <point x="701" y="1001" type="line" smooth="yes"/>
      <point x="701" y="1293"/>
      <point x="674" y="1510"/>
      <point x="477" y="1510" type="curve" smooth="yes"/>
      <point x="401" y="1510"/>
      <point x="326" y="1488"/>
      <point x="284" y="1392" type="curve"/>
      <point x="284" y="1500" type="line"/>
      <point x="174" y="1500" type="line"/>
    </contour>
    <contour>
      <point x="448" y="88" type="curve"/>
      <point x="312" y="88"/>
      <point x="284" y="201"/>
      <point x="284" y="471" type="curve" smooth="yes"/>
      <point x="284" y="1054" type="line" smooth="yes"/>
      <point x="284" y="1382"/>
      <point x="351" y="1414"/>
      <point x="455" y="1414" type="curve" smooth="yes"/>
      <point x="581" y="1414"/>
      <point x="592" y="1278"/>
      <point x="592" y="1058" type="curve" smooth="yes"/>
      <point x="592" y="474" type="line" smooth="yes"/>
      <point x="592" y="189"/>
      <point x="564" y="89"/>
    </contour>
  </outline>
</glyph>
<glyph name="q" format="1">
  <advance width="795"/>
  <unicode hex="0071"/>
  <outline>
    <contour>
      <point x="551" y="-259" type="line"/>
      <point x="663" y="-259" type="line"/>
      <point x="663" y="1500" type="line"/>
      <point x="551" y="1500" type="line"/>
      <point x="551" y="1380" type="line"/>
      <point x="510" y="1481"/>
      <point x="429" y="1510"/>
      <point x="353" y="1510" type="curve" smooth="yes"/>
      <point x="149" y="1510"/>
      <point x="131" y="1294"/>
      <point x="131" y="1001" type="curve" smooth="yes"/>
      <point x="131" y="478" type="line" smooth="yes"/>
      <point x="131" y="199"/>
      <point x="180" y="-18"/>
      <point x="398" y="-18" type="curve" smooth="yes"/>
      <point x="465" y="-18"/>
      <point x="523" y="40"/>
      <point x="551" y="107" type="curve"/>
    </contour>
    <contour>
      <point x="379" y="86" type="curve" smooth="yes"/>
      <point x="253" y="86"/>
      <point x="239" y="222"/>
      <point x="239" y="437" type="curve" smooth="yes"/>
      <point x="239" y="1022" type="line" smooth="yes"/>
      <point x="239" y="1310"/>
      <point x="271" y="1411"/>
      <point x="386" y="1412" type="curve"/>
      <point x="528" y="1412"/>
      <point x="550" y="1293"/>
      <point x="550" y="1028" type="curve" smooth="yes"/>
      <point x="550" y="445" type="line" smooth="yes"/>
      <point x="550" y="112"/>
      <point x="479" y="86"/>
    </contour>
  </outline>
</glyph>
<glyph name="r" format="1">
  <advance width="572"/>
  <unicode hex="0072"/>
  <outline>
    <contour>
      <point x="169" y="0" type="line"/>
      <point x="278" y="0" type="line"/>
      <point x="278" y="1265" type="line"/>
      <point x="375" y="1394"/>
      <point x="435" y="1424"/>
      <point x="536" y="1424" type="curve"/>
      <point x="536" y="1424"/>
      <point x="538" y="1518"/>
      <point x="533" y="1518" type="curve" smooth="yes"/>
      <point x="400" y="1518"/>
      <point x="312" y="1449"/>
      <point x="278" y="1333" type="curve"/>
      <point x="278" y="1500" type="line"/>
      <point x="169" y="1500" type="line"/>
    </contour>
  </outline>
</glyph>
<glyph name="s" format="1">
  <advance width="702"/>
  <unicode hex="0073"/>
  <outline>
    <contour>
      <point x="392" y="-20" type="curve" smooth="yes"/>
      <point x="565" y="-20"/>
      <point x="640" y="124"/>
      <point x="640" y="312" type="curve" smooth="yes"/>
      <point x="640" y="468"/>
      <point x="605" y="600"/>
      <point x="462" y="742" type="curve"/>
      <point x="359" y="847" type="line"/>
      <point x="217" y="987"/>
      <point x="213" y="1040"/>
      <point x="212" y="1131" type="curve"/>
      <point x="209" y="1275"/>
      <point x="238" y="1408"/>
      <point x="354" y="1408" type="curve" smooth="yes"/>
      <point x="453" y="1408"/>
      <point x="505" y="1314"/>
      <point x="505" y="1075" type="curve" smooth="yes"/>
      <point x="505" y="942" type="line"/>
      <point x="606" y="942" type="line"/>
      <point x="606" y="1052" type="line" smooth="yes"/>
      <point x="606" y="1411"/>
      <point x="494" y="1518"/>
      <point x="350" y="1518" type="curve" smooth="yes"/>
      <point x="206" y="1518"/>
      <point x="96" y="1412"/>
      <point x="96" y="1201" type="curve" smooth="yes"/>
      <point x="96" y="1051"/>
      <point x="129" y="924"/>
      <point x="273" y="790" type="curve" smooth="yes"/>
      <point x="250" y="812"/>
      <point x="397" y="671"/>
      <point x="387" y="682" type="curve" smooth="yes"/>
      <point x="544" y="536"/>
      <point x="522" y="444"/>
      <point x="522" y="328" type="curve" smooth="yes"/>
      <point x="522" y="144"/>
      <point x="482" y="89"/>
      <point x="376" y="89" type="curve" smooth="yes"/>
      <point x="274" y="89"/>
      <point x="218" y="218"/>
      <point x="218" y="445" type="curve" smooth="yes"/>
      <point x="218" y="542" type="line"/>
      <point x="103" y="542" type="line"/>
      <point x="103" y="402" type="line" smooth="yes"/>
      <point x="103" y="111"/>
      <point x="186" y="-20"/>
    </contour>
  </outline>
</glyph>
<glyph name="t" format="1">
  <advance width="577"/>
  <unicode hex="0074"/>
  <outline>
    <contour>
      <point x="433" y="-9" type="curve" smooth="yes"/>
      <point x="512" y="-9" type="line"/>
      <point x="512" y="93" type="line"/>
      <point x="333" y="93"/>
      <point x="327" y="104"/>
      <point x="327" y="187" type="curve" smooth="yes"/>
      <point x="327" y="1417" type="line"/>
      <point x="515" y="1417" type="line"/>
      <point x="515" y="1508" type="line"/>
      <point x="327" y="1508" type="line"/>
      <point x="327" y="1760" type="line"/>
      <point x="216" y="1760" type="line"/>
      <point x="216" y="1508" type="line"/>
      <point x="57" y="1508" type="line"/>
      <point x="57" y="1417" type="line"/>
      <point x="216" y="1417" type="line"/>
      <point x="216" y="213" type="line" smooth="yes"/>
      <point x="216" y="44"/>
      <point x="240" y="-9"/>
    </contour>
  </outline>
</glyph>
<glyph name="u" format="1">
  <advance width="881"/>
  <unicode hex="0075"/>
  <outline>
    <contour>
      <point x="384" y="-20" type="curve" smooth="yes"/>
      <point x="496" y="-20"/>
      <point x="591" y="69"/>
      <point x="611" y="148" type="curve"/>
      <point x="611" y="0" type="line"/>
      <point x="720" y="0" type="line"/>
      <point x="720" y="1500" type="line"/>
      <point x="607" y="1500" type="line"/>
      <point x="611" y="277" type="line" smooth="yes"/>
      <point x="611" y="159"/>
      <point x="536" y="92"/>
      <point x="427" y="92" type="curve" smooth="yes"/>
      <point x="336" y="92"/>
      <point x="267" y="143"/>
      <point x="267" y="262" type="curve" smooth="yes"/>
      <point x="267" y="1500" type="line"/>
      <point x="157" y="1500" type="line"/>
      <point x="157" y="266" type="line" smooth="yes"/>
      <point x="157" y="29"/>
      <point x="316" y="-20"/>
    </contour>
  </outline>
</glyph>
<glyph name="v" format="1">
  <advance width="679"/>
  <unicode hex="0076"/>
  <outline>
    <contour>
      <point x="302" y="0" type="line"/>
      <point x="387" y="0" type="line"/>
      <point x="614" y="1500" type="line"/>
      <point x="514" y="1500" type="line"/>
      <point x="399" y="719" type="line"/>
      <point x="347" y="204" type="line"/>
      <point x="342" y="204" type="line"/>
      <point x="284" y="718" type="line"/>
      <point x="166" y="1500" type="line"/>
      <point x="64" y="1500" type="line"/>
    </contour>
  </outline>
</glyph>
<glyph name="w" format="1">
  <advance width="1020"/>
  <unicode hex="0077"/>
  <outline>
    <contour>
      <point x="240" y="0" type="line"/>
      <point x="355" y="0" type="line"/>
      <point x="523" y="1359" type="line"/>
      <point x="667" y="0" type="line"/>
      <point x="787" y="0" type="line"/>
      <point x="956" y="1500" type="line"/>
      <point x="849" y="1500" type="line"/>
      <point x="776" y="620" type="line"/>
      <point x="759" y="249" type="line"/>
      <point x="748" y="249" type="line"/>
      <point x="708" y="617" type="line"/>
      <point x="559" y="1500" type="line"/>
      <point x="538" y="1500" type="line"/>
      <point x="510" y="1500" type="line"/>
      <point x="468" y="1500" type="line"/>
      <point x="337" y="578" type="line"/>
      <point x="313" y="249" type="line"/>
      <point x="299" y="249" type="line"/>
      <point x="274" y="577" type="line"/>
      <point x="176" y="1500" type="line"/>
      <point x="63" y="1500" type="line"/>
    </contour>
  </outline>
</glyph>
<glyph name="x" format="1">
  <advance width="610"/>
  <unicode hex="0078"/>
  <outline>
    <contour>
      <point x="35" y="0" type="line"/>
      <point x="130" y="0" type="line"/>
      <point x="298" y="618" type="line"/>
      <point x="473" y="0" type="line"/>
      <point x="576" y="0" type="line"/>
      <point x="351" y="788" type="line"/>
      <point x="576" y="1500" type="line"/>
      <point x="465" y="1500" type="line"/>
      <point x="310" y="940" type="line"/>
      <point x="148" y="1500" type="line"/>
      <point x="54" y="1500" type="line"/>
      <point x="262" y="754" type="line"/>
    </contour>
  </outline>
</glyph>
<glyph name="y" format="1">
  <advance width="717"/>
  <unicode hex="0079"/>
  <outline>
    <contour>
      <point x="153" y="-229" type="line"/>
      <point x="224" y="-229" type="line" smooth="yes"/>
      <point x="383" y="-229"/>
      <point x="391" y="-168"/>
      <point x="421" y="25" type="curve"/>
      <point x="653" y="1500" type="line"/>
      <point x="538" y="1500" type="line"/>
      <point x="425" y="698" type="line"/>
      <point x="379" y="289" type="line"/>
      <point x="369" y="289" type="line"/>
      <point x="318" y="698" type="line"/>
      <point x="192" y="1500" type="line"/>
      <point x="76" y="1500" type="line"/>
      <point x="329" y="28" type="line" smooth="yes"/>
      <point x="341" y="-44"/>
      <point x="351" y="-93"/>
      <point x="325" y="-118" type="curve"/>
      <point x="311" y="-117"/>
      <point x="252" y="-120"/>
      <point x="197" y="-120" type="curve" smooth="yes"/>
      <point x="153" y="-120" type="line"/>
    </contour>
  </outline>
</glyph>
<glyph name="z" format="1">
  <advance width="585"/>
  <unicode hex="007A"/>
  <outline>
    <contour>
      <point x="86" y="0" type="line"/>
      <point x="514" y="0" type="line"/>
      <point x="514" y="99" type="line"/>
      <point x="200" y="99" type="line"/>
      <point x="536" y="1440" type="line"/>
      <point x="536" y="1500" type="line"/>
      <point x="111" y="1500" type="line"/>
      <point x="111" y="1404" type="line"/>
      <point x="414" y="1404" type="line"/>
      <point x="86" y="77" type="line"/>
    </contour>
  </outline>
</glyph>
<glyph name="braceleft" format="1">
  <advance width="608"/>
  <unicode hex="007B"/>
  <outline>
    <contour>
      <point x="401" y="15" type="curve" smooth="yes"/>
      <point x="461" y="15" type="line"/>
      <point x="461" y="110" type="line"/>
      <point x="335" y="110"/>
      <point x="320" y="153"/>
      <point x="320" y="368" type="curve" smooth="yes"/>
      <point x="320" y="613" type="line" smooth="yes"/>
      <point x="320" y="753"/>
      <point x="300" y="848"/>
      <point x="234" y="898" type="curve"/>
      <point x="300" y="949"/>
      <point x="320" y="1045"/>
      <point x="320" y="1184" type="curve" smooth="yes"/>
      <point x="320" y="1429" type="line" smooth="yes"/>
      <point x="320" y="1644"/>
      <point x="335" y="1688"/>
      <point x="461" y="1688" type="curve"/>
      <point x="461" y="1782" type="line"/>
      <point x="401" y="1782" type="line" smooth="yes"/>
      <point x="245" y="1782"/>
      <point x="211" y="1703"/>
      <point x="211" y="1442" type="curve" smooth="yes"/>
      <point x="211" y="1175" type="line" smooth="yes"/>
      <point x="211" y="946"/>
      <point x="193" y="898"/>
      <point x="74" y="898" type="curve"/>
      <point x="74" y="900" type="line"/>
      <point x="193" y="900"/>
      <point x="211" y="852"/>
      <point x="211" y="622" type="curve" smooth="yes"/>
      <point x="211" y="355" type="line" smooth="yes"/>
      <point x="211" y="94"/>
      <point x="245" y="15"/>
    </contour>
  </outline>
</glyph>
<glyph name="bar" format="1">
  <advance width="442"/>
  <unicode hex="007C"/>
  <outline>
    <contour>
      <point x="160" y="-141" type="line"/>
      <point x="275" y="-141" type="line"/>
      <point x="275" y="1744" type="line"/>
      <point x="160" y="1744" type="line"/>
    </contour>
  </outline>
</glyph>
<glyph name="braceright" format="1">
  <advance width="608"/>
  <unicode hex="007D"/>
  <outline>
    <contour>
      <point x="147" y="15" type="line"/>
      <point x="207" y="15" type="line" smooth="yes"/>
      <point x="363" y="15"/>
      <point x="397" y="94"/>
      <point x="397" y="355" type="curve" smooth="yes"/>
      <point x="397" y="622" type="line" smooth="yes"/>
      <point x="397" y="852"/>
      <point x="415" y="900"/>
      <point x="534" y="900" type="curve"/>
      <point x="534" y="898" type="line"/>
      <point x="415" y="898"/>
      <point x="397" y="946"/>
      <point x="397" y="1175" type="curve" smooth="yes"/>
      <point x="397" y="1442" type="line" smooth="yes"/>
      <point x="397" y="1703"/>
      <point x="363" y="1782"/>
      <point x="207" y="1782" type="curve" smooth="yes"/>
      <point x="147" y="1782" type="line"/>
      <point x="147" y="1688" type="line"/>
      <point x="273" y="1688"/>
      <point x="288" y="1644"/>
      <point x="288" y="1429" type="curve" smooth="yes"/>
      <point x="288" y="1184" type="line" smooth="yes"/>
      <point x="288" y="1045"/>
      <point x="308" y="949"/>
      <point x="374" y="898" type="curve"/>
      <point x="308" y="848"/>
      <point x="288" y="753"/>
      <point x="288" y="613" type="curve" smooth="yes"/>
      <point x="288" y="368" type="line" smooth="yes"/>
      <point x="288" y="153"/>
      <point x="273" y="110"/>
      <point x="147" y="110" type="curve"/>
    </contour>
  </outline>
</glyph>
<glyph name="asciitilde" format="1">
  <advance width="1002"/>
  <unicode hex="007E"/>
  <outline>
    <contour>
      <point x="207" y="846" type="line"/>
      <point x="216" y="940"/>
      <point x="229" y="1009"/>
      <point x="291" y="1002" type="curve" smooth="yes"/>
      <point x="329" y="993"/>
      <point x="647" y="868"/>
      <point x="761" y="868" type="curve" smooth="yes"/>
      <point x="851" y="868"/>
      <point x="895" y="886"/>
      <point x="900" y="1126" type="curve"/>
      <point x="805" y="1125" type="line"/>
      <point x="803" y="973"/>
      <point x="798" y="942"/>
      <point x="743" y="944" type="curve"/>
      <point x="679" y="944"/>
      <point x="367" y="1078"/>
      <point x="263" y="1078" type="curve" smooth="yes"/>
      <point x="185" y="1078"/>
      <point x="128" y="1031"/>
      <point x="111" y="851" type="curve"/>
    </contour>
  </outline>
</glyph>
<glyph name="cent" format="1">
  <advance width="751"/>
  <unicode hex="00A2"/>
  <outline>
    <contour>
      <point x="365" y="-248" type="line"/>
      <point x="444" y="-248" type="line"/>
      <point x="444" y="7" type="line"/>
      <point x="365" y="7" type="line"/>
    </contour>
    <contour>
      <point x="286" y="1498" type="line"/>
      <point x="444" y="1320" type="line"/>
      <point x="522" y="1755" type="line"/>
      <point x="365" y="1932" type="line"/>
    </contour>
    <component base="c"/>
  </outline>
</glyph>
<glyph name="sterling" format="1">
  <advance width="813"/>
  <unicode hex="00A3"/>
  <outline>
    <contour>
      <point x="118" y="0" type="line"/>
      <point x="772" y="0" type="line"/>
      <point x="772" y="73" type="line"/>
      <point x="314" y="73" type="line"/>
      <point x="459" y="157"/>
      <point x="475" y="260"/>
      <point x="410" y="663" type="curve" smooth="yes"/>
      <point x="385" y="823" type="line"/>
      <point x="678" y="823" type="line"/>
      <point x="678" y="900" type="line"/>
      <point x="377" y="900" type="line"/>
      <point x="347" y="1089" type="line" smooth="yes"/>
      <point x="333" y="1186"/>
      <point x="311" y="1353"/>
      <point x="311" y="1411" type="curve" smooth="yes"/>
      <point x="311" y="1630"/>
      <point x="381" y="1686"/>
      <point x="484" y="1686" type="curve" smooth="yes"/>
      <point x="560" y="1686"/>
      <point x="637" y="1694"/>
      <point x="637" y="1412" type="curve" smooth="yes"/>
      <point x="637" y="1246" type="line"/>
      <point x="735" y="1246" type="line"/>
      <point x="735" y="1395" type="line" smooth="yes"/>
      <point x="735" y="1764"/>
      <point x="579" y="1782"/>
      <point x="472" y="1782" type="curve" smooth="yes"/>
      <point x="270" y="1782"/>
      <point x="203" y="1623"/>
      <point x="203" y="1374" type="curve" smooth="yes"/>
      <point x="203" y="1311"/>
      <point x="224" y="1153"/>
      <point x="242" y="1063" type="curve" smooth="yes"/>
      <point x="275" y="900" type="line"/>
      <point x="93" y="900" type="line"/>
      <point x="93" y="823" type="line"/>
      <point x="283" y="823" type="line"/>
      <point x="305" y="666" type="line" smooth="yes"/>
      <point x="359" y="310"/>
      <point x="410" y="232"/>
      <point x="118" y="46" type="curve"/>
    </contour>
  </outline>
</glyph>
<glyph name="currency" format="1">
  <advance width="1159"/>
  <unicode hex="00A4"/>
  <outline>
    <contour>
      <point x="274" y="1022" type="line"/>
      <point x="363" y="1111" type="line"/>
      <point x="424" y="1076"/>
      <point x="496" y="1058"/>
      <point x="579" y="1058" type="curve" smooth="yes"/>
      <point x="661" y="1058"/>
      <point x="733" y="1075"/>
      <point x="795" y="1110" type="curve"/>
      <point x="884" y="1022" type="line"/>
      <point x="1034" y="1171" type="line"/>
      <point x="944" y="1261" type="line"/>
      <point x="980" y="1326"/>
      <point x="998" y="1398"/>
      <point x="998" y="1477" type="curve" smooth="yes"/>
      <point x="998" y="1556"/>
      <point x="980" y="1627"/>
      <point x="944" y="1692" type="curve"/>
      <point x="1034" y="1782" type="line"/>
      <point x="884" y="1931" type="line"/>
      <point x="797" y="1844" type="line"/>
      <point x="732" y="1880"/>
      <point x="659" y="1898"/>
      <point x="579" y="1898" type="curve" smooth="yes"/>
      <point x="498" y="1898"/>
      <point x="426" y="1880"/>
      <point x="361" y="1843" type="curve"/>
      <point x="274" y="1931" type="line"/>
      <point x="125" y="1781" type="line"/>
      <point x="215" y="1691" type="line"/>
      <point x="180" y="1626"/>
      <point x="163" y="1555"/>
      <point x="163" y="1477" type="curve" smooth="yes"/>
      <point x="163" y="1400"/>
      <point x="181" y="1328"/>
      <point x="216" y="1263" type="curve"/>
      <point x="125" y="1172" type="line"/>
    </contour>
    <contour>
      <point x="579" y="1123" type="curve" smooth="yes"/>
      <point x="375" y="1123"/>
      <point x="246" y="1281"/>
      <point x="246" y="1477" type="curve" smooth="yes"/>
      <point x="246" y="1672"/>
      <point x="376" y="1830"/>
      <point x="579" y="1830" type="curve" smooth="yes"/>
      <point x="784" y="1830"/>
      <point x="913" y="1682"/>
      <point x="913" y="1479" type="curve" smooth="yes"/>
      <point x="913" y="1283"/>
      <point x="783" y="1123"/>
    </contour>
  </outline>
</glyph>
<glyph name="yen" format="1">
  <advance width="758"/>
  <unicode hex="00A5"/>
  <outline>
    <contour>
      <point x="71" y="511" type="line"/>
      <point x="746" y="511" type="line"/>
      <point x="746" y="570" type="line"/>
      <point x="437" y="570" type="line"/>
      <point x="437" y="782" type="line"/>
      <point x="746" y="782" type="line"/>
      <point x="746" y="842" type="line"/>
      <point x="71" y="842" type="line"/>
      <point x="71" y="782" type="line"/>
      <point x="436" y="782" type="line"/>
      <point x="436" y="570" type="line"/>
      <point x="71" y="570" type="line"/>
    </contour>
    <component base="Y"/>
  </outline>
</glyph>
<glyph name="brokenbar" format="1">
  <advance width="477"/>
  <unicode hex="00A6"/>
  <outline>
    <contour>
      <point x="181" y="-39" type="line"/>
      <point x="295" y="-39" type="line"/>
      <point x="295" y="748" type="line"/>
      <point x="181" y="748" type="line"/>
    </contour>
    <contour>
      <point x="181" y="932" type="line"/>
      <point x="295" y="932" type="line"/>
      <point x="295" y="1762" type="line"/>
      <point x="181" y="1762" type="line"/>
    </contour>
  </outline>
</glyph>
<glyph name="section" format="1">
  <advance width="736"/>
  <unicode hex="00A7"/>
  <outline>
    <contour>
      <point x="414" y="-20" type="curve" smooth="yes"/>
      <point x="624" y="-23"/>
      <point x="696" y="136"/>
      <point x="662" y="356" type="curve" smooth="yes"/>
      <point x="648" y="438"/>
      <point x="610" y="537"/>
      <point x="594" y="596" type="curve"/>
      <point x="588" y="664"/>
      <point x="559" y="721"/>
      <point x="551" y="735" type="curve" smooth="yes"/>
      <point x="545" y="890"/>
      <point x="466" y="975"/>
      <point x="443" y="1040" type="curve" smooth="yes"/>
      <point x="398" y="1097"/>
      <point x="491" y="1033"/>
      <point x="444" y="1091" type="curve" smooth="yes"/>
      <point x="314" y="1284"/>
      <point x="256" y="1321"/>
      <point x="260" y="1508" type="curve" smooth="yes"/>
      <point x="263" y="1690"/>
      <point x="362" y="1673"/>
      <point x="428" y="1673" type="curve" smooth="yes"/>
      <point x="573" y="1673"/>
      <point x="562" y="1500"/>
      <point x="562" y="1264" type="curve" smooth="yes"/>
      <point x="562" y="1142" type="line"/>
      <point x="653" y="1142" type="line"/>
      <point x="653" y="1316" type="line" smooth="yes"/>
      <point x="653" y="1656"/>
      <point x="621" y="1782"/>
      <point x="404" y="1782" type="curve" smooth="yes"/>
      <point x="252" y="1782"/>
      <point x="139" y="1718"/>
      <point x="154" y="1467" type="curve" smooth="yes"/>
      <point x="159" y="1411"/>
      <point x="153" y="1372"/>
      <point x="184" y="1273" type="curve"/>
      <point x="124" y="1180"/>
      <point x="153" y="1096"/>
      <point x="153" y="1058" type="curve" smooth="yes"/>
      <point x="153" y="989"/>
      <point x="199" y="913"/>
      <point x="261" y="832" type="curve" smooth="yes"/>
      <point x="307" y="783"/>
      <point x="220" y="846"/>
      <point x="270" y="797" type="curve" smooth="yes"/>
      <point x="399" y="659"/>
      <point x="556" y="503"/>
      <point x="567" y="330" type="curve" smooth="yes"/>
      <point x="579" y="106"/>
      <point x="480" y="72"/>
      <point x="369" y="89" type="curve" smooth="yes"/>
      <point x="292" y="106"/>
      <point x="243" y="202"/>
      <point x="243" y="456" type="curve" smooth="yes"/>
      <point x="243" y="590" type="line"/>
      <point x="149" y="590" type="line"/>
      <point x="149" y="437" type="line" smooth="yes"/>
      <point x="149" y="97"/>
      <point x="196" y="-17"/>
    </contour>
    <contour>
      <point x="511" y="680" type="curve"/>
      <point x="439" y="797"/>
      <point x="240" y="937"/>
      <point x="230" y="1097" type="curve" smooth="yes"/>
      <point x="227" y="1133"/>
      <point x="176" y="1133"/>
      <point x="222" y="1199" type="curve"/>
      <point x="404" y="907"/>
      <point x="471" y="896"/>
      <point x="471" y="728" type="curve" smooth="yes"/>
      <point x="469" y="760"/>
      <point x="489" y="687"/>
    </contour>
  </outline>
</glyph>
<glyph name="dieresis" format="1">
  <advance width="976"/>
  <unicode hex="00A8"/>
  <outline>
    <contour>
      <point x="172" y="2026" type="line"/>
      <point x="320" y="2026" type="line"/>
      <point x="320" y="2127" type="line"/>
      <point x="172" y="2127" type="line"/>
    </contour>
    <contour>
      <point x="564" y="2026" type="line"/>
      <point x="713" y="2026" type="line"/>
      <point x="713" y="2127" type="line"/>
      <point x="564" y="2127" type="line"/>
    </contour>
  </outline>
</glyph>
<glyph name="copyright" format="1">
  <advance width="1466"/>
  <unicode hex="00A9"/>
  <outline>
    <contour>
      <point x="739" y="371" type="curve" smooth="yes"/>
      <point x="901" y="371"/>
      <point x="956" y="463"/>
      <point x="956" y="630" type="curve" smooth="yes"/>
      <point x="956" y="724" type="line"/>
      <point x="874" y="724" type="line"/>
      <point x="874" y="638" type="line" smooth="yes"/>
      <point x="874" y="507"/>
      <point x="856" y="441"/>
      <point x="731" y="441" type="curve" smooth="yes"/>
      <point x="612" y="441"/>
      <point x="591" y="528"/>
      <point x="591" y="638" type="curve" smooth="yes"/>
      <point x="591" y="1029" type="line" smooth="yes"/>
      <point x="591" y="1125"/>
      <point x="597" y="1216"/>
      <point x="731" y="1216" type="curve" smooth="yes"/>
      <point x="856" y="1216"/>
      <point x="874" y="1141"/>
      <point x="874" y="1016" type="curve" smooth="yes"/>
      <point x="874" y="950" type="line"/>
      <point x="952" y="950" type="line"/>
      <point x="952" y="1098" type="line" smooth="yes"/>
      <point x="952" y="1201"/>
      <point x="877" y="1295"/>
      <point x="743" y="1295" type="curve" smooth="yes"/>
      <point x="578" y="1295"/>
      <point x="497" y="1203"/>
      <point x="497" y="999" type="curve" smooth="yes"/>
      <point x="497" y="621" type="line" smooth="yes"/>
      <point x="497" y="432"/>
      <point x="600" y="371"/>
    </contour>
    <contour>
      <point x="727" y="168" type="curve" smooth="yes"/>
      <point x="414" y="168"/>
      <point x="144" y="441"/>
      <point x="144" y="832" type="curve" smooth="yes"/>
      <point x="144" y="1222"/>
      <point x="414" y="1493"/>
      <point x="727" y="1493" type="curve" smooth="yes"/>
      <point x="1041" y="1493"/>
      <point x="1311" y="1220"/>
      <point x="1311" y="831" type="curve" smooth="yes"/>
      <point x="1311" y="440"/>
      <point x="1041" y="168"/>
    </contour>
    <contour>
      <point x="727" y="142" type="curve" smooth="yes"/>
      <point x="1100" y="142"/>
      <point x="1337" y="440"/>
      <point x="1337" y="832" type="curve" smooth="yes"/>
      <point x="1337" y="1221"/>
      <point x="1100" y="1519"/>
      <point x="727" y="1519" type="curve" smooth="yes"/>
      <point x="354" y="1519"/>
      <point x="118" y="1221"/>
      <point x="118" y="832" type="curve" smooth="yes"/>
      <point x="118" y="440"/>
      <point x="354" y="142"/>
    </contour>
  </outline>
</glyph>
<glyph name="ordfeminine" format="1">
  <advance width="653"/>
  <unicode hex="00AA"/>
  <outline>
    <contour>
      <point x="331" y="551" type="curve" smooth="yes"/>
      <point x="434" y="551"/>
      <point x="477" y="620"/>
      <point x="487" y="647" type="curve"/>
      <point x="487" y="560" type="line"/>
      <point x="576" y="560" type="line"/>
      <point x="576" y="1321" type="line" smooth="yes"/>
      <point x="576" y="1617"/>
      <point x="606" y="1782"/>
      <point x="372" y="1782" type="curve" smooth="yes"/>
      <point x="153" y="1782"/>
      <point x="163" y="1583"/>
      <point x="163" y="1398" type="curve" smooth="yes"/>
      <point x="163" y="1398"/>
      <point x="162" y="1368"/>
      <point x="162" y="1366" type="curve"/>
      <point x="254" y="1366" type="line"/>
      <point x="254" y="1387" type="line" smooth="yes"/>
      <point x="254" y="1612"/>
      <point x="262" y="1699"/>
      <point x="375" y="1699" type="curve" smooth="yes"/>
      <point x="479" y="1699"/>
      <point x="488" y="1641"/>
      <point x="488" y="1435" type="curve" smooth="yes"/>
      <point x="488" y="1327" type="line"/>
      <point x="305" y="1242"/>
      <point x="150" y="1180"/>
      <point x="150" y="1038" type="curve" smooth="yes"/>
      <point x="150" y="860" type="line"/>
      <point x="149" y="656"/>
      <point x="215" y="551"/>
    </contour>
    <contour>
      <point x="336" y="628" type="curve" smooth="yes"/>
      <point x="253" y="628"/>
      <point x="236" y="694"/>
      <point x="236" y="873" type="curve" smooth="yes"/>
      <point x="236" y="963" type="line" smooth="yes"/>
      <point x="236" y="1129"/>
      <point x="266" y="1146"/>
      <point x="488" y="1245" type="curve"/>
      <point x="488" y="704" type="line"/>
      <point x="465" y="675"/>
      <point x="403" y="628"/>
    </contour>
  </outline>
</glyph>
<glyph name="guillemotleft" format="1">
  <advance width="1304"/>
  <unicode hex="00AB"/>
  <outline>
    <contour>
      <point x="530" y="443" type="line"/>
      <point x="530" y="566" type="line"/>
      <point x="218" y="749" type="line"/>
      <point x="530" y="923" type="line"/>
      <point x="530" y="1034" type="line"/>
      <point x="72" y="763" type="line"/>
      <point x="72" y="728" type="line"/>
    </contour>
    <contour>
      <point x="1042" y="443" type="line"/>
      <point x="1042" y="566" type="line"/>
      <point x="730" y="749" type="line"/>
      <point x="1042" y="923" type="line"/>
      <point x="1042" y="1034" type="line"/>
      <point x="584" y="763" type="line"/>
      <point x="584" y="728" type="line"/>
    </contour>
  </outline>
</glyph>
<glyph name="logicalnot" format="1">
  <advance width="947"/>
  <unicode hex="00AC"/>
  <outline>
    <contour>
      <point x="770" y="439" type="line"/>
      <point x="849" y="439" type="line"/>
      <point x="849" y="774" type="line"/>
      <point x="97" y="774" type="line"/>
      <point x="97" y="706" type="line"/>
      <point x="770" y="706" type="line"/>
    </contour>
  </outline>
</glyph>
<glyph name="registered" format="1">
  <advance width="1502"/>
  <unicode hex="00AE"/>
  <outline>
    <contour>
      <point x="499" y="457" type="line"/>
      <point x="611" y="457" type="line"/>
      <point x="611" y="875" type="line"/>
      <point x="745" y="875"/>
      <point x="875" y="941"/>
      <point x="875" y="738" type="curve" smooth="yes"/>
      <point x="875" y="457" type="line"/>
      <point x="986" y="457" type="line"/>
      <point x="986" y="806" type="line" smooth="yes"/>
      <point x="986" y="879"/>
      <point x="893" y="908"/>
      <point x="865" y="918" type="curve"/>
      <point x="921" y="942"/>
      <point x="1005" y="991"/>
      <point x="1005" y="1090" type="curve" smooth="yes"/>
      <point x="1005" y="1100"/>
      <point x="1005" y="1096"/>
      <point x="1005" y="1105" type="curve" smooth="yes"/>
      <point x="994" y="1266"/>
      <point x="850" y="1309"/>
      <point x="714" y="1309" type="curve" smooth="yes"/>
      <point x="499" y="1309" type="line"/>
    </contour>
    <contour>
      <point x="721" y="227" type="curve" smooth="yes"/>
      <point x="407" y="227"/>
      <point x="103" y="489"/>
      <point x="103" y="863" type="curve" smooth="yes"/>
      <point x="103" y="1237"/>
      <point x="407" y="1497"/>
      <point x="721" y="1497" type="curve" smooth="yes"/>
      <point x="1034" y="1497"/>
      <point x="1338" y="1235"/>
      <point x="1338" y="861" type="curve" smooth="yes"/>
      <point x="1338" y="487"/>
      <point x="1034" y="227"/>
    </contour>
    <contour>
      <point x="721" y="205" type="curve" smooth="yes"/>
      <point x="1094" y="205"/>
      <point x="1378" y="489"/>
      <point x="1378" y="862" type="curve" smooth="yes"/>
      <point x="1378" y="1235"/>
      <point x="1094" y="1519"/>
      <point x="721" y="1519" type="curve" smooth="yes"/>
      <point x="348" y="1519"/>
      <point x="64" y="1235"/>
      <point x="64" y="862" type="curve" smooth="yes"/>
      <point x="64" y="489"/>
      <point x="348" y="205"/>
    </contour>
    <contour>
      <point x="612" y="955" type="curve"/>
      <point x="612" y="1228" type="line"/>
      <point x="824" y="1228"/>
      <point x="889" y="1203"/>
      <point x="889" y="1078" type="curve" smooth="yes"/>
      <point x="889" y="1005"/>
      <point x="803" y="953"/>
      <point x="732" y="955" type="curve" smooth="yes"/>
      <point x="736" y="955"/>
      <point x="608" y="955"/>
    </contour>
  </outline>
</glyph>
<glyph name="macron" format="1">
  <advance width="696"/>
  <unicode hex="00AF"/>
  <outline>
    <contour>
      <point x="90" y="-405" type="line"/>
      <point x="581" y="-405" type="line"/>
      <point x="581" y="-305" type="line"/>
      <point x="90" y="-305" type="line"/>
    </contour>
  </outline>
</glyph>
<glyph name="plusminus" format="1">
  <advance width="854"/>
  <unicode hex="00B1"/>
  <outline>
    <contour>
      <point x="378" y="580" type="line"/>
      <point x="476" y="580" type="line"/>
      <point x="476" y="857" type="line"/>
      <point x="714" y="857" type="line"/>
      <point x="714" y="940" type="line"/>
      <point x="476" y="940" type="line"/>
      <point x="476" y="1208" type="line"/>
      <point x="378" y="1208" type="line"/>
      <point x="378" y="940" type="line"/>
      <point x="144" y="940" type="line"/>
      <point x="144" y="857" type="line"/>
      <point x="378" y="857" type="line"/>
    </contour>
    <contour>
      <point x="179" y="308" type="line"/>
      <point x="695" y="308" type="line"/>
      <point x="695" y="405" type="line"/>
      <point x="179" y="405" type="line"/>
    </contour>
  </outline>
</glyph>
<glyph name="uni00B2" format="1">
  <advance width="871"/>
  <unicode hex="00B2"/>
  <outline>
    <contour>
      <point x="290" y="371" type="line"/>
      <point x="642" y="371" type="line"/>
      <point x="642" y="425" type="line"/>
      <point x="371" y="425" type="line"/>
      <point x="391" y="810"/>
      <point x="663" y="1019"/>
      <point x="663" y="1391" type="curve" smooth="yes"/>
      <point x="663" y="1556"/>
      <point x="663" y="1777"/>
      <point x="502" y="1777" type="curve" smooth="yes"/>
      <point x="282" y="1777"/>
      <point x="286" y="1593"/>
      <point x="286" y="1296" type="curve" smooth="yes"/>
      <point x="285" y="1211" type="line"/>
      <point x="378" y="1211" type="line"/>
      <point x="378" y="1398" type="line" smooth="yes"/>
      <point x="378" y="1667"/>
      <point x="430" y="1701"/>
      <point x="481" y="1701" type="curve" smooth="yes"/>
      <point x="532" y="1701"/>
      <point x="577" y="1664"/>
      <point x="577" y="1411" type="curve" smooth="yes"/>
      <point x="577" y="1316"/>
      <point x="553" y="1174"/>
      <point x="524" y="1104" type="curve"/>
      <point x="571" y="1161"/>
      <point x="290" y="496"/>
      <point x="290" y="447" type="curve" smooth="yes"/>
    </contour>
  </outline>
</glyph>
<glyph name="uni00B3" format="1">
  <advance width="888"/>
  <unicode hex="00B3"/>
  <outline>
    <contour>
      <point x="441" y="522" type="curve" smooth="yes"/>
      <point x="570" y="522"/>
      <point x="629" y="625"/>
      <point x="629" y="852" type="curve" smooth="yes"/>
      <point x="629" y="981"/>
      <point x="588" y="1127"/>
      <point x="509" y="1164" type="curve"/>
      <point x="594" y="1197"/>
      <point x="627" y="1312"/>
      <point x="627" y="1455" type="curve" smooth="yes"/>
      <point x="627" y="1664"/>
      <point x="577" y="1774"/>
      <point x="438" y="1774" type="curve" smooth="yes"/>
      <point x="302" y="1774"/>
      <point x="262" y="1660"/>
      <point x="262" y="1455" type="curve" smooth="yes"/>
      <point x="262" y="1436" type="line"/>
      <point x="332" y="1436" type="line"/>
      <point x="332" y="1456" type="line" smooth="yes"/>
      <point x="332" y="1673"/>
      <point x="379" y="1711"/>
      <point x="437" y="1711" type="curve" smooth="yes"/>
      <point x="504" y="1711"/>
      <point x="560" y="1681"/>
      <point x="560" y="1459" type="curve" smooth="yes"/>
      <point x="560" y="1221"/>
      <point x="514" y="1201"/>
      <point x="413" y="1203" type="curve"/>
      <point x="383" y="1203" type="line"/>
      <point x="383" y="1134" type="line"/>
      <point x="416" y="1134" type="line" smooth="yes"/>
      <point x="516" y="1134"/>
      <point x="565" y="1084"/>
      <point x="565" y="855" type="curve" smooth="yes"/>
      <point x="565" y="649"/>
      <point x="533" y="582"/>
      <point x="440" y="582" type="curve" smooth="yes"/>
      <point x="344" y="582"/>
      <point x="329" y="640"/>
      <point x="329" y="863" type="curve" smooth="yes"/>
      <point x="329" y="876" type="line"/>
      <point x="258" y="876" type="line"/>
      <point x="258" y="865" type="line" smooth="yes"/>
      <point x="258" y="633"/>
      <point x="306" y="522"/>
    </contour>
  </outline>
</glyph>
<glyph name="acute" format="1">
  <advance width="708"/>
  <unicode hex="00B4"/>
  <outline>
    <contour>
      <point x="200" y="2176" type="line"/>
      <point x="238" y="2176" type="line"/>
      <point x="385" y="2560" type="line"/>
      <point x="279" y="2560" type="line"/>
    </contour>
  </outline>
</glyph>
<glyph name="paragraph" format="1">
  <advance width="937"/>
  <unicode hex="00B6"/>
  <outline>
    <contour>
      <point x="436" y="0" type="line"/>
      <point x="516" y="0" type="line"/>
      <point x="516" y="1651" type="line"/>
      <point x="676" y="1651" type="line"/>
      <point x="676" y="0" type="line"/>
      <point x="756" y="0" type="line"/>
      <point x="756" y="1759" type="line"/>
      <point x="554" y="1759" type="line" smooth="yes"/>
      <point x="133" y="1759"/>
      <point x="140" y="1552"/>
      <point x="140" y="1453" type="curve" smooth="yes"/>
      <point x="140" y="1371"/>
      <point x="237" y="1234"/>
      <point x="436" y="1211" type="curve"/>
    </contour>
  </outline>
</glyph>
<glyph name="periodcentered" format="1">
  <advance width="480"/>
  <unicode hex="00B7"/>
  <outline>
    <contour>
      <point x="173" y="798" type="line"/>
      <point x="323" y="798" type="line"/>
      <point x="323" y="950" type="line"/>
      <point x="173" y="950" type="line"/>
    </contour>
  </outline>
</glyph>
<glyph name="cedilla" format="1">
  <advance width="1480"/>
  <unicode hex="00B8"/>
  <outline>
    <contour>
      <point x="686" y="-581" type="curve" smooth="yes"/>
      <point x="833" y="-581"/>
      <point x="949" y="-482"/>
      <point x="949" y="-370" type="curve" smooth="yes"/>
      <point x="949" y="-299"/>
      <point x="907" y="-217"/>
      <point x="786" y="-149" type="curve"/>
      <point x="779" y="0" type="line"/>
      <point x="731" y="0" type="line"/>
      <point x="691" y="-196" type="line"/>
      <point x="773" y="-214"/>
      <point x="851" y="-269"/>
      <point x="851" y="-359" type="curve" smooth="yes"/>
      <point x="851" y="-434"/>
      <point x="809" y="-501"/>
      <point x="620" y="-501" type="curve"/>
      <point x="620" y="-579" type="line"/>
      <point x="644" y="-581"/>
      <point x="665" y="-581"/>
    </contour>
  </outline>
</glyph>
<glyph name="uni00B9" format="1">
  <advance width="625"/>
  <unicode hex="00B9"/>
  <outline>
    <contour>
      <point x="275" y="363" type="line"/>
      <point x="355" y="363" type="line"/>
      <point x="355" y="1759" type="line"/>
      <point x="314" y="1759" type="line"/>
      <point x="259" y="1651"/>
      <point x="191" y="1599"/>
      <point x="112" y="1585" type="curve"/>
      <point x="112" y="1529" type="line"/>
      <point x="167" y="1529"/>
      <point x="244" y="1555"/>
      <point x="275" y="1604" type="curve"/>
    </contour>
  </outline>
</glyph>
<glyph name="ordmasculine" format="1">
  <advance width="963"/>
  <unicode hex="00BA"/>
  <outline>
    <contour>
      <point x="519" y="332" type="curve"/>
      <point x="396" y="332"/>
      <point x="390" y="460"/>
      <point x="390" y="650" type="curve" smooth="yes"/>
      <point x="390" y="1104" type="line" smooth="yes"/>
      <point x="390" y="1279"/>
      <point x="399" y="1403"/>
      <point x="519" y="1403" type="curve" smooth="yes"/>
      <point x="629" y="1403"/>
      <point x="641" y="1279"/>
      <point x="641" y="1104" type="curve" smooth="yes"/>
      <point x="641" y="650" type="line" smooth="yes"/>
      <point x="641" y="462"/>
      <point x="633" y="332"/>
    </contour>
    <contour>
      <point x="519" y="250" type="curve" smooth="yes"/>
      <point x="740" y="250"/>
      <point x="729" y="442"/>
      <point x="729" y="688" type="curve" smooth="yes"/>
      <point x="729" y="1078" type="line" smooth="yes"/>
      <point x="729" y="1307"/>
      <point x="726" y="1486"/>
      <point x="519" y="1486" type="curve" smooth="yes"/>
      <point x="309" y="1486"/>
      <point x="304" y="1306"/>
      <point x="304" y="1078" type="curve" smooth="yes"/>
      <point x="304" y="688" type="line" smooth="yes"/>
      <point x="304" y="439"/>
      <point x="298" y="250"/>
    </contour>
  </outline>
</glyph>
<glyph name="guillemotright" format="1">
  <advance width="1304"/>
  <unicode hex="00BB"/>
  <outline>
    <contour>
      <point x="208" y="443" type="line"/>
      <point x="665" y="728" type="line"/>
      <point x="665" y="763" type="line"/>
      <point x="208" y="1034" type="line"/>
      <point x="208" y="923" type="line"/>
      <point x="520" y="749" type="line"/>
      <point x="208" y="566" type="line"/>
    </contour>
    <contour>
      <point x="720" y="443" type="line"/>
      <point x="1178" y="728" type="line"/>
      <point x="1178" y="763" type="line"/>
      <point x="720" y="1034" type="line"/>
      <point x="720" y="923" type="line"/>
      <point x="1032" y="749" type="line"/>
      <point x="720" y="566" type="line"/>
    </contour>
  </outline>
</glyph>
<glyph name="onequarter" format="1">
  <advance width="1535"/>
  <unicode hex="00BC"/>
  <outline>
    <contour>
      <point x="1190" y="0" type="line"/>
      <point x="1262" y="0" type="line"/>
      <point x="1262" y="261" type="line"/>
      <point x="1384" y="261" type="line"/>
      <point x="1384" y="327" type="line"/>
      <point x="1262" y="327" type="line"/>
      <point x="1262" y="1277" type="line"/>
      <point x="1209" y="1277" type="line"/>
      <point x="912" y="317" type="line"/>
      <point x="921" y="261" type="line"/>
      <point x="1190" y="261" type="line"/>
    </contour>
    <contour>
      <point x="279" y="362" type="line"/>
      <point x="373" y="362" type="line"/>
      <point x="373" y="1797" type="line"/>
      <point x="322" y="1797" type="line"/>
      <point x="268" y="1686"/>
      <point x="190" y="1633"/>
      <point x="103" y="1618" type="curve"/>
      <point x="103" y="1557" type="line"/>
      <point x="163" y="1557"/>
      <point x="244" y="1583"/>
      <point x="279" y="1633" type="curve"/>
    </contour>
    <contour>
      <point x="504" y="0" type="line"/>
      <point x="612" y="0" type="line"/>
      <point x="1060" y="1797" type="line"/>
      <point x="949" y="1797" type="line"/>
    </contour>
    <contour>
      <point x="992" y="327" type="line"/>
      <point x="1190" y="1031" type="line"/>
      <point x="1190" y="327" type="line"/>
    </contour>
  </outline>
</glyph>
<glyph name="onehalf" format="1">
  <advance width="1620"/>
  <unicode hex="00BD"/>
  <outline>
    <contour>
      <point x="1155" y="2" type="line"/>
      <point x="1524" y="2" type="line"/>
      <point x="1524" y="91" type="line"/>
      <point x="1242" y="91" type="line"/>
      <point x="1233" y="38"/>
      <point x="1226" y="160"/>
      <point x="1300" y="314" type="curve" smooth="yes"/>
      <point x="1280" y="269"/>
      <point x="1535" y="827"/>
      <point x="1511" y="784" type="curve" smooth="yes"/>
      <point x="1550" y="877"/>
      <point x="1546" y="958"/>
      <point x="1546" y="1052" type="curve" smooth="yes"/>
      <point x="1546" y="1271"/>
      <point x="1543" y="1448"/>
      <point x="1376" y="1448" type="curve" smooth="yes"/>
      <point x="1150" y="1448"/>
      <point x="1151" y="1260"/>
      <point x="1151" y="953" type="curve" smooth="yes"/>
      <point x="1151" y="866" type="line"/>
      <point x="1250" y="866" type="line"/>
      <point x="1250" y="1058" type="line" smooth="yes"/>
      <point x="1250" y="1328"/>
      <point x="1302" y="1365"/>
      <point x="1356" y="1365" type="curve" smooth="yes"/>
      <point x="1409" y="1365"/>
      <point x="1453" y="1326"/>
      <point x="1453" y="1071" type="curve" smooth="yes"/>
      <point x="1453" y="974"/>
      <point x="1447" y="870"/>
      <point x="1399" y="759" type="curve"/>
      <point x="1408" y="770"/>
      <point x="1168" y="247"/>
      <point x="1209" y="339" type="curve" smooth="yes"/>
      <point x="1152" y="220"/>
      <point x="1155" y="161"/>
      <point x="1155" y="80" type="curve" smooth="yes"/>
    </contour>
    <contour>
      <point x="279" y="362" type="line"/>
      <point x="373" y="362" type="line"/>
      <point x="373" y="1797" type="line"/>
      <point x="322" y="1797" type="line"/>
      <point x="268" y="1686"/>
      <point x="190" y="1633"/>
      <point x="103" y="1618" type="curve"/>
      <point x="103" y="1557" type="line"/>
      <point x="163" y="1557"/>
      <point x="244" y="1583"/>
      <point x="279" y="1633" type="curve"/>
    </contour>
    <contour>
      <point x="497" y="0" type="line"/>
      <point x="605" y="0" type="line"/>
      <point x="1053" y="1797" type="line"/>
      <point x="942" y="1797" type="line"/>
    </contour>
  </outline>
</glyph>
<glyph name="threequarters" format="1">
  <advance width="1555"/>
  <unicode hex="00BE"/>
  <outline>
    <contour>
      <point x="370" y="511" type="curve" smooth="yes"/>
      <point x="519" y="511"/>
      <point x="583" y="620"/>
      <point x="583" y="857" type="curve" smooth="yes"/>
      <point x="583" y="993"/>
      <point x="541" y="1141"/>
      <point x="455" y="1180" type="curve"/>
      <point x="546" y="1215"/>
      <point x="582" y="1333"/>
      <point x="582" y="1481" type="curve" smooth="yes"/>
      <point x="582" y="1699"/>
      <point x="523" y="1812"/>
      <point x="369" y="1812" type="curve" smooth="yes"/>
      <point x="217" y="1812"/>
      <point x="170" y="1696"/>
      <point x="170" y="1481" type="curve" smooth="yes"/>
      <point x="170" y="1459" type="line"/>
      <point x="257" y="1459" type="line"/>
      <point x="256" y="1481" type="line"/>
      <point x="256" y="1699"/>
      <point x="304" y="1739"/>
      <point x="367" y="1739" type="curve" smooth="yes"/>
      <point x="436" y="1739"/>
      <point x="496" y="1708"/>
      <point x="496" y="1483" type="curve" smooth="yes"/>
      <point x="496" y="1244"/>
      <point x="450" y="1217"/>
      <point x="341" y="1218" type="curve"/>
      <point x="307" y="1218" type="line"/>
      <point x="307" y="1147" type="line"/>
      <point x="340" y="1147" type="line" smooth="yes"/>
      <point x="449" y="1147"/>
      <point x="498" y="1092"/>
      <point x="498" y="859" type="curve" smooth="yes"/>
      <point x="498" y="649"/>
      <point x="469" y="580"/>
      <point x="369" y="580" type="curve" smooth="yes"/>
      <point x="270" y="580"/>
      <point x="253" y="640"/>
      <point x="253" y="867" type="curve" smooth="yes"/>
      <point x="253" y="884" type="line"/>
      <point x="166" y="884" type="line"/>
      <point x="166" y="867" type="line" smooth="yes"/>
      <point x="166" y="626"/>
      <point x="218" y="511"/>
    </contour>
    <contour>
      <point x="1324" y="0" type="line"/>
      <point x="1396" y="0" type="line"/>
      <point x="1396" y="261" type="line"/>
      <point x="1518" y="261" type="line"/>
      <point x="1518" y="327" type="line"/>
      <point x="1396" y="327" type="line"/>
      <point x="1396" y="1277" type="line"/>
      <point x="1343" y="1277" type="line"/>
      <point x="1046" y="317" type="line"/>
      <point x="1055" y="261" type="line"/>
      <point x="1324" y="261" type="line"/>
    </contour>
    <contour>
      <point x="638" y="0" type="line"/>
      <point x="746" y="0" type="line"/>
      <point x="1194" y="1797" type="line"/>
      <point x="1083" y="1797" type="line"/>
    </contour>
    <contour>
      <point x="1126" y="327" type="line"/>
      <point x="1324" y="1031" type="line"/>
      <point x="1324" y="327" type="line"/>
    </contour>
  </outline>
</glyph>
<glyph name="AE" format="1">
  <advance width="982"/>
  <unicode hex="00C6"/>
  <outline>
    <contour>
      <point x="27" y="0" type="line"/>
      <point x="127" y="0" type="line"/>
      <point x="210" y="394" type="line"/>
      <point x="520" y="394" type="line"/>
      <point x="520" y="0" type="line"/>
      <point x="901" y="0" type="line"/>
      <point x="901" y="81" type="line"/>
      <point x="601" y="81" type="line"/>
      <point x="601" y="853" type="line"/>
      <point x="888" y="853" type="line"/>
      <point x="888" y="935" type="line"/>
      <point x="601" y="935" type="line"/>
      <point x="601" y="1683" type="line"/>
      <point x="908" y="1683" type="line"/>
      <point x="908" y="1760" type="line"/>
      <point x="443" y="1760" type="line"/>
    </contour>
    <contour>
      <point x="239" y="473" type="line"/>
      <point x="507" y="1684" type="line"/>
      <point x="520" y="1685" type="line"/>
      <point x="520" y="473" type="line"/>
    </contour>
  </outline>
</glyph>
<glyph name="multiply" format="1">
  <advance width="710"/>
  <unicode hex="00D7"/>
  <outline>
    <contour>
      <point x="162" y="408" type="line"/>
      <point x="355" y="603" type="line"/>
      <point x="548" y="408" type="line"/>
      <point x="620" y="478" type="line"/>
      <point x="424" y="672" type="line"/>
      <point x="620" y="866" type="line"/>
      <point x="548" y="936" type="line"/>
      <point x="355" y="741" type="line"/>
      <point x="162" y="936" type="line"/>
      <point x="90" y="866" type="line"/>
      <point x="286" y="672" type="line"/>
      <point x="90" y="478" type="line"/>
    </contour>
  </outline>
</glyph>
<glyph name="Oslash" format="1">
  <advance width="885"/>
  <unicode hex="00D8"/>
  <outline>
    <contour>
      <point x="313" y="-238" type="line"/>
      <point x="610" y="1990" type="line"/>
      <point x="571" y="1991" type="line"/>
      <point x="282" y="-234" type="line"/>
    </contour>
    <component base="O"/>
  </outline>
</glyph>
<glyph name="Thorn" format="1">
  <advance width="822"/>
  <unicode hex="00DE"/>
  <outline>
    <contour>
      <point x="169" y="0" type="line"/>
      <point x="278" y="0" type="line"/>
      <point x="278" y="500" type="line"/>
      <point x="427" y="500" type="line" smooth="yes"/>
      <point x="675" y="500"/>
      <point x="728" y="662"/>
      <point x="728" y="1038" type="curve" smooth="yes"/>
      <point x="728" y="1055" type="line"/>
      <point x="731" y="1342"/>
      <point x="723" y="1560"/>
      <point x="442" y="1560" type="curve" smooth="yes"/>
      <point x="278" y="1560" type="line"/>
      <point x="278" y="1760" type="line"/>
      <point x="169" y="1760" type="line"/>
    </contour>
    <contour>
      <point x="278" y="594" type="line"/>
      <point x="278" y="1464" type="line"/>
      <point x="467" y="1464" type="line" smooth="yes"/>
      <point x="594" y="1464"/>
      <point x="621" y="1351"/>
      <point x="621" y="1075" type="curve" smooth="yes"/>
      <point x="621" y="1035" type="line" smooth="yes"/>
      <point x="621" y="692"/>
      <point x="586" y="594"/>
      <point x="459" y="594" type="curve" smooth="yes"/>
    </contour>
  </outline>
</glyph>
<glyph name="germandbls" format="1">
  <advance width="900"/>
  <unicode hex="00DF"/>
  <outline>
    <contour>
      <point x="166" y="0" type="line"/>
      <point x="273" y="0" type="line"/>
      <point x="273" y="1521" type="line" smooth="yes"/>
      <point x="273" y="1685"/>
      <point x="312" y="1729"/>
      <point x="438" y="1729" type="curve" smooth="yes"/>
      <point x="591" y="1729"/>
      <point x="633" y="1685"/>
      <point x="633" y="1521" type="curve" smooth="yes"/>
      <point x="633" y="1170" type="line" smooth="yes"/>
      <point x="633" y="1031"/>
      <point x="570" y="982"/>
      <point x="405" y="982" type="curve"/>
      <point x="405" y="915" type="line"/>
      <point x="622" y="915"/>
      <point x="686" y="831"/>
      <point x="686" y="656" type="curve" smooth="yes"/>
      <point x="686" y="395" type="line" smooth="yes"/>
      <point x="686" y="124"/>
      <point x="665" y="53"/>
      <point x="396" y="53" type="curve"/>
      <point x="396" y="0" type="line"/>
      <point x="500" y="0" type="line" smooth="yes"/>
      <point x="800" y="0"/>
      <point x="796" y="177"/>
      <point x="796" y="476" type="curve" smooth="yes"/>
      <point x="796" y="553" type="line" smooth="yes"/>
      <point x="796" y="831"/>
      <point x="742" y="902"/>
      <point x="563" y="945" type="curve"/>
      <point x="699" y="989"/>
      <point x="736" y="1041"/>
      <point x="736" y="1220" type="curve" smooth="yes"/>
      <point x="736" y="1417" type="line" smooth="yes"/>
      <point x="736" y="1704"/>
      <point x="693" y="1781"/>
      <point x="423" y="1781" type="curve" smooth="yes"/>
      <point x="140" y="1781"/>
      <point x="166" y="1660"/>
      <point x="166" y="1417" type="curve" smooth="yes"/>
    </contour>
  </outline>
</glyph>
<glyph name="ae" format="1">
  <advance width="1153"/>
  <unicode hex="00E6"/>
  <outline>
    <contour>
      <point x="800" y="-18" type="curve" smooth="yes"/>
      <point x="1068" y="-18"/>
      <point x="1052" y="207"/>
      <point x="1052" y="507" type="curve" smooth="yes"/>
      <point x="1052" y="552" type="line"/>
      <point x="946" y="552" type="line"/>
      <point x="946" y="431" type="line" smooth="yes"/>
      <point x="946" y="200"/>
      <point x="937" y="85"/>
      <point x="809" y="85" type="curve" smooth="yes"/>
      <point x="661" y="85"/>
      <point x="656" y="198"/>
      <point x="656" y="433" type="curve" smooth="yes"/>
      <point x="656" y="764" type="line"/>
      <point x="1057" y="764" type="line"/>
      <point x="1056" y="757"/>
      <point x="1056" y="985"/>
      <point x="1056" y="985" type="curve"/>
      <point x="1056" y="1276"/>
      <point x="1080" y="1518"/>
      <point x="815" y="1518" type="curve" smooth="yes"/>
      <point x="712" y="1518"/>
      <point x="646" y="1486"/>
      <point x="601" y="1433" type="curve"/>
      <point x="576" y="1489"/>
      <point x="521" y="1518"/>
      <point x="404" y="1518" type="curve" smooth="yes"/>
      <point x="130" y="1518"/>
      <point x="145" y="1271"/>
      <point x="145" y="1041" type="curve" smooth="yes"/>
      <point x="145" y="1003" type="line"/>
      <point x="258" y="1003" type="line"/>
      <point x="258" y="1026" type="line" smooth="yes"/>
      <point x="258" y="1306"/>
      <point x="267" y="1416"/>
      <point x="407" y="1416" type="curve" smooth="yes"/>
      <point x="547" y="1416"/>
      <point x="553" y="1327"/>
      <point x="552" y="1066" type="curve"/>
      <point x="552" y="952" type="line"/>
      <point x="326" y="846"/>
      <point x="125" y="770"/>
      <point x="128" y="586" type="curve"/>
      <point x="128" y="365" type="line" smooth="yes"/>
      <point x="128" y="123"/>
      <point x="185" y="-10"/>
      <point x="321" y="-10" type="curve" smooth="yes"/>
      <point x="404" y="-10"/>
      <point x="519" y="59"/>
      <point x="567" y="95" type="curve"/>
      <point x="611" y="18"/>
      <point x="675" y="-18"/>
    </contour>
    <contour>
      <point x="360" y="84" type="curve" smooth="yes"/>
      <point x="256" y="84"/>
      <point x="235" y="167"/>
      <point x="235" y="389" type="curve" smooth="yes"/>
      <point x="235" y="500" type="line" smooth="yes"/>
      <point x="235" y="705"/>
      <point x="276" y="726"/>
      <point x="553" y="852" type="curve"/>
      <point x="553" y="179" type="line"/>
      <point x="525" y="141"/>
      <point x="442" y="84"/>
    </contour>
    <contour>
      <point x="656" y="864" type="line"/>
      <point x="656" y="1065" type="line" smooth="yes"/>
      <point x="656" y="1274"/>
      <point x="678" y="1413"/>
      <point x="816" y="1413" type="curve" smooth="yes"/>
      <point x="955" y="1413"/>
      <point x="946" y="1288"/>
      <point x="946" y="1065" type="curve" smooth="yes"/>
      <point x="946" y="864" type="line"/>
    </contour>
  </outline>
</glyph>
<glyph name="eth" format="1">
  <advance width="870"/>
  <unicode hex="00F0"/>
  <outline>
    <contour>
      <point x="410" y="-20" type="curve" smooth="yes"/>
      <point x="665" y="-20"/>
      <point x="722" y="224"/>
      <point x="722" y="499" type="curve" smooth="yes"/>
      <point x="722" y="992" type="line" smooth="yes"/>
      <point x="722" y="894"/>
      <point x="724" y="1481"/>
      <point x="717" y="1522" type="curve"/>
      <point x="923" y="1647" type="line"/>
      <point x="875" y="1735" type="line"/>
      <point x="675" y="1613" type="line"/>
      <point x="581" y="1738"/>
      <point x="429" y="1789"/>
      <point x="254" y="1780" type="curve"/>
      <point x="301" y="1643" type="line"/>
      <point x="379" y="1656"/>
      <point x="491" y="1636"/>
      <point x="568" y="1544" type="curve"/>
      <point x="331" y="1399" type="line"/>
      <point x="380" y="1311" type="line"/>
      <point x="611" y="1453" type="line"/>
      <point x="615" y="1420"/>
      <point x="619" y="987"/>
      <point x="619" y="998" type="curve"/>
      <point x="574" y="1068"/>
      <point x="482" y="1102"/>
      <point x="430" y="1104" type="curve" smooth="yes"/>
      <point x="177" y="1117"/>
      <point x="116" y="967"/>
      <point x="116" y="547" type="curve" smooth="yes"/>
      <point x="116" y="428" type="line" smooth="yes"/>
      <point x="116" y="143"/>
      <point x="173" y="-20"/>
    </contour>
    <contour>
      <point x="411" y="72" type="curve" smooth="yes"/>
      <point x="264" y="72"/>
      <point x="225" y="139"/>
      <point x="225" y="450" type="curve" smooth="yes"/>
      <point x="225" y="522" type="line" smooth="yes"/>
      <point x="225" y="892"/>
      <point x="255" y="1013"/>
      <point x="405" y="1013" type="curve" smooth="yes"/>
      <point x="505" y="1013"/>
      <point x="590" y="963"/>
      <point x="613" y="976" type="curve"/>
      <point x="613" y="522" type="line" smooth="yes"/>
      <point x="613" y="208"/>
      <point x="578" y="72"/>
    </contour>
  </outline>
</glyph>
<glyph name="divide" format="1">
  <advance width="804"/>
  <unicode hex="00F7"/>
  <outline>
    <contour>
      <point x="371" y="417" type="line"/>
      <point x="450" y="417" type="line"/>
      <point x="450" y="563" type="line"/>
      <point x="371" y="563" type="line"/>
    </contour>
    <contour>
      <point x="94" y="734" type="line"/>
      <point x="710" y="734" type="line"/>
      <point x="710" y="813" type="line"/>
      <point x="94" y="813" type="line"/>
    </contour>
    <contour>
      <point x="371" y="948" type="line"/>
      <point x="450" y="948" type="line"/>
      <point x="450" y="1077" type="line"/>
      <point x="371" y="1077" type="line"/>
    </contour>
  </outline>
</glyph>
<glyph name="oslash" format="1">
  <advance width="821"/>
  <unicode hex="00F8"/>
  <outline>
    <contour>
      <point x="302" y="-258" type="line"/>
      <point x="521" y="1803" type="line"/>
      <point x="487" y="1797" type="line"/>
      <point x="268" y="-264" type="line"/>
    </contour>
    <component base="o"/>
  </outline>
</glyph>
<glyph name="thorn" format="1">
  <advance width="831"/>
  <unicode hex="00FE"/>
  <outline>
    <contour>
      <point x="169" y="-259" type="line"/>
      <point x="280" y="-259" type="line"/>
      <point x="280" y="114" type="line"/>
      <point x="302" y="42"/>
      <point x="364" y="-15"/>
      <point x="431" y="-15" type="curve" smooth="yes"/>
      <point x="642" y="-15"/>
      <point x="700" y="188"/>
      <point x="700" y="467" type="curve" smooth="yes"/>
      <point x="700" y="1001" type="line" smooth="yes"/>
      <point x="700" y="1293"/>
      <point x="673" y="1510"/>
      <point x="474" y="1510" type="curve" smooth="yes"/>
      <point x="398" y="1510"/>
      <point x="322" y="1488"/>
      <point x="280" y="1392" type="curve"/>
      <point x="280" y="1784" type="line"/>
      <point x="169" y="1784" type="line"/>
    </contour>
    <contour>
      <point x="443" y="72" type="curve"/>
      <point x="309" y="72"/>
      <point x="280" y="200"/>
      <point x="280" y="471" type="curve" smooth="yes"/>
      <point x="280" y="1055" type="line" smooth="yes"/>
      <point x="280" y="1383"/>
      <point x="346" y="1416"/>
      <point x="451" y="1416" type="curve" smooth="yes"/>
      <point x="578" y="1416"/>
      <point x="589" y="1281"/>
      <point x="589" y="1060" type="curve" smooth="yes"/>
      <point x="589" y="474" type="line" smooth="yes"/>
      <point x="589" y="189"/>
      <point x="560" y="73"/>
    </contour>
  </outline>
</glyph>
<glyph name="Hbar" format="1">
  <advance width="896"/>
  <unicode hex="0126"/>
  <outline>
    <contour>
      <point x="55" y="1428" type="line"/>
      <point x="865" y="1428" type="line"/>
      <point x="865" y="1494" type="line"/>
      <point x="55" y="1494" type="line"/>
    </contour>
    <component base="H"/>
  </outline>
</glyph>
<glyph name="hbar" format="1">
  <advance width="893"/>
  <unicode hex="0127"/>
  <outline>
    <contour>
      <point x="0" y="1618" type="line"/>
      <point x="666" y="1618" type="line"/>
      <point x="666" y="1675" type="line"/>
      <point x="0" y="1675" type="line"/>
    </contour>
    <component base="h"/>
  </outline>
</glyph>
<glyph name="dotlessi" format="1">
  <advance width="453"/>
  <unicode hex="0131"/>
  <outline>
    <contour>
      <point x="171" y="0" type="line"/>
      <point x="282" y="0" type="line"/>
      <point x="282" y="1500" type="line"/>
      <point x="171" y="1500" type="line"/>
    </contour>
  </outline>
</glyph>
<glyph name="kgreenlandic" format="1">
  <advance width="813"/>
  <unicode hex="0138"/>
  <outline>
    <contour>
      <point x="169" y="0" type="line"/>
      <point x="279" y="0" type="line"/>
      <point x="279" y="750" type="line"/>
      <point x="645" y="0" type="line"/>
      <point x="763" y="0" type="line"/>
      <point x="386" y="754" type="line"/>
      <point x="744" y="1500" type="line"/>
      <point x="635" y="1500" type="line"/>
      <point x="279" y="741" type="line"/>
      <point x="279" y="1500" type="line"/>
      <point x="169" y="1500" type="line"/>
    </contour>
  </outline>
</glyph>
<glyph name="Lslash" format="1">
  <advance width="675"/>
  <unicode hex="0141"/>
  <outline>
    <contour>
      <point x="-1" y="815" type="line"/>
      <point x="457" y="1028" type="line"/>
      <point x="457" y="1129" type="line"/>
      <point x="-1" y="916" type="line"/>
    </contour>
    <component base="L"/>
  </outline>
</glyph>
<glyph name="lslash" format="1">
  <advance width="759"/>
  <unicode hex="0142"/>
  <outline>
    <contour>
      <point x="116" y="795" type="line"/>
      <point x="616" y="1027" type="line"/>
      <point x="616" y="1153" type="line"/>
      <point x="116" y="921" type="line"/>
    </contour>
    <component base="l" xOffset="112"/>
  </outline>
</glyph>
<glyph name="OE" format="1">
  <advance width="1136"/>
  <unicode hex="0152"/>
  <outline>
    <contour>
      <point x="427" y="0" type="curve" smooth="yes"/>
      <point x="1054" y="0" type="line"/>
      <point x="1054" y="81" type="line"/>
      <point x="713" y="81" type="line"/>
      <point x="713" y="853" type="line"/>
      <point x="1041" y="853" type="line"/>
      <point x="1041" y="935" type="line"/>
      <point x="713" y="935" type="line"/>
      <point x="713" y="1683" type="line"/>
      <point x="1061" y="1683" type="line"/>
      <point x="1061" y="1760" type="line"/>
      <point x="436" y="1760" type="line" smooth="yes"/>
      <point x="154" y="1760"/>
      <point x="141" y="1563"/>
      <point x="141" y="1260" type="curve" smooth="yes"/>
      <point x="141" y="527" type="line" smooth="yes"/>
      <point x="141" y="149"/>
      <point x="179" y="0"/>
    </contour>
    <contour>
      <point x="427" y="90" type="line"/>
      <point x="284" y="91"/>
      <point x="250" y="160"/>
      <point x="250" y="527" type="curve" smooth="yes"/>
      <point x="250" y="1274" type="line" smooth="yes"/>
      <point x="250" y="1572"/>
      <point x="289" y="1671"/>
      <point x="436" y="1671" type="curve" smooth="yes"/>
      <point x="604" y="1671" type="line"/>
      <point x="604" y="90" type="line"/>
    </contour>
  </outline>
</glyph>
<glyph name="oe" format="1">
  <advance width="1160"/>
  <unicode hex="0153"/>
  <outline>
    <contour>
      <point x="399" y="-18" type="curve" smooth="yes"/>
      <point x="500" y="-18"/>
      <point x="561" y="38"/>
      <point x="599" y="113" type="curve"/>
      <point x="640" y="37"/>
      <point x="705" y="-18"/>
      <point x="817" y="-18" type="curve" smooth="yes"/>
      <point x="1081" y="-18"/>
      <point x="1057" y="210"/>
      <point x="1057" y="507" type="curve" smooth="yes"/>
      <point x="1057" y="552" type="line"/>
      <point x="952" y="552" type="line"/>
      <point x="952" y="553"/>
      <point x="952" y="422"/>
      <point x="952" y="431" type="curve" smooth="yes"/>
      <point x="952" y="200"/>
      <point x="943" y="85"/>
      <point x="814" y="85" type="curve" smooth="yes"/>
      <point x="674" y="85"/>
      <point x="662" y="196"/>
      <point x="662" y="454" type="curve" smooth="yes"/>
      <point x="662" y="764" type="line"/>
      <point x="1064" y="764" type="line"/>
      <point x="1063" y="757"/>
      <point x="1063" y="985"/>
      <point x="1063" y="985" type="curve"/>
      <point x="1063" y="1276"/>
      <point x="1086" y="1518"/>
      <point x="820" y="1518" type="curve" smooth="yes"/>
      <point x="714" y="1518"/>
      <point x="649" y="1464"/>
      <point x="608" y="1391" type="curve"/>
      <point x="573" y="1464"/>
      <point x="507" y="1518"/>
      <point x="399" y="1518" type="curve" smooth="yes"/>
      <point x="132" y="1518"/>
      <point x="131" y="1294"/>
      <point x="131" y="1012" type="curve" smooth="yes"/>
      <point x="131" y="527" type="line" smooth="yes"/>
      <point x="131" y="216"/>
      <point x="126" y="-18"/>
    </contour>
    <contour>
      <point x="399" y="85" type="curve" smooth="yes"/>
      <point x="252" y="85"/>
      <point x="240" y="243"/>
      <point x="240" y="480" type="curve" smooth="yes"/>
      <point x="240" y="1043" type="line" smooth="yes"/>
      <point x="240" y="1260"/>
      <point x="251" y="1416"/>
      <point x="399" y="1416" type="curve" smooth="yes"/>
      <point x="538" y="1416"/>
      <point x="552" y="1260"/>
      <point x="552" y="1043" type="curve" smooth="yes"/>
      <point x="552" y="480" type="line" smooth="yes"/>
      <point x="552" y="243"/>
      <point x="537" y="85"/>
    </contour>
    <contour>
      <point x="663" y="864" type="line"/>
      <point x="663" y="1064" type="line" smooth="yes"/>
      <point x="663" y="1281"/>
      <point x="684" y="1413"/>
      <point x="824" y="1413" type="curve" smooth="yes"/>
      <point x="962" y="1413"/>
      <point x="953" y="1288"/>
      <point x="953" y="1065" type="curve" smooth="yes"/>
      <point x="953" y="864" type="line"/>
    </contour>
  </outline>
</glyph>
<glyph name="uni0237" format="1">
  <advance width="437"/>
  <unicode hex="0237"/>
  <outline>
    <contour>
      <point x="185" y="-264" type="curve"/>
      <point x="183" y="-258"/>
      <point x="277" y="-252"/>
      <point x="277" y="-106" type="curve" smooth="yes"/>
      <point x="277" y="1500" type="line"/>
      <point x="168" y="1500" type="line"/>
      <point x="168" y="-116" type="line" smooth="yes"/>
      <point x="168" y="-153"/>
      <point x="162" y="-177"/>
      <point x="139" y="-183" type="curve" smooth="yes"/>
      <point x="105" y="-189"/>
      <point x="58" y="-182"/>
      <point x="60" y="-182" type="curve"/>
      <point x="60" y="-265" type="line"/>
      <point x="60" y="-263"/>
      <point x="118" y="-274"/>
    </contour>
  </outline>
</glyph>
<glyph name="circumflex" format="1">
  <advance width="970"/>
  <unicode hex="02C6"/>
  <outline>
    <contour>
      <point x="327" y="1567" type="line"/>
      <point x="399" y="1567" type="line"/>
      <point x="485" y="1721" type="line"/>
      <point x="571" y="1567" type="line"/>
      <point x="642" y="1567" type="line"/>
      <point x="545" y="1793" type="line"/>
      <point x="425" y="1793" type="line"/>
    </contour>
  </outline>
</glyph>
<glyph name="caron" format="1">
  <advance width="970"/>
  <unicode hex="02C7"/>
  <outline>
    <contour>
      <point x="425" y="1567" type="line"/>
      <point x="545" y="1567" type="line"/>
      <point x="642" y="1791" type="line"/>
      <point x="571" y="1791" type="line"/>
      <point x="485" y="1637" type="line"/>
      <point x="399" y="1791" type="line"/>
      <point x="327" y="1791" type="line"/>
    </contour>
  </outline>
</glyph>
<glyph name="breve" format="1">
  <advance width="1016"/>
  <unicode hex="02D8"/>
  <outline>
    <contour>
      <point x="505" y="1620" type="curve" smooth="yes"/>
      <point x="614" y="1620"/>
      <point x="665" y="1695"/>
      <point x="665" y="1787" type="curve" smooth="yes"/>
      <point x="665" y="1800" type="line"/>
      <point x="630" y="1800" type="line"/>
      <point x="630" y="1711"/>
      <point x="560" y="1693"/>
      <point x="507" y="1693" type="curve" smooth="yes"/>
      <point x="450" y="1693"/>
      <point x="380" y="1715"/>
      <point x="380" y="1800" type="curve"/>
      <point x="346" y="1800" type="line"/>
      <point x="346" y="1785" type="line" smooth="yes"/>
      <point x="346" y="1688"/>
      <point x="402" y="1620"/>
    </contour>
  </outline>
</glyph>
<glyph name="dotaccent" format="1">
  <advance width="572"/>
  <unicode hex="02D9"/>
  <outline>
    <contour>
      <point x="233" y="-374" type="line"/>
      <point x="355" y="-374" type="line"/>
      <point x="355" y="-273" type="line"/>
      <point x="233" y="-273" type="line"/>
    </contour>
  </outline>
</glyph>
<glyph name="ring" format="1">
  <advance width="923"/>
  <unicode hex="02DA"/>
  <outline>
    <contour>
      <point x="464" y="2264" type="curve" smooth="yes"/>
      <point x="405" y="2264"/>
      <point x="374" y="2310"/>
      <point x="374" y="2356" type="curve" smooth="yes"/>
      <point x="374" y="2402"/>
      <point x="405" y="2448"/>
      <point x="464" y="2448" type="curve" smooth="yes"/>
      <point x="527" y="2448"/>
      <point x="557" y="2402"/>
      <point x="557" y="2356" type="curve" smooth="yes"/>
      <point x="557" y="2310"/>
      <point x="527" y="2264"/>
    </contour>
    <contour>
      <point x="464" y="2227" type="curve" smooth="yes"/>
      <point x="569" y="2227"/>
      <point x="612" y="2300"/>
      <point x="612" y="2354" type="curve" smooth="yes"/>
      <point x="612" y="2411"/>
      <point x="569" y="2484"/>
      <point x="464" y="2484" type="curve" smooth="yes"/>
      <point x="361" y="2484"/>
      <point x="317" y="2411"/>
      <point x="317" y="2354" type="curve" smooth="yes"/>
      <point x="317" y="2300"/>
      <point x="361" y="2227"/>
    </contour>
  </outline>
</glyph>
<glyph name="ogonek" format="1">
  <advance width="279"/>
  <unicode hex="02DB"/>
  <outline>
    <contour>
      <point x="203" y="-296" type="curve" smooth="yes"/>
      <point x="265" y="-296"/>
      <point x="307" y="-286"/>
      <point x="308" y="-286" type="curve"/>
      <point x="308" y="-208" type="line"/>
      <point x="311" y="-210"/>
      <point x="248" y="-230"/>
      <point x="198" y="-230" type="curve" smooth="yes"/>
      <point x="173" y="-230"/>
      <point x="119" y="-234"/>
      <point x="119" y="-174" type="curve" smooth="yes"/>
      <point x="119" y="-132"/>
      <point x="135" y="-68"/>
      <point x="227" y="0" type="curve"/>
      <point x="178" y="0" type="line"/>
      <point x="90" y="-86"/>
      <point x="69" y="-155"/>
      <point x="69" y="-208" type="curve" smooth="yes"/>
      <point x="69" y="-316"/>
      <point x="179" y="-296"/>
    </contour>
  </outline>
</glyph>
<glyph name="tilde" format="1">
  <advance width="382"/>
  <unicode hex="02DC"/>
  <outline>
    <contour>
      <point x="329" y="2389" type="curve" smooth="yes"/>
      <point x="385" y="2389"/>
      <point x="414" y="2397"/>
      <point x="460" y="2523" type="curve"/>
      <point x="469" y="2542" type="line"/>
      <point x="376" y="2570" type="line"/>
      <point x="355" y="2510"/>
      <point x="339" y="2502"/>
      <point x="320" y="2499" type="curve"/>
      <point x="316" y="2499" type="line" smooth="yes"/>
      <point x="266" y="2499"/>
      <point x="155" y="2573"/>
      <point x="74" y="2573" type="curve" smooth="yes"/>
      <point x="19" y="2573"/>
      <point x="-46" y="2589"/>
      <point x="-85" y="2454" type="curve"/>
      <point x="-5" y="2410" type="line"/>
      <point x="13" y="2445"/>
      <point x="24" y="2464"/>
      <point x="46" y="2469" type="curve" smooth="yes"/>
      <point x="53" y="2471"/>
      <point x="61" y="2471"/>
      <point x="69" y="2471" type="curve" smooth="yes"/>
      <point x="152" y="2471"/>
      <point x="241" y="2389"/>
    </contour>
  </outline>
</glyph>
<glyph name="hungarumlaut" format="1">
  <advance width="682"/>
  <unicode hex="02DD"/>
  <outline>
    <contour>
      <point x="198" y="1797" type="line"/>
      <point x="403" y="2307" type="line"/>
      <point x="355" y="2311" type="line"/>
      <point x="144" y="1820" type="line"/>
    </contour>
    <contour>
      <point x="420" y="1784" type="line"/>
      <point x="685" y="2294" type="line"/>
      <point x="634" y="2311" type="line"/>
      <point x="366" y="1806" type="line"/>
    </contour>
  </outline>
</glyph>
<glyph name="uni0302" format="1">
  <advance width="560"/>
  <unicode hex="0302"/>
  <outline>
    <contour>
      <point x="129" y="1326" type="line"/>
      <point x="201" y="1326" type="line"/>
      <point x="287" y="1480" type="line"/>
      <point x="373" y="1326" type="line"/>
      <point x="444" y="1326" type="line"/>
      <point x="347" y="1552" type="line"/>
      <point x="227" y="1552" type="line"/>
    </contour>
  </outline>
</glyph>
<glyph name="uni0307" format="1">
  <advance width="572"/>
  <unicode hex="0307"/>
  <outline>
    <contour>
      <point x="234" y="-331" type="line"/>
      <point x="375" y="-331" type="line"/>
      <point x="375" y="21" type="line"/>
      <point x="234" y="21" type="line"/>
    </contour>
  </outline>
</glyph>
<glyph name="dblgravecmb" format="1">
  <advance width="488"/>
  <unicode hex="030F"/>
  <outline>
    <contour>
      <point x="198" y="1528" type="line"/>
      <point x="216" y="1534" type="line"/>
      <point x="183" y="1785" type="line"/>
      <point x="111" y="1743" type="line"/>
    </contour>
    <contour>
      <point x="351" y="1528" type="line"/>
      <point x="369" y="1534" type="line"/>
      <point x="373" y="1785" type="line"/>
      <point x="312" y="1744" type="line"/>
    </contour>
  </outline>
</glyph>
<glyph name="uni0311" format="1">
  <advance width="1016"/>
  <unicode hex="0311"/>
  <outline>
    <contour>
      <point x="343" y="1580" type="line"/>
      <point x="378" y="1584" type="line"/>
      <point x="375" y="1673"/>
      <point x="446" y="1693"/>
      <point x="497" y="1694" type="curve" smooth="yes"/>
      <point x="554" y="1697"/>
      <point x="626" y="1676"/>
      <point x="629" y="1592" type="curve"/>
      <point x="664" y="1596" type="line"/>
      <point x="664" y="1611" type="line"/>
      <point x="660" y="1706"/>
      <point x="600" y="1773"/>
      <point x="497" y="1766" type="curve" smooth="yes"/>
      <point x="388" y="1763"/>
      <point x="339" y="1685"/>
      <point x="343" y="1593" type="curve"/>
    </contour>
  </outline>
</glyph>
<glyph name="commaaccentcomb" format="1">
  <advance width="528"/>
  <unicode hex="0326"/>
  <outline>
    <contour>
      <point x="240" y="-109" type="line"/>
      <point x="282" y="-109" type="line"/>
      <point x="355" y="162" type="line"/>
      <point x="355" y="321" type="line"/>
      <point x="184" y="321" type="line"/>
      <point x="184" y="153" type="line"/>
      <point x="278" y="153" type="line"/>
    </contour>
  </outline>
</glyph>
<glyph name="Delta" format="1">
  <advance width="819"/>
  <unicode hex="0394"/>
  <outline>
    <contour>
      <point x="172" y="92" type="line"/>
      <point x="396" y="1505" type="line"/>
      <point x="397" y="1505" type="line"/>
      <point x="638" y="92" type="line"/>
    </contour>
    <contour>
      <point x="56" y="0" type="line"/>
      <point x="763" y="0" type="line"/>
      <point x="435" y="1760" type="line"/>
      <point x="350" y="1760" type="line"/>
    </contour>
  </outline>
</glyph>
<glyph name="mu" format="1">
  <advance width="876"/>
  <unicode hex="03BC"/>
  <outline>
    <contour>
      <point x="156" y="-186" type="line"/>
      <point x="270" y="-186" type="line"/>
      <point x="270" y="22" type="line"/>
      <point x="305" y="-5"/>
      <point x="383" y="-20"/>
      <point x="434" y="-20" type="curve" smooth="yes"/>
      <point x="520" y="-20"/>
      <point x="594" y="81"/>
      <point x="611" y="148" type="curve"/>
      <point x="611" y="0" type="line"/>
      <point x="720" y="0" type="line"/>
      <point x="720" y="1500" type="line"/>
      <point x="609" y="1500" type="line"/>
      <point x="609" y="272" type="line" smooth="yes"/>
      <point x="609" y="101"/>
      <point x="450" y="29"/>
      <point x="356" y="29" type="curve" smooth="yes"/>
      <point x="346" y="29"/>
      <point x="308" y="11"/>
      <point x="267" y="-21" type="curve" smooth="yes"/>
      <point x="267" y="1500" type="line"/>
      <point x="156" y="1500" type="line"/>
    </contour>
  </outline>
</glyph>
<glyph name="emdash" format="1">
  <advance width="1153"/>
  <unicode hex="2014"/>
  <outline>
    <contour>
      <point x="128" y="665" type="line"/>
      <point x="1024" y="665" type="line"/>
      <point x="1024" y="741" type="line"/>
      <point x="128" y="741" type="line"/>
    </contour>
  </outline>
</glyph>
<glyph name="quoteleft" format="1">
  <advance width="601"/>
  <unicode hex="2018"/>
  <outline>
    <contour>
      <point x="183" y="1209" type="line"/>
      <point x="428" y="1209" type="line"/>
      <point x="428" y="1384" type="line"/>
      <point x="290" y="1384" type="line"/>
      <point x="380" y="1797" type="line"/>
      <point x="290" y="1797" type="line"/>
      <point x="183" y="1375" type="line"/>
    </contour>
  </outline>
</glyph>
<glyph name="quoteright" format="1">
  <advance width="601"/>
  <unicode hex="2019"/>
  <outline>
    <contour>
      <point x="257" y="1209" type="line"/>
      <point x="347" y="1209" type="line"/>
      <point x="454" y="1631" type="line"/>
      <point x="454" y="1797" type="line"/>
      <point x="209" y="1797" type="line"/>
      <point x="209" y="1622" type="line"/>
      <point x="348" y="1622" type="line"/>
    </contour>
  </outline>
</glyph>
<glyph name="quotesinglbase" format="1">
  <advance width="484"/>
  <unicode hex="201A"/>
  <outline>
    <contour>
      <point x="176" y="-475" type="line"/>
      <point x="258" y="-475" type="line"/>
      <point x="380" y="9" type="line"/>
      <point x="380" y="190" type="line"/>
      <point x="124" y="190" type="line"/>
      <point x="124" y="0" type="line"/>
      <point x="274" y="0" type="line"/>
    </contour>
  </outline>
</glyph>
<glyph name="quotedblleft" format="1">
  <advance width="1030"/>
  <unicode hex="201C"/>
  <outline>
    <contour>
      <point x="188" y="1165" type="line"/>
      <point x="444" y="1165" type="line"/>
      <point x="444" y="1352" type="line"/>
      <point x="295" y="1352" type="line"/>
      <point x="394" y="1799" type="line"/>
      <point x="310" y="1799" type="line"/>
      <point x="188" y="1343" type="line"/>
    </contour>
    <contour>
      <point x="629" y="1165" type="line"/>
      <point x="885" y="1165" type="line"/>
      <point x="885" y="1352" type="line"/>
      <point x="735" y="1352" type="line"/>
      <point x="833" y="1799" type="line"/>
      <point x="750" y="1799" type="line"/>
      <point x="629" y="1343" type="line"/>
    </contour>
  </outline>
</glyph>
<glyph name="quotedblright" format="1">
  <advance width="1077"/>
  <unicode hex="201D"/>
  <outline>
    <contour>
      <point x="253" y="1163" type="line"/>
      <point x="336" y="1163" type="line"/>
      <point x="460" y="1619" type="line"/>
      <point x="460" y="1797" type="line"/>
      <point x="203" y="1797" type="line"/>
      <point x="203" y="1610" type="line"/>
      <point x="353" y="1610" type="line"/>
    </contour>
    <contour>
      <point x="694" y="1163" type="line"/>
      <point x="776" y="1163" type="line"/>
      <point x="900" y="1619" type="line"/>
      <point x="900" y="1797" type="line"/>
      <point x="644" y="1797" type="line"/>
      <point x="644" y="1610" type="line"/>
      <point x="792" y="1610" type="line"/>
    </contour>
  </outline>
</glyph>
<glyph name="quotedblbase" format="1">
  <advance width="1016"/>
  <unicode hex="201E"/>
  <outline>
    <contour>
      <point x="241" y="-447" type="line"/>
      <point x="324" y="-447" type="line"/>
      <point x="448" y="9" type="line"/>
      <point x="448" y="187" type="line"/>
      <point x="191" y="187" type="line"/>
      <point x="191" y="0" type="line"/>
      <point x="341" y="0" type="line"/>
    </contour>
    <contour>
      <point x="682" y="-447" type="line"/>
      <point x="764" y="-447" type="line"/>
      <point x="888" y="9" type="line"/>
      <point x="888" y="187" type="line"/>
      <point x="632" y="187" type="line"/>
      <point x="632" y="0" type="line"/>
      <point x="782" y="0" type="line"/>
    </contour>
  </outline>
</glyph>
<glyph name="dagger" format="1">
  <advance width="909"/>
  <unicode hex="2020"/>
  <outline>
    <contour>
      <point x="403" y="0" type="line"/>
      <point x="509" y="0" type="line"/>
      <point x="509" y="1100" type="line"/>
      <point x="818" y="1100" type="line"/>
      <point x="818" y="1182" type="line"/>
      <point x="509" y="1182" type="line"/>
      <point x="509" y="1592" type="line"/>
      <point x="403" y="1592" type="line"/>
      <point x="403" y="1182" type="line"/>
      <point x="91" y="1182" type="line"/>
      <point x="91" y="1100" type="line"/>
      <point x="403" y="1100" type="line"/>
    </contour>
  </outline>
</glyph>
<glyph name="daggerdbl" format="1">
  <advance width="763"/>
  <unicode hex="2021"/>
  <outline>
    <contour>
      <point x="362" y="0" type="line"/>
      <point x="416" y="0" type="line"/>
      <point x="416" y="508" type="line"/>
      <point x="715" y="508" type="line"/>
      <point x="715" y="573" type="line"/>
      <point x="416" y="573" type="line"/>
      <point x="416" y="1100" type="line"/>
      <point x="715" y="1100" type="line"/>
      <point x="715" y="1165" type="line"/>
      <point x="416" y="1165" type="line"/>
      <point x="416" y="1592" type="line"/>
      <point x="362" y="1592" type="line"/>
      <point x="362" y="1165" type="line"/>
      <point x="61" y="1165" type="line"/>
      <point x="61" y="1100" type="line"/>
      <point x="362" y="1100" type="line"/>
      <point x="362" y="573" type="line"/>
      <point x="61" y="573" type="line"/>
      <point x="61" y="508" type="line"/>
      <point x="362" y="508" type="line"/>
    </contour>
  </outline>
</glyph>
<glyph name="bullet" format="1">
  <advance width="861"/>
  <unicode hex="2022"/>
  <outline>
    <contour>
      <point x="430" y="737" type="curve" smooth="yes"/>
      <point x="553" y="737"/>
      <point x="613" y="803"/>
      <point x="613" y="944" type="curve" smooth="yes"/>
      <point x="613" y="1086"/>
      <point x="553" y="1151"/>
      <point x="430" y="1151" type="curve" smooth="yes"/>
      <point x="308" y="1151"/>
      <point x="248" y="1086"/>
      <point x="248" y="944" type="curve" smooth="yes"/>
      <point x="248" y="803"/>
      <point x="308" y="737"/>
    </contour>
  </outline>
</glyph>
<glyph name="perthousand" format="1">
  <advance width="2852"/>
  <unicode hex="2030"/>
  <outline>
    <contour>
      <point x="420" y="701" type="curve" smooth="yes"/>
      <point x="308" y="701"/>
      <point x="275" y="746"/>
      <point x="275" y="935" type="curve" smooth="yes"/>
      <point x="275" y="1438" type="line" smooth="yes"/>
      <point x="275" y="1620"/>
      <point x="310" y="1663"/>
      <point x="420" y="1663" type="curve" smooth="yes"/>
      <point x="532" y="1663"/>
      <point x="566" y="1619"/>
      <point x="566" y="1438" type="curve" smooth="yes"/>
      <point x="566" y="935" type="line" smooth="yes"/>
      <point x="566" y="746"/>
      <point x="534" y="701"/>
    </contour>
    <contour>
      <point x="420" y="581" type="curve" smooth="yes"/>
      <point x="639" y="581"/>
      <point x="687" y="658"/>
      <point x="687" y="1014" type="curve" smooth="yes"/>
      <point x="687" y="1364" type="line" smooth="yes"/>
      <point x="687" y="1702"/>
      <point x="636" y="1782"/>
      <point x="420" y="1782" type="curve" smooth="yes"/>
      <point x="206" y="1782"/>
      <point x="154" y="1702"/>
      <point x="154" y="1364" type="curve" smooth="yes"/>
      <point x="154" y="1014" type="line" smooth="yes"/>
      <point x="154" y="658"/>
      <point x="202" y="581"/>
    </contour>
    <contour>
      <point x="1651" y="100" type="curve" smooth="yes"/>
      <point x="1539" y="100"/>
      <point x="1506" y="145"/>
      <point x="1506" y="334" type="curve" smooth="yes"/>
      <point x="1506" y="837" type="line" smooth="yes"/>
      <point x="1506" y="1019"/>
      <point x="1540" y="1062"/>
      <point x="1651" y="1062" type="curve" smooth="yes"/>
      <point x="1761" y="1062"/>
      <point x="1796" y="1018"/>
      <point x="1796" y="837" type="curve" smooth="yes"/>
      <point x="1796" y="334" type="line" smooth="yes"/>
      <point x="1796" y="145"/>
      <point x="1763" y="100"/>
    </contour>
    <contour>
      <point x="1651" y="-20" type="curve" smooth="yes"/>
      <point x="1870" y="-20"/>
      <point x="1916" y="57"/>
      <point x="1916" y="413" type="curve" smooth="yes"/>
      <point x="1916" y="763" type="line" smooth="yes"/>
      <point x="1916" y="1101"/>
      <point x="1865" y="1181"/>
      <point x="1651" y="1181" type="curve" smooth="yes"/>
      <point x="1437" y="1181"/>
      <point x="1385" y="1101"/>
      <point x="1385" y="763" type="curve" smooth="yes"/>
      <point x="1385" y="413" type="line" smooth="yes"/>
      <point x="1385" y="57"/>
      <point x="1431" y="-20"/>
    </contour>
    <contour>
      <point x="2432" y="100" type="curve" smooth="yes"/>
      <point x="2320" y="100"/>
      <point x="2287" y="145"/>
      <point x="2287" y="334" type="curve" smooth="yes"/>
      <point x="2287" y="837" type="line" smooth="yes"/>
      <point x="2287" y="1019"/>
      <point x="2322" y="1062"/>
      <point x="2432" y="1062" type="curve" smooth="yes"/>
      <point x="2544" y="1062"/>
      <point x="2577" y="1018"/>
      <point x="2577" y="837" type="curve" smooth="yes"/>
      <point x="2577" y="334" type="line" smooth="yes"/>
      <point x="2577" y="145"/>
      <point x="2544" y="100"/>
    </contour>
    <contour>
      <point x="2432" y="-20" type="curve" smooth="yes"/>
      <point x="2652" y="-20"/>
      <point x="2698" y="57"/>
      <point x="2698" y="413" type="curve" smooth="yes"/>
      <point x="2698" y="763" type="line" smooth="yes"/>
      <point x="2698" y="1101"/>
      <point x="2646" y="1181"/>
      <point x="2432" y="1181" type="curve" smooth="yes"/>
      <point x="2218" y="1181"/>
      <point x="2167" y="1101"/>
      <point x="2167" y="763" type="curve" smooth="yes"/>
      <point x="2167" y="413" type="line" smooth="yes"/>
      <point x="2167" y="57"/>
      <point x="2213" y="-20"/>
    </contour>
    <contour>
      <point x="593" y="0" type="line"/>
      <point x="719" y="0" type="line"/>
      <point x="1456" y="1760" type="line"/>
      <point x="1338" y="1760" type="line"/>
    </contour>
  </outline>
</glyph>
<glyph name="guilsinglleft" format="1">
  <advance width="606"/>
  <unicode hex="2039"/>
  <outline>
    <contour>
      <point x="548" y="443" type="line"/>
      <point x="548" y="566" type="line"/>
      <point x="236" y="749" type="line"/>
      <point x="548" y="923" type="line"/>
      <point x="548" y="1034" type="line"/>
      <point x="90" y="763" type="line"/>
      <point x="90" y="728" type="line"/>
    </contour>
  </outline>
</glyph>
<glyph name="guilsinglright" format="1">
  <advance width="727"/>
  <unicode hex="203A"/>
  <outline>
    <contour>
      <point x="175" y="443" type="line"/>
      <point x="633" y="728" type="line"/>
      <point x="633" y="763" type="line"/>
      <point x="175" y="1034" type="line"/>
      <point x="175" y="923" type="line"/>
      <point x="487" y="749" type="line"/>
      <point x="175" y="566" type="line"/>
    </contour>
  </outline>
</glyph>
<glyph name="fraction" format="1">
  <advance width="829"/>
  <unicode hex="2044"/>
  <outline>
    <contour>
      <point x="106" y="0" type="line"/>
      <point x="216" y="0" type="line"/>
      <point x="648" y="1768" type="line"/>
      <point x="539" y="1768" type="line"/>
    </contour>
  </outline>
</glyph>
<glyph name="uni2074" format="1">
  <advance width="858"/>
  <unicode hex="2074"/>
  <outline>
    <contour>
      <point x="493" y="537" type="line"/>
      <point x="553" y="537" type="line"/>
      <point x="553" y="790" type="line"/>
      <point x="672" y="790" type="line"/>
      <point x="672" y="845" type="line"/>
      <point x="553" y="845" type="line"/>
      <point x="553" y="1760" type="line"/>
      <point x="528" y="1760" type="line"/>
      <point x="249" y="836" type="line"/>
      <point x="249" y="790" type="line"/>
      <point x="493" y="790" type="line"/>
    </contour>
    <contour>
      <point x="306" y="845" type="line"/>
      <point x="493" y="1539" type="line"/>
      <point x="493" y="845" type="line"/>
    </contour>
  </outline>
</glyph>
<glyph name="Euro" format="1">
  <advance width="659"/>
  <unicode hex="20AC"/>
  <outline>
    <contour>
      <point x="1" y="772" type="line"/>
      <point x="381" y="772" type="line"/>
      <point x="381" y="835" type="line"/>
      <point x="185" y="835" type="line"/>
      <point x="185" y="1000" type="line"/>
      <point x="381" y="1000" type="line"/>
      <point x="381" y="1055" type="line"/>
      <point x="1" y="1055" type="line"/>
      <point x="1" y="1000" type="line"/>
      <point x="128" y="1000" type="line"/>
      <point x="128" y="835" type="line"/>
      <point x="1" y="835" type="line"/>
    </contour>
    <component base="C" xOffset="-64"/>
  </outline>
</glyph>
<glyph name="trademark" format="1">
  <advance width="1317"/>
  <unicode hex="2122"/>
  <outline>
    <contour>
      <point x="610" y="428" type="line"/>
      <point x="676" y="428" type="line"/>
      <point x="676" y="1008" type="line"/>
      <point x="655" y="1544" type="line"/>
      <point x="852" y="428" type="line"/>
      <point x="942" y="428" type="line"/>
      <point x="1133" y="1544" type="line"/>
      <point x="1114" y="1008" type="line"/>
      <point x="1114" y="428" type="line"/>
      <point x="1178" y="428" type="line"/>
      <point x="1178" y="1762" type="line"/>
      <point x="1099" y="1762" type="line"/>
      <point x="898" y="455" type="line"/>
      <point x="690" y="1762" type="line"/>
      <point x="610" y="1762" type="line"/>
    </contour>
    <contour>
      <point x="270" y="428" type="line"/>
      <point x="349" y="428" type="line"/>
      <point x="349" y="1702" type="line"/>
      <point x="465" y="1702" type="line"/>
      <point x="465" y="1762" type="line"/>
      <point x="137" y="1762" type="line"/>
      <point x="137" y="1702" type="line"/>
      <point x="270" y="1702" type="line"/>
    </contour>
  </outline>
</glyph>
<glyph name="product" format="1">
  <advance width="937"/>
  <unicode hex="220F"/>
  <outline>
    <contour>
      <point x="180" y="0" type="line"/>
      <point x="292" y="0" type="line"/>
      <point x="292" y="1684" type="line"/>
      <point x="645" y="1684" type="line"/>
      <point x="645" y="0" type="line"/>
      <point x="757" y="0" type="line"/>
      <point x="757" y="1760" type="line"/>
      <point x="180" y="1760" type="line"/>
    </contour>
  </outline>
</glyph>
<glyph name="summation" format="1">
  <advance width="657"/>
  <unicode hex="2211"/>
  <outline>
    <contour>
      <point x="92" y="0" type="line"/>
      <point x="477" y="0" type="line"/>
      <point x="477" y="83" type="line"/>
      <point x="206" y="83" type="line"/>
      <point x="447" y="880" type="line"/>
      <point x="206" y="1696" type="line"/>
      <point x="477" y="1696" type="line"/>
      <point x="477" y="1761" type="line"/>
      <point x="92" y="1761" type="line"/>
      <point x="92" y="1734" type="line"/>
      <point x="337" y="881" type="line"/>
      <point x="92" y="45" type="line"/>
    </contour>
  </outline>
</glyph>
<glyph name="minus" format="1">
  <advance width="637"/>
  <unicode hex="2212"/>
  <outline>
    <contour>
      <point x="-8" y="707" type="line"/>
      <point x="644" y="707" type="line"/>
      <point x="644" y="741" type="line"/>
      <point x="-8" y="741" type="line"/>
    </contour>
  </outline>
</glyph>
<glyph name="uni2215" format="1">
  <advance width="724"/>
  <unicode hex="2215"/>
  <outline>
    <contour>
      <point x="106" y="0" type="line"/>
      <point x="216" y="0" type="line"/>
      <point x="648" y="1792" type="line"/>
      <point x="539" y="1792" type="line"/>
    </contour>
  </outline>
</glyph>
<glyph name="radical" format="1">
  <advance width="1200"/>
  <unicode hex="221A"/>
  <outline>
    <contour>
      <point x="371" y="0" type="line"/>
      <point x="485" y="0" type="line"/>
      <point x="739" y="1192" type="line"/>
      <point x="1120" y="1192" type="line"/>
      <point x="1120" y="1320" type="line"/>
      <point x="632" y="1320" type="line"/>
      <point x="423" y="190" type="line"/>
      <point x="150" y="741" type="line"/>
      <point x="52" y="741" type="line"/>
    </contour>
  </outline>
</glyph>
<glyph name="infinity" format="1">
  <advance width="1300"/>
  <unicode hex="221E"/>
  <outline>
    <contour>
      <point x="912" y="439" type="curve" smooth="yes"/>
      <point x="1094" y="439"/>
      <point x="1216" y="561"/>
      <point x="1216" y="744" type="curve" smooth="yes"/>
      <point x="1216" y="922"/>
      <point x="1094" y="1041"/>
      <point x="912" y="1041" type="curve" smooth="yes"/>
      <point x="848" y="1041"/>
      <point x="739" y="959"/>
      <point x="639" y="834" type="curve"/>
      <point x="535" y="951"/>
      <point x="429" y="1028"/>
      <point x="370" y="1028" type="curve" smooth="yes"/>
      <point x="193" y="1028"/>
      <point x="74" y="914"/>
      <point x="74" y="744" type="curve" smooth="yes"/>
      <point x="74" y="569"/>
      <point x="193" y="452"/>
      <point x="370" y="452" type="curve" smooth="yes"/>
      <point x="435" y="452"/>
      <point x="541" y="525"/>
      <point x="639" y="636" type="curve"/>
      <point x="732" y="517"/>
      <point x="841" y="439"/>
    </contour>
    <contour>
      <point x="374" y="567" type="curve" smooth="yes"/>
      <point x="262" y="567"/>
      <point x="188" y="637"/>
      <point x="188" y="740" type="curve" smooth="yes"/>
      <point x="188" y="845"/>
      <point x="262" y="913"/>
      <point x="374" y="913" type="curve" smooth="yes"/>
      <point x="437" y="913"/>
      <point x="522" y="845"/>
      <point x="588" y="740" type="curve"/>
      <point x="522" y="637"/>
      <point x="435" y="567"/>
    </contour>
    <contour>
      <point x="910" y="567" type="curve" smooth="yes"/>
      <point x="838" y="567"/>
      <point x="747" y="637"/>
      <point x="681" y="740" type="curve"/>
      <point x="754" y="843"/>
      <point x="846" y="913"/>
      <point x="910" y="913" type="curve" smooth="yes"/>
      <point x="1025" y="913"/>
      <point x="1104" y="843"/>
      <point x="1104" y="740" type="curve" smooth="yes"/>
      <point x="1104" y="637"/>
      <point x="1025" y="567"/>
    </contour>
  </outline>
</glyph>
<glyph name="integral" format="1">
  <advance width="767"/>
  <unicode hex="222B"/>
  <outline>
    <contour>
      <point x="240" y="-10" type="curve" smooth="yes"/>
      <point x="373" y="-10"/>
      <point x="434" y="69"/>
      <point x="434" y="221" type="curve" smooth="yes"/>
      <point x="434" y="1533" type="line" smooth="yes"/>
      <point x="434" y="1635"/>
      <point x="459" y="1676"/>
      <point x="525" y="1676" type="curve" smooth="yes"/>
      <point x="556" y="1676"/>
      <point x="598" y="1666"/>
      <point x="652" y="1649" type="curve"/>
      <point x="652" y="1752" type="line"/>
      <point x="588" y="1776"/>
      <point x="538" y="1788"/>
      <point x="505" y="1788" type="curve" smooth="yes"/>
      <point x="397" y="1788"/>
      <point x="337" y="1703"/>
      <point x="337" y="1539" type="curve" smooth="yes"/>
      <point x="337" y="305" type="line" smooth="yes"/>
      <point x="337" y="141"/>
      <point x="314" y="110"/>
      <point x="172" y="110" type="curve" smooth="yes"/>
      <point x="155" y="110"/>
      <point x="135" y="110"/>
      <point x="115" y="111" type="curve"/>
      <point x="115" y="8" type="line"/>
      <point x="171" y="-5"/>
      <point x="212" y="-10"/>
    </contour>
  </outline>
</glyph>
<glyph name="approxequal" format="1">
  <advance width="1117"/>
  <unicode hex="2248"/>
  <outline>
    <contour>
      <point x="254" y="569" type="line"/>
      <point x="280" y="627"/>
      <point x="317" y="662"/>
      <point x="349" y="662" type="curve" smooth="yes"/>
      <point x="455" y="662"/>
      <point x="660" y="590"/>
      <point x="774" y="590" type="curve" smooth="yes"/>
      <point x="864" y="590"/>
      <point x="925" y="516"/>
      <point x="981" y="738" type="curve"/>
      <point x="852" y="780" type="line"/>
      <point x="833" y="713"/>
      <point x="802" y="666"/>
      <point x="748" y="660" type="curve"/>
      <point x="684" y="660"/>
      <point x="448" y="733"/>
      <point x="344" y="733" type="curve" smooth="yes"/>
      <point x="266" y="733"/>
      <point x="194" y="682"/>
      <point x="141" y="574" type="curve"/>
    </contour>
    <contour>
      <point x="254" y="940" type="line"/>
      <point x="280" y="998"/>
      <point x="317" y="1033"/>
      <point x="349" y="1033" type="curve" smooth="yes"/>
      <point x="455" y="1033"/>
      <point x="660" y="962"/>
      <point x="774" y="962" type="curve" smooth="yes"/>
      <point x="864" y="962"/>
      <point x="925" y="887"/>
      <point x="981" y="1110" type="curve"/>
      <point x="852" y="1152" type="line"/>
      <point x="833" y="1086"/>
      <point x="802" y="1039"/>
      <point x="748" y="1032" type="curve"/>
      <point x="684" y="1032"/>
      <point x="448" y="1104"/>
      <point x="344" y="1104" type="curve" smooth="yes"/>
      <point x="266" y="1104"/>
      <point x="194" y="1054"/>
      <point x="141" y="945" type="curve"/>
    </contour>
  </outline>
</glyph>
<glyph name="lessequal" format="1">
  <advance width="781"/>
  <unicode hex="2264"/>
  <outline>
    <contour>
      <point x="632" y="277" type="line"/>
      <point x="632" y="399" type="line"/>
      <point x="142" y="732" type="line"/>
      <point x="632" y="1044" type="line"/>
      <point x="632" y="1174" type="line"/>
      <point x="51" y="768" type="line"/>
      <point x="51" y="687" type="line"/>
    </contour>
    <contour>
      <point x="87" y="0" type="line"/>
      <point x="642" y="0" type="line"/>
      <point x="642" y="88" type="line"/>
      <point x="87" y="88" type="line"/>
    </contour>
  </outline>
</glyph>
<glyph name="greaterequal" format="1">
  <advance width="781"/>
  <unicode hex="2265"/>
  <outline>
    <contour>
      <point x="98" y="277" type="line"/>
      <point x="678" y="687" type="line"/>
      <point x="678" y="768" type="line"/>
      <point x="98" y="1174" type="line"/>
      <point x="98" y="1044" type="line"/>
      <point x="589" y="732" type="line"/>
      <point x="98" y="399" type="line"/>
    </contour>
    <contour>
      <point x="83" y="0" type="line"/>
      <point x="638" y="0" type="line"/>
      <point x="638" y="88" type="line"/>
      <point x="83" y="88" type="line"/>
    </contour>
  </outline>
</glyph>
<glyph name="lozenge" format="1">
  <advance width="921"/>
  <unicode hex="25CA"/>
  <outline>
    <contour>
      <point x="460" y="94" type="line"/>
      <point x="252" y="883" type="line"/>
      <point x="460" y="1659" type="line"/>
      <point x="458" y="1659" type="line"/>
      <point x="666" y="883" type="line"/>
      <point x="458" y="94" type="line"/>
    </contour>
    <contour>
      <point x="395" y="0" type="line"/>
      <point x="537" y="0" type="line"/>
      <point x="779" y="883" type="line"/>
      <point x="537" y="1763" type="line"/>
      <point x="395" y="1763" type="line"/>
      <point x="142" y="883" type="line"/>
    </contour>
  </outline>
</glyph>
<glyph name="uniFB00" format="1">
  <advance width="1202"/>
  <unicode hex="FB00"/>
  <outline>
    <contour>
      <point x="241" y="0" type="line"/>
      <point x="352" y="0" type="line"/>
      <point x="352" y="1355" type="line"/>
      <point x="842" y="1355" type="line"/>
      <point x="842" y="0" type="line"/>
      <point x="953" y="0" type="line"/>
      <point x="953" y="1355" type="line"/>
      <point x="1168" y="1355" type="line"/>
      <point x="1168" y="1442" type="line"/>
      <point x="953" y="1442" type="line"/>
      <point x="953" y="1542" type="line" smooth="yes"/>
      <point x="953" y="1618"/>
      <point x="955" y="1677"/>
      <point x="1080" y="1677" type="curve" smooth="yes"/>
      <point x="1104" y="1677"/>
      <point x="1133" y="1675"/>
      <point x="1168" y="1669" type="curve"/>
      <point x="1168" y="1775" type="line"/>
      <point x="1168" y="1775"/>
      <point x="1110" y="1791"/>
      <point x="1043" y="1791" type="curve" smooth="yes"/>
      <point x="882" y="1791"/>
      <point x="842" y="1688"/>
      <point x="842" y="1510" type="curve" smooth="yes"/>
      <point x="842" y="1442" type="line"/>
      <point x="352" y="1442" type="line"/>
      <point x="352" y="1542" type="line" smooth="yes"/>
      <point x="352" y="1618"/>
      <point x="354" y="1677"/>
      <point x="480" y="1677" type="curve" smooth="yes"/>
      <point x="503" y="1677"/>
      <point x="532" y="1675"/>
      <point x="567" y="1669" type="curve"/>
      <point x="567" y="1775" type="line"/>
      <point x="567" y="1775"/>
      <point x="509" y="1791"/>
      <point x="442" y="1791" type="curve" smooth="yes"/>
      <point x="281" y="1791"/>
      <point x="241" y="1688"/>
      <point x="241" y="1510" type="curve" smooth="yes"/>
      <point x="241" y="1442" type="line"/>
      <point x="93" y="1442" type="line"/>
      <point x="93" y="1355" type="line"/>
      <point x="241" y="1355" type="line"/>
    </contour>
  </outline>
</glyph>
<glyph name="uniFB01" format="1">
  <advance width="1055"/>
  <unicode hex="FB01"/>
  <outline>
    <contour>
      <point x="241" y="0" type="line"/>
      <point x="352" y="0" type="line"/>
      <point x="352" y="1415" type="line"/>
      <point x="771" y="1415" type="line"/>
      <point x="771" y="0" type="line"/>
      <point x="883" y="0" type="line"/>
      <point x="883" y="1500" type="line"/>
      <point x="352" y="1500" type="line"/>
      <point x="352" y="1538" type="line" smooth="yes"/>
      <point x="352" y="1615"/>
      <point x="354" y="1673"/>
      <point x="480" y="1673" type="curve" smooth="yes"/>
      <point x="503" y="1673"/>
      <point x="532" y="1671"/>
      <point x="567" y="1666" type="curve"/>
      <point x="567" y="1771" type="line"/>
      <point x="567" y="1772"/>
      <point x="509" y="1787"/>
      <point x="442" y="1787" type="curve" smooth="yes"/>
      <point x="281" y="1787"/>
      <point x="241" y="1684"/>
      <point x="241" y="1506" type="curve" smooth="yes"/>
      <point x="241" y="1502" type="line"/>
      <point x="93" y="1502" type="line"/>
      <point x="93" y="1415" type="line"/>
      <point x="241" y="1415" type="line"/>
    </contour>
    <contour>
      <point x="771" y="1618" type="line"/>
      <point x="883" y="1618" type="line"/>
      <point x="883" y="1800" type="line"/>
      <point x="771" y="1800" type="line"/>
    </contour>
  </outline>
</glyph>
<glyph name="uniFB02" format="1">
  <advance width="1049"/>
  <unicode hex="FB02"/>
  <outline>
    <contour>
      <point x="241" y="0" type="line"/>
      <point x="352" y="0" type="line"/>
      <point x="352" y="1355" type="line"/>
      <point x="567" y="1355" type="line"/>
      <point x="567" y="1442" type="line"/>
      <point x="352" y="1442" type="line"/>
      <point x="352" y="1553" type="line" smooth="yes"/>
      <point x="352" y="1591"/>
      <point x="301" y="1725"/>
      <point x="518" y="1725" type="curve" smooth="yes"/>
      <point x="576" y="1725"/>
      <point x="657" y="1714"/>
      <point x="769" y="1686" type="curve"/>
      <point x="769" y="0" type="line"/>
      <point x="881" y="0" type="line"/>
      <point x="881" y="1757" type="line"/>
      <point x="780" y="1791"/>
      <point x="589" y="1821"/>
      <point x="479" y="1821" type="curve" smooth="yes"/>
      <point x="197" y="1821"/>
      <point x="241" y="1665"/>
      <point x="241" y="1510" type="curve" smooth="yes"/>
      <point x="241" y="1442" type="line"/>
      <point x="93" y="1442" type="line"/>
      <point x="93" y="1355" type="line"/>
      <point x="241" y="1355" type="line"/>
    </contour>
  </outline>
</glyph>
<glyph name="uniFB03" format="1">
  <advance width="1656"/>
  <unicode hex="FB03"/>
  <outline>
    <contour>
      <point x="241" y="0" type="line"/>
      <point x="352" y="0" type="line"/>
      <point x="352" y="1413" type="line"/>
      <point x="842" y="1413" type="line"/>
      <point x="842" y="0" type="line"/>
      <point x="953" y="0" type="line"/>
      <point x="953" y="1413" type="line"/>
      <point x="1372" y="1413" type="line"/>
      <point x="1372" y="0" type="line"/>
      <point x="1484" y="0" type="line"/>
      <point x="1484" y="1500" type="line"/>
      <point x="953" y="1500" type="line"/>
      <point x="953" y="1531" type="line" smooth="yes"/>
      <point x="953" y="1608"/>
      <point x="955" y="1667"/>
      <point x="1080" y="1667" type="curve" smooth="yes"/>
      <point x="1104" y="1667"/>
      <point x="1133" y="1665"/>
      <point x="1168" y="1659" type="curve"/>
      <point x="1168" y="1765" type="line"/>
      <point x="1168" y="1765"/>
      <point x="1110" y="1781"/>
      <point x="1043" y="1781" type="curve" smooth="yes"/>
      <point x="882" y="1781"/>
      <point x="842" y="1678"/>
      <point x="842" y="1500" type="curve" smooth="yes"/>
      <point x="842" y="1500" type="line"/>
      <point x="352" y="1500" type="line"/>
      <point x="352" y="1531" type="line" smooth="yes"/>
      <point x="352" y="1608"/>
      <point x="354" y="1667"/>
      <point x="480" y="1667" type="curve" smooth="yes"/>
      <point x="503" y="1667"/>
      <point x="532" y="1665"/>
      <point x="567" y="1659" type="curve"/>
      <point x="567" y="1765" type="line"/>
      <point x="567" y="1765"/>
      <point x="509" y="1781"/>
      <point x="442" y="1781" type="curve" smooth="yes"/>
      <point x="281" y="1781"/>
      <point x="241" y="1678"/>
      <point x="241" y="1500" type="curve" smooth="yes"/>
      <point x="241" y="1500" type="line"/>
      <point x="93" y="1500" type="line"/>
      <point x="93" y="1413" type="line"/>
      <point x="241" y="1413" type="line"/>
    </contour>
    <contour>
      <point x="1372" y="1618" type="line"/>
      <point x="1484" y="1618" type="line"/>
      <point x="1484" y="1800" type="line"/>
      <point x="1372" y="1800" type="line"/>
    </contour>
  </outline>
</glyph>
<glyph name="uniFB04" format="1">
  <advance width="1557"/>
  <unicode hex="FB04"/>
  <outline>
    <contour>
      <point x="241" y="0" type="line"/>
      <point x="352" y="0" type="line"/>
      <point x="352" y="1355" type="line"/>
      <point x="748" y="1355" type="line"/>
      <point x="748" y="0" type="line"/>
      <point x="860" y="0" type="line"/>
      <point x="860" y="1355" type="line"/>
      <point x="1075" y="1355" type="line"/>
      <point x="1075" y="1442" type="line"/>
      <point x="860" y="1442" type="line"/>
      <point x="860" y="1553" type="line" smooth="yes"/>
      <point x="860" y="1591"/>
      <point x="809" y="1725"/>
      <point x="1026" y="1725" type="curve" smooth="yes"/>
      <point x="1083" y="1725"/>
      <point x="1164" y="1714"/>
      <point x="1277" y="1686" type="curve"/>
      <point x="1277" y="0" type="line"/>
      <point x="1389" y="0" type="line"/>
      <point x="1389" y="1757" type="line"/>
      <point x="1288" y="1791"/>
      <point x="1097" y="1821"/>
      <point x="986" y="1821" type="curve" smooth="yes"/>
      <point x="704" y="1821"/>
      <point x="748" y="1665"/>
      <point x="748" y="1510" type="curve" smooth="yes"/>
      <point x="748" y="1442" type="line"/>
      <point x="352" y="1442" type="line"/>
      <point x="352" y="1542" type="line" smooth="yes"/>
      <point x="352" y="1618"/>
      <point x="354" y="1677"/>
      <point x="480" y="1677" type="curve" smooth="yes"/>
      <point x="503" y="1677"/>
      <point x="532" y="1675"/>
      <point x="567" y="1669" type="curve"/>
      <point x="567" y="1775" type="line"/>
      <point x="567" y="1775"/>
      <point x="509" y="1791"/>
      <point x="442" y="1791" type="curve" smooth="yes"/>
      <point x="281" y="1791"/>
      <point x="241" y="1688"/>
      <point x="241" y="1510" type="curve" smooth="yes"/>
      <point x="241" y="1442" type="line"/>
      <point x="93" y="1442" type="line"/>
      <point x="93" y="1355" type="line"/>
      <point x="241" y="1355" type="line"/>
    </contour>
  </outline>
</glyph>
<glyph name=".notdef" format="1">
  <advance width="1241"/>
  <outline>
    <contour>
      <point x="279" y="51" type="line"/>
      <point x="279" y="1709" type="line"/>
      <point x="962" y="1709" type="line"/>
      <point x="962" y="51" type="line"/>
    </contour>
    <contour>
      <point x="210" y="0" type="line"/>
      <point x="1030" y="0" type="line"/>
      <point x="1030" y="1760" type="line"/>
      <point x="210" y="1760" type="line"/>
    </contour>
    <component base="N" xScale="0.560562535156" yScale="0.673443197976" xOffset="351" yOffset="271"/>
  </outline>
</glyph>
